<svg width="331" height="228" viewBox="0 0 331 228" fill="none" xmlns="http://www.w3.org/2000/svg">
<path d="M75.4451 28.82C75.4451 28.82 73.1027 32.229 71.3585 36.2012C69.6145 40.1714 68.6719 44.7124 69.5935 46.5805C70.5167 48.449 72.311 48.3322 73.5456 46.1078C74.7799 43.8845 78.3795 31.3939 78.4109 30.9852C78.4424 30.5757 75.4451 28.82 75.4451 28.82Z" fill="#FF0000"/>
<path d="M61.6607 62.7041C60.112 60.9801 60.9576 57.9081 62.6827 54.756C64.4095 51.6034 68.4411 43.936 69.8029 42.6904C71.1648 41.4447 73.9582 41.9481 73.563 44.9595C73.1693 47.9694 70.0676 57.1517 68.5865 59.738C67.1039 62.325 65.0298 66.4493 61.6607 62.7041Z" fill="#FF0000"/>
<path d="M77.2118 190.412C77.2118 190.412 75.4794 192.278 75.5265 192.871C75.5733 193.466 78.3873 201.885 79.3653 202.361C80.3427 202.837 80.7898 198.503 81.2895 197.392C81.7886 196.278 82.0663 193.846 82.0663 193.846L77.2118 190.412Z" fill="#303030"/>
<path d="M51.0325 127.702C51.0325 127.702 52.5379 120.313 46.8685 117.162C41.3403 114.088 31.7337 122.372 20.9925 118.208C16.9817 116.652 13.9238 106.088 13.9238 106.088C13.9238 106.088 12.4247 109.195 12.6668 112.671C12.909 116.148 13.7687 117.792 13.7687 117.792C13.8184 118.2 11.9941 116.811 11.1208 115.232C10.6024 114.294 10.1812 111.914 10.1812 111.914C10.1812 111.914 8.35982 117.352 12.2444 122.872C12.4853 123.213 9.17659 123.588 9.17659 123.588C9.17659 123.588 10.4463 127.395 13.4845 130.435C16.2122 133.164 19.8436 135.004 19.8436 135.004L14.488 137.123C14.488 137.123 19.653 138.987 21.245 139.151C22.3527 139.264 25.2862 138.235 25.2862 138.235L22.6728 141.579C22.6728 141.579 25.6329 143.331 33.3644 139.36C41.0963 135.386 51.0325 127.702 51.0325 127.702Z" fill="#330E01"/>
<path d="M72.8348 112.719C79.7373 112.104 85.8341 121.411 87.6149 127.258C89.3944 133.103 86.8021 142.375 85.0009 145.324C79.8243 153.799 73.4342 161.372 73.4852 162.174C73.5713 163.544 81.6091 186.697 81.7111 189.47C81.7547 190.671 81.9749 194.022 82.001 194.635C82.027 195.25 76.6971 194.406 76.6971 194.406C76.6971 194.406 75.8456 189.902 76.0031 188.437C76.6923 182.063 65.4316 165.181 65.0184 163.473C64.6051 161.762 68.0871 154.719 67.8456 151.692C67.6047 148.668 60.2158 139.004 58.9812 133.408C57.748 127.816 59.5072 113.902 72.8348 112.719Z" fill="#6F2200"/>
<path d="M119.296 48.4164C119.348 49.2774 112.913 55.2594 107.619 50.029C102.325 44.7987 98.8445 37.1051 95.144 36.3858C91.4426 35.6664 88.628 35.8403 86.7207 32.1347C85.4467 29.6578 85.2605 27.192 85.2605 27.192C85.2605 27.192 87.3794 31.5859 88.7846 32.1313C90.5037 32.7959 92.4937 32.3509 95.1025 32.1382C96.2805 32.0414 98.008 33.1778 98.008 33.1778C98.008 33.1778 96.7295 30.1721 95.0179 29.2014C93.307 28.2308 91.6956 26.9559 91.0921 25.5433C90.4232 23.9803 91.1504 21.29 91.1504 21.29C91.1504 21.29 91.5466 23.9913 92.9232 24.6784C94.3002 25.3633 97.7827 26.115 99.5156 29.1774C101.248 32.2418 102.061 28.8459 100.712 25.9739C100.143 24.7617 97.7318 24.2339 97.7318 24.2339C97.7318 24.2339 100.686 22.3596 102.452 26.2348C107.319 36.9099 107.68 34.8458 110.287 35.7735C118.71 38.7724 119.296 48.4164 119.296 48.4164Z" fill="#330E01"/>
<path d="M136.182 89.6775C137.44 89.7975 140.661 85.0882 140.678 84.4249C140.692 83.8802 137.851 83.2857 135.943 82.7663C134.882 84.9506 135.147 84.9075 133.548 86.5246C134.519 87.2964 135.267 89.59 136.182 89.6775Z" fill="#303030"/>
<path d="M101.955 46.5576C102.387 47.2204 99.8307 56.8429 93.1467 56.4418C86.4627 56.0406 80.1487 52.2914 76.8019 54.4171C73.4548 56.5404 71.2343 58.7468 68.0049 57.1114C65.8462 56.0186 64.5829 54.1364 64.5829 54.1364C64.5829 54.1364 68.296 56.1815 69.689 55.595C71.3931 54.88 72.8175 53.0561 74.8518 50.9662C75.7708 50.0231 77.6936 49.6879 77.6936 49.6879C77.6936 49.6879 75.2935 48.162 73.4574 48.6227C71.622 49.0835 69.7315 49.2198 68.601 48.5056C67.3495 47.7151 66.7286 44.9781 66.7286 44.9781C66.7286 44.9781 68.2713 46.9018 69.706 46.4523C71.1399 46.005 74.3232 44.0669 77.1197 45.3066C79.9173 46.5442 79.05 43.1659 76.6516 41.8007C75.6403 41.227 73.4332 42.5625 73.4332 42.5625C73.4332 42.5625 74.9989 38.8604 78.1903 40.7381C86.9819 45.9142 88.8941 42.8076 88.8941 42.8076L101.955 46.5576Z" fill="#330E01"/>
<path d="M111.76 47.7066C112 48.5116 107.146 56.5649 100.916 53.4376C94.6858 50.3102 89.652 44.1687 85.9445 44.8027C82.2368 45.4367 79.5749 46.6108 76.9293 43.7374C75.1613 41.8137 74.4399 39.5144 74.4399 39.5144C74.4399 39.5144 77.4403 42.9759 78.9081 42.9962C80.7034 43.0179 82.514 41.8773 84.9691 40.7378C86.0779 40.2248 87.9853 40.6955 87.9853 40.6955C87.9853 40.6955 86.0958 38.2675 84.2408 37.9493C82.3861 37.629 80.5602 36.9821 79.6696 35.843C78.6836 34.5811 78.7879 31.7356 78.7879 31.7356C78.7879 31.7356 79.7634 34.1897 81.235 34.3554C82.7069 34.519 86.213 33.9941 88.5496 36.3146C90.886 38.6373 90.9187 35.0854 88.9909 32.8085C88.1787 31.849 85.7494 32.2068 85.7494 32.2068C85.7494 32.2068 88.1693 29.3474 90.7179 32.4364C97.7375 40.9437 100.334 38.7926 100.334 38.7926L111.76 47.7066Z" fill="#330E01"/>
<path d="M143.489 103.947C144.746 104.424 149.269 99.4734 148.722 98.5284C148.179 98.611 146.834 97.1927 144.965 96.979C143.294 98.9768 143.556 97.8526 142.473 99.992C142.877 100.143 142.467 102.626 143.489 103.947Z" fill="#191919"/>
<path d="M124.682 77.2166C121.261 75.7767 118.836 73.0242 117.039 74.4625C115.256 75.8885 112.136 77.6872 109.682 79.7512C107.226 81.8143 100.19 84.8759 100.19 84.8759L105.305 96.121C105.305 96.121 110.331 95.7203 112.455 91.6394C114.577 87.5584 117.549 81.5152 118.193 81.3761C118.837 81.2376 129.201 84.7906 129.201 84.7906C129.201 84.7906 129.472 84.8334 129.633 84.8719C131.075 85.2171 132.879 86.817 134.88 87.0532C133.919 84.488 137.441 84.6565 137.133 83.8324C136.846 83.0681 128.449 78.8021 124.682 77.2166Z" fill="#6F2200"/>
<path d="M56.8892 209.151C57.6434 210.846 61.7515 211.483 62.6956 211.581C63.3878 211.653 62.5305 206.92 62.0234 204.389C60.5261 204.107 58.8409 203.79 57.6838 203.572C57.67 203.616 56.342 207.92 56.8892 209.151Z" fill="#303030"/>
<path d="M118.426 35.1324C115.535 35.0535 101.237 43.5737 96.1423 46.4211C91.0476 49.2708 72.4195 62.4877 71.2192 66.214C70.0198 69.9399 66.558 84.862 63.9919 92.7074C62.6617 96.7705 51.7866 111.797 49.3668 114.677C46.9476 117.559 44.7054 127.044 44.548 131.292C44.3913 135.539 52.7969 160.042 53.0624 163.67C53.3279 167.297 50.5648 175.032 51.3537 179.271C52.1424 183.513 57.1343 205.8 57.1343 205.8L58.3935 206.37L58.3941 206.377C59.481 205.822 61.064 205.015 62.4705 204.298C61.9546 203.621 61.5864 203.159 61.5864 203.159C61.5864 203.159 57.3155 178.341 58.0332 177.219C58.7504 176.094 62.8624 166.362 63.8648 160.877C64.8684 155.394 69.4527 135.194 69.4527 135.194C69.4527 135.194 83.6168 126.922 89.3998 119.112C95.1821 111.301 107.171 95.3033 109 87.1506C110.829 78.9981 105.301 69.1853 106.786 67.3796C108.271 65.5715 111.07 62.5002 111.93 61.5208C113.756 59.4441 117.279 57.7562 122.189 53.3238C126.498 49.4354 121.317 35.2138 118.426 35.1324Z" fill="#97380E"/>
<path d="M111.354 85.7117C114.246 84.3411 128.292 86.8728 129.51 87.4475C131.857 87.7067 132.919 88.8624 134.455 90.0628L144.838 96.7242L143.045 100.942C136.722 98.9088 133.42 99.1287 129.437 93.8234C126.705 95.3505 123.983 95.6674 121.963 96.129C119.944 96.5906 104.882 97.2346 99.9573 93.668C97.4358 91.0732 95.5893 85.9953 95.5893 85.9953L108.428 82.6348C108.428 82.6348 109.074 84.2926 111.354 85.7117Z" fill="#97380E"/>
<path d="M106.634 40.2946C107.238 43.941 112.424 53.5611 115.812 54.9116C119.202 56.2638 124.057 53.2689 126.513 52.3692C128.97 51.4687 130.85 50.3094 132.161 50.73C133.471 51.1507 133.926 51.8543 134.584 51.8154C135.244 51.7783 138.558 48.2593 138.847 47.2219C139.134 46.1832 138.466 44.3817 138.524 43.2409C138.581 42.0986 138.069 40.2021 137.378 39.8934C136.685 39.5828 134.616 38.1558 133.14 38.3275C131.663 38.4993 126.107 37.0117 124.177 36.4798C122.249 35.949 117.73 32.5908 114.655 33.3809C111.58 34.1712 105.859 35.6111 106.634 40.2946Z" fill="#97380E"/>
<path d="M109.838 37.5029C109.386 38.636 107.026 37.5772 106.259 35.9004C105.492 34.2213 104.638 30.7536 104.992 29.2445C105.347 27.7371 106.163 29.9359 107.297 30.5282C108.431 31.1205 111.333 33.7542 109.838 37.5029Z" fill="#6F2200"/>
<path d="M64.1651 88.1589C64.1651 88.1589 72.4961 92.2827 79.5669 98.1331C88.8452 105.811 94.4355 112.641 94.4355 112.641L97.3189 108.531C97.3189 108.531 91.9071 99.9727 81.7651 92.1521C73.9716 86.1414 66.4298 82.6351 66.4298 82.6351L64.1651 88.1589Z" fill="black"/>
<path d="M64.1651 88.1589C64.1651 88.1589 72.4961 92.2827 79.5669 98.1331C88.8452 105.811 94.4355 112.641 94.4355 112.641L97.3189 108.531C97.3189 108.531 91.9071 99.9727 81.7651 92.1521C73.9716 86.1414 66.4298 82.6351 66.4298 82.6351L64.1651 88.1589Z" fill="black"/>
<path d="M74.1082 111.96C74.1082 111.96 76.3847 115.815 79.342 119.179C82.3001 122.544 84.2382 123.873 85.1381 122.95C86.0394 122.027 87.17 120.296 88.283 120.395C89.3959 120.491 90.6501 120.75 91.0875 119.885C91.5262 119.02 86.321 113.684 82.7774 110.432C79.2343 107.18 77.5398 107.07 77.5398 107.07L74.1082 111.96Z" fill="#191919"/>
<path d="M67.9113 74.7483C67.9113 74.7483 71.25 77.4477 70.0982 79.8235C69.2692 81.5318 67.9321 80.6863 67.6949 81.1748C67.4572 81.6637 67.3469 83.1217 66.9531 83.5478C66.5598 83.9761 64.8817 85.1925 64.636 86.0175C64.3895 86.8405 62.3221 93.9407 63.1903 94.449C64.059 94.9595 69.4571 94.1774 71.3516 89.7365C73.2455 85.2935 71.7243 82.4499 72.1491 81.498C72.5724 80.5468 75.2674 79.2103 74.4654 77.1076C74.0992 76.1488 69.764 71.2869 67.9113 74.7483Z" fill="#191919"/>
<path d="M62.3801 84.4806C62.3801 84.4806 62.0755 93.4995 60.1263 96.3104C56.4629 101.589 54.5553 101.184 54.5678 103.621C54.5739 104.823 58.1954 105.886 60.0611 103.144C61.9275 100.403 67.9108 86.5981 67.9108 86.5981C67.9108 86.5981 66.7456 87.5433 64.8789 86.3844C63.2724 85.3869 62.3801 84.4806 62.3801 84.4806Z" fill="#303030"/>
<path d="M70.6362 114.312C72.5705 113.236 76.0055 109.525 81.3347 100.121C83.2054 96.8209 87.403 89.5902 90.1123 80.621C91.4116 76.3199 70.0233 67.1077 69.8183 67.67C69.6122 68.2305 70.5498 73.5206 66.079 83.7487C60.2523 97.0757 55.4792 103.359 55.4792 103.359C55.4792 103.359 68.7012 115.387 70.6362 114.312Z" fill="#ABABAB"/>
<path d="M132.511 50.7557C132.381 50.8311 119.278 58.1786 112.054 61.1331C99.7415 66.1674 93.7956 68.0074 93.7364 68.0249L93.5408 66.9384C93.5984 66.9197 99.5197 65.0902 111.796 60.0682C118.977 57.1328 132.037 49.8075 132.168 49.7343L132.511 50.7557Z" fill="#191919"/>
<path d="M130.702 48.0698C130.702 48.0698 129.722 46.3021 129.938 42.9721C130.123 40.1019 130.951 38.7087 130.951 38.7087L133.157 38.9905C133.157 38.9905 132.304 40.7536 132.224 42.8242C132.144 44.8948 132.998 47.4011 132.998 47.4011L130.702 48.0698Z" fill="#191919"/>
<path d="M130.891 47.3641L116.312 46.4965L116.2 47.7522L130.634 48.4372L130.891 47.3641Z" fill="#191919"/>
<path d="M115.85 58.6901C115.735 58.638 113.5 57.2268 110.903 54.1177C108.647 51.4182 107.982 48.8365 107.416 46.3602C106.849 43.8822 106.872 38.3121 106.872 38.3121L105.394 38.6947C105.394 38.6947 105.162 46.6842 107.612 51.7288C110.062 56.7736 114.017 59.3823 114.017 59.3823L115.85 58.6901Z" fill="#191919"/>
<path d="M116.599 47.8014C116.447 47.9317 113.917 47.0174 111.769 45.0525C109.221 42.7192 106.703 38.2874 106.703 38.2874L107.668 37.6626C107.668 37.6626 110.215 42.4707 112.602 44.5405C114.68 46.3426 116.368 46.5917 116.368 46.5917L116.599 47.8014Z" fill="#191919"/>
<path d="M132.209 46.8025C131.97 46.7574 131.726 46.8051 131.506 46.9396C131.212 47.1181 130.989 47.4328 130.882 47.8268C130.773 48.2185 130.791 48.6408 130.932 49.0172C131.213 49.7653 131.973 50.1134 132.564 49.7545C132.858 49.5738 133.081 49.2592 133.188 48.8673C133.297 48.4756 133.279 48.0511 133.138 47.6748C132.961 47.2048 132.613 46.8787 132.209 46.8025ZM131.752 50.8338C131.101 50.711 130.542 50.1869 130.258 49.4293C130.029 48.8226 130 48.1398 130.174 47.5066C130.349 46.8733 130.707 46.3659 131.183 46.0767C132.133 45.5003 133.359 46.0565 133.812 47.2627C134.041 47.8694 134.07 48.5522 133.895 49.1854C133.721 49.8187 133.363 50.3262 132.887 50.6152C132.533 50.8315 132.14 50.9068 131.752 50.8338Z" fill="#E8A900"/>
<path d="M62.402 63.4781C62.402 63.4781 62.3684 61.3207 62.4943 60.0155C62.8115 56.7479 63.5718 53.0379 63.5718 53.0379L57.2399 49.2128C57.2399 49.2128 58.4623 53.3206 56.4562 57.9937C57.8732 60.4141 59.9387 63.0277 62.402 63.4781Z" fill="#BA7454"/>
<path d="M92.9783 66.2901C92.9783 66.2901 95.5878 63.9689 96.1819 63.6785C96.7759 63.3883 99.2533 63.2241 99.2533 63.2241C99.2533 63.2241 98.7148 64.4835 98.9236 65.1605C99.1307 65.8364 99.793 67.517 99.793 67.517C99.793 67.517 97.8968 68.8459 96.9101 69.0773C95.9228 69.3093 93.4197 70.5472 93.4197 70.5472L92.9783 66.2901Z" fill="#D08562"/>
<path d="M61.8433 41.0442C60.1186 40.3655 56.0904 41.2268 55.4453 45.2582C54.8003 49.2896 56.6455 51.7663 58.2578 53.0147C59.5147 53.9889 60.517 54.3411 62.2288 54.2934C62.5782 54.2836 65.4024 53.2751 65.8417 52.7332C66.142 52.3618 65.1953 48.8789 65.3045 48.8303C65.4132 48.7797 65.6298 48.4059 65.5469 48.128C65.4245 47.7232 64.2144 45.5415 64.1967 45.2446C64.1796 44.9474 63.8197 41.8222 61.8433 41.0442Z" fill="#D08562"/>
<path d="M62.7696 40.786C62.7696 40.786 60.2537 40.563 58.8358 44.9412C58.5306 45.8843 60.5067 47.9076 60.4583 48.2216C60.4077 48.5605 57.7837 47.4843 57.9641 47.7409C59.8052 50.355 59.6398 52.5075 59.4283 52.6605C58.7869 53.118 55.1626 50.0543 54.8934 45.9627C54.6243 41.8709 57.4211 39.7497 58.1901 39.5116C58.9589 39.2737 61.1448 38.1898 62.7696 40.786Z" fill="#8D3B26"/>
<path d="M79.2342 91.4484C77.5138 92.3614 77.2642 104.535 79.4167 110.455C81.5698 116.378 85.1755 121.652 85.5204 122.684C85.8655 123.712 86.1263 126.359 87.0317 126.495C87.9386 126.633 90.5396 123.022 90.1143 122.255C89.6894 121.49 89.5798 121.972 88.7528 119.937C87.9264 117.903 85.0381 106.984 84.4564 104.437C83.8745 101.892 82.0326 89.962 79.2342 91.4484Z" fill="#DEDEDE"/>
<path d="M88.0368 120.091C87.1387 119.98 86.9163 117.457 86.5876 116.479C86.2585 115.501 82.7497 110.54 80.6926 104.928C79.8025 102.501 79.6315 99.7986 79.8617 97.4392C76.1572 98.2075 70.2821 99.1215 67.4583 99.1547C65.1956 99.1809 62.0888 99.7006 60.2441 98.046L59.8669 97.7904C57.1706 95.3747 57.2635 92.0003 57.9252 88.0747C57.6908 87.9421 57.4436 87.8498 57.217 87.6975C56.3013 92.4527 55.677 96.5439 58.8076 99.3481L59.1853 99.6057C61.03 101.26 64.1367 100.741 66.3989 100.712C69.2228 100.679 75.0978 99.7652 78.8022 98.997C78.5721 101.356 78.7431 104.058 79.6332 106.486C81.6907 112.099 85.1991 117.059 85.5282 118.039C85.8575 119.017 86.0799 121.539 86.9772 121.649C87.6167 121.728 89.1164 119.984 89.79 118.704C89.1385 119.496 88.4262 120.138 88.0368 120.091Z" fill="#C2C2C2"/>
<path d="M71.9322 88.9499L71.929 88.9492C69.7803 88.3871 67.6301 87.9918 66.4643 87.9151C65.8198 87.8738 64.9912 87.8433 64.0878 87.8368L64.0787 87.4193C63.1407 87.6534 62.188 87.8143 61.2353 87.9018L60.7813 87.9316C59.6551 88.0032 58.5384 87.9157 57.4415 87.7351C57.4603 88.4537 57.7736 89.1335 58.8151 89.3376C61.2818 89.8229 72.3876 89.1019 72.4675 89.0967L71.9322 88.9499Z" fill="#C2C2C2"/>
<path d="M55.5943 93.7759C55.4634 91.6012 57.162 89.663 58.8952 88.568C60.6283 87.4753 66.3558 87.4575 69.0192 87.6337C71.6825 87.8077 79.4945 89.644 80.6721 91.3583C81.8512 93.0743 81.9777 96.705 78.7037 97.4687C75.4297 98.2348 67.8326 99.3722 64.4901 99.3336C61.148 99.2971 55.9874 100.335 55.5943 93.7759Z" fill="#DEDEDE"/>
<path d="M78.4399 106.664C78.4399 106.664 79.0426 110.604 80.4405 113.713C81.8388 116.82 85.1404 121.595 85.2458 122.374C85.3515 123.152 86.1801 126.231 86.5379 126.781C86.8963 127.331 87.9621 128.007 88.1047 128.204C88.2484 128.404 88.7785 129.234 88.7785 129.234L91.9931 126.973L91.8021 125.942C91.8021 125.942 94.9366 124.625 96.7286 122.888C98.5205 121.151 99.7322 119.613 99.661 119.021C99.5905 118.428 98.9177 117.835 97.2527 119.021C95.587 120.205 91.2286 120.459 90.1535 120.45C89.0786 120.44 84.9165 105.159 84.9165 105.159C84.9165 105.159 83.3024 102.849 81.7674 103.205C79.9894 103.616 78.4399 106.664 78.4399 106.664Z" fill="black"/>
<path d="M93.4581 65.9659C93.4581 65.9659 89.9404 65.4569 86.4065 65.9001C82.874 66.3426 76.3625 68.5009 75.6997 70.5419C75.0375 72.5849 76.1412 74.4057 78.268 74.4287C80.394 74.4521 93.4996 70.5295 93.7783 70.3281C94.0576 70.1264 93.4581 65.9659 93.4581 65.9659Z" fill="#F30000"/>
<path d="M53.1801 62.4854C52.6937 64.1734 53.5579 71.7107 53.2537 68.6012C53.239 68.4515 53.7186 73.324 53.7675 74.2628C53.8107 75.0989 54.1845 94.3075 55.4679 94.5492C56.7513 94.791 54.7725 94.4026 56.2035 93.8459C59.6913 91.6561 65.8662 91.449 67.5062 86.7138C68.2902 85.1809 67.1069 78.7506 66.8584 77.183C66.3509 73.9803 66.8909 68.4098 66.4405 64.3631C65.9899 60.3172 64.0221 57.7052 61.8574 57.0288C59.6945 56.352 54.5539 57.7013 53.1801 62.4854Z" fill="#F30000"/>
<path d="M53.8487 84.1417L66.888 79.0205" stroke="black"/>
<path d="M60.6537 66.5149C61.4012 64.064 63.9381 64.0607 66.8278 65.0953C69.7184 66.1317 76.6925 68.449 78.0618 69.6811C79.431 70.9133 79.9954 74.463 77.6535 74.9912C75.3132 75.5207 67.5383 74.8353 65.1454 73.9071C62.7514 72.9771 59.0316 71.8451 60.6537 66.5149Z" fill="#F30000"/>
<path d="M56.1332 87.0977L55.962 82.8559L57.3396 82.2735L57.9813 82.3943L57.8701 89.1086L57.1343 89.8119L56.9631 85.5702L56.1332 87.0977Z" fill="white" stroke="white"/>
<path d="M75.6654 25.1083L75.1949 29.2291L78.2152 31.4818L80.8931 25.251L77.8728 22.9983L75.6654 25.1083Z" fill="#D08562"/>
<path d="M59.7109 42.6323L66.3943 39.4832L62.4934 40.0297L59.7109 42.6323Z" fill="#030303"/>
<path d="M59.7109 42.6323L66.3943 39.4832L62.4934 40.0297L59.7109 42.6323ZM59.7109 42.6323L57.6351 43.9504L55.5593 45.2684L55.2822 44.3721L62.3854 37.8961" stroke="black"/>
<path d="M61.887 35.5524C62.0866 36.198 61.9232 38.2743 61.9232 38.2743L55.4018 45.8353L54.88 46.1014L54.747 45.671L54.1995 45.2028L53.6112 45.2537L59.6821 34.933L60.5004 33.021C60.5004 33.021 61.6874 34.9068 61.887 35.5524Z" fill="#FF0000" stroke="#FF0000"/>
<path d="M62.7642 39.6485L62.1147 37.5479L61.9888 37.8552L54.8227 45.401L55.5291 46.2567L62.7642 39.6485Z" fill="#2C2E2A" stroke="black"/>
<path d="M61.8943 38.0928L61.7139 37.5092L61.3781 37.6805L54.6548 45.4868L61.8943 38.0928Z" fill="#B70303" stroke="#B70303"/>
<rect width="0.781466" height="1.2847" transform="matrix(0.859521 -0.438353 0.303324 0.981096 60.7934 35.7896)" fill="#B18138"/>
<path d="M62.2715 38.6837L55.1205 45.7354L62.4014 39.1039L62.2715 38.6837Z" stroke="#B18138"/>
<g filter="url(#filter0_i_1024_547)">
<path d="M76.9529 24.1076L59.9395 7.83398" stroke="black" stroke-width="0.5"/>
</g>
<path d="M80.081 26.7466L82.4244 28.9418" stroke="black"/>
<path d="M59.9351 7.84131C66.1266 15.9275 69.8044 19.0315 76.4999 23.5729" stroke="#404040" stroke-width="0.5"/>
<path d="M62.8656 10.9106L72.2859 20.262" stroke="#404040" stroke-width="0.5"/>
<path d="M106.866 78.0617C101.166 85.9729 108.213 98.7785 99.4723 106.412" stroke="#FF0000" stroke-width="3"/>
<path d="M101.041 81.0627C102.709 93.4002 88.6163 97.6791 93.6475 109.413" stroke="#FF0000" stroke-width="3"/>
<path d="M94.5158 77.8998C83.1685 87.9496 91.0365 97.1708 86.8919 106.346" stroke="#FF0000" stroke-width="3"/>
<path d="M88.9058 73.3544C88.5433 84.1447 77.1552 89.1578 81.2819 101.8" stroke="#FF0000" stroke-width="3"/>
<path d="M107.689 77.1252C101.988 85.0364 111.938 97.4301 103.197 105.063" stroke="white" stroke-width="3"/>
<path d="M101.271 80.9665C102.939 93.3041 91.7488 97.171 96.78 108.905" stroke="white" stroke-width="3"/>
<path d="M94.8152 77.5115C96.3438 89.1093 88.8203 90.9156 90.324 105.45" stroke="white" stroke-width="3"/>
<path d="M88.9056 73.3542C88.5431 84.1445 80.2877 88.6497 84.4144 101.292" stroke="white" stroke-width="3"/>
<path d="M106.593 68.3999L79.9448 73.7832L109.398 83.5999C109.207 77.7083 108.682 74.7843 106.593 68.3999Z" fill="#FF0000" stroke="#FF0000" stroke-width="0.5"/>
<path d="M64.2365 151.05C61.9255 163.074 73.5448 176.466 68.2563 189.276" stroke="#FF0000" stroke-width="3"/>
<path d="M59.903 156.977C66.2638 171.79 54.6221 182.4 63.9228 195.204" stroke="#FF0000" stroke-width="3"/>
<path d="M54.3484 155.667C60.2904 169.607 51.5102 176.493 58.5678 194.116" stroke="#FF0000" stroke-width="3"/>
<path d="M50.5318 155.073C43.7204 171.879 54.7239 180.481 54.3715 193.505" stroke="#FF0000" stroke-width="3"/>
<path d="M45.4586 151.86C49.3025 165.495 40.4988 176.014 49.2984 190.292" stroke="#FF0000" stroke-width="3"/>
<path d="M64.6497 149.572C62.3387 161.595 76.5377 173.39 71.2492 186.2" stroke="white" stroke-width="3"/>
<path d="M60.0829 156.771C66.4438 171.585 57.3817 180.596 66.6824 193.4" stroke="white" stroke-width="3"/>
<path d="M54.7281 155.683C60.6701 169.623 54.2699 174.689 61.3275 192.311" stroke="white" stroke-width="3"/>
<path d="M50.5317 155.073C43.7203 171.879 57.4835 178.677 57.1311 191.702" stroke="white" stroke-width="3"/>
<path d="M45.4586 151.86C49.3025 165.495 43.2585 174.21 52.0581 188.488" stroke="white" stroke-width="3"/>
<path d="M61.4414 157.472C68.4881 146.732 73.9296 137.649 57.3357 104.919C45.1348 111.627 43.9622 131.376 42.0762 143.45C40.5613 159.918 48.7311 157.133 61.4414 157.472Z" fill="#FF0000" stroke="#FF0000" stroke-width="0.5"/>
<path d="M48.5081 139.807L52.3443 140.829L51.3892 136.512L46.3552 134.156L48.5081 139.807Z" fill="white" stroke="white" stroke-width="0.5"/>
<path d="M53.499 145.369L52.5439 141.052L56.3801 142.074L58.533 147.726L53.499 145.369Z" fill="white" stroke="white" stroke-width="0.5"/>
<path d="M53.2376 136.851L52.6739 141.102L56.4318 140.411L58.0759 134.924L53.2376 136.851Z" fill="white" stroke="white" stroke-width="0.5"/>
<path d="M48.7861 141.744L52.544 141.052L51.9803 145.303L47.142 147.23L48.7861 141.744Z" fill="white" stroke="white" stroke-width="0.5"/>
<path d="M257.407 29.0112C257.407 29.0112 259.712 32.4611 261.413 36.4636C263.114 40.4641 264.008 45.0212 263.067 46.8729C262.125 48.725 260.333 48.5766 259.123 46.3307C257.913 44.0858 254.447 31.5332 254.42 31.1241C254.393 30.714 257.407 29.0112 257.407 29.0112Z" fill="#0001C8"/>
<path d="M270.825 63.1342C272.391 61.4376 271.578 58.3511 269.888 55.1689C268.195 51.9863 264.247 44.2487 262.899 42.9792C261.551 41.7098 258.754 42.1639 259.118 45.182C259.479 48.1985 262.482 57.4344 263.935 60.0465C265.389 62.6594 267.419 66.8197 270.825 63.1342Z" fill="#0001C8"/>
<path d="M253.937 190.555C253.937 190.555 255.648 192.452 255.595 193.043C255.542 193.637 252.641 202.006 251.658 202.465C250.677 202.924 250.276 198.582 249.788 197.463C249.301 196.34 249.049 193.904 249.049 193.904L253.937 190.555Z" fill="#303030"/>
<path d="M280.761 128.313C280.761 128.313 279.334 120.897 285.033 117.847C290.59 114.871 300.103 123.323 310.882 119.348C314.906 117.863 318.074 107.354 318.074 107.354C318.074 107.354 319.539 110.487 319.26 113.959C318.982 117.431 318.105 119.059 318.105 119.059C318.051 119.466 319.889 118.11 320.779 116.546C321.306 115.618 321.753 113.245 321.753 113.245C321.753 113.245 323.515 118.715 319.575 124.165C319.331 124.503 322.633 124.936 322.633 124.936C322.633 124.936 321.324 128.719 318.256 131.706C315.501 134.387 311.853 136.163 311.853 136.163L317.183 138.376C317.183 138.376 312.001 140.149 310.408 140.285C309.3 140.378 306.379 139.297 306.379 139.297L308.956 142.687C308.956 142.687 305.979 144.387 298.294 140.28C290.609 136.171 280.761 128.313 280.761 128.313Z" fill="#330E01"/>
<path d="M259.13 112.947C252.239 112.211 246.047 121.41 244.206 127.225C242.366 133.038 244.859 142.355 246.628 145.335C251.712 153.9 258.018 161.585 257.958 162.386C257.858 163.754 249.581 186.763 249.45 189.534C249.394 190.735 249.138 194.081 249.106 194.693C249.073 195.308 254.409 194.558 254.409 194.558C254.409 194.558 255.307 190.069 255.165 188.601C254.544 182.216 265.975 165.534 266.406 163.833C266.837 162.13 263.432 155.026 263.705 152.004C263.978 148.984 271.464 139.452 272.757 133.878C274.048 128.308 272.437 114.364 259.13 112.947Z" fill="#371100"/>
<path d="M213.377 47.8337C213.316 48.6937 219.684 54.7884 225.03 49.6517C230.376 44.5151 233.935 36.8835 237.641 36.2294C241.348 35.5752 244.159 35.7986 246.104 32.1269C247.403 29.6727 247.615 27.2105 247.615 27.2105C247.615 27.2105 245.451 31.5666 244.041 32.0872C242.316 32.7215 240.332 32.2415 237.727 31.9829C236.551 31.8655 234.813 32.9713 234.813 32.9713C234.813 32.9713 236.122 29.9884 237.843 29.0479C239.563 28.1075 241.187 26.8611 241.805 25.4593C242.49 23.9082 241.791 21.2054 241.791 21.2054C241.791 21.2054 241.367 23.8995 239.984 24.5623C238.601 25.2229 235.112 25.9132 233.348 28.9447C231.585 31.9784 230.808 28.5685 232.186 25.7206C232.767 24.5185 235.183 24.0332 235.183 24.0332C235.183 24.0332 232.25 22.1071 230.444 25.9508C225.468 36.5392 225.129 34.4689 222.514 35.3506C214.065 38.2011 213.377 47.8337 213.377 47.8337Z" fill="#330E01"/>
<path d="M196.066 88.7932C194.808 88.8911 191.639 84.1255 191.629 83.462C191.62 82.9172 194.466 82.3727 196.378 81.8869C197.416 84.0897 197.151 84.0419 198.732 85.687C197.753 86.4416 196.982 88.7218 196.066 88.7932Z" fill="#303030"/>
<path d="M230.727 46.2803C230.288 46.9354 232.741 56.6019 239.425 56.3184C246.109 56.0349 252.459 52.3972 255.781 54.5815C259.104 56.7636 261.299 59.0088 264.544 57.4304C266.713 56.3757 267.995 54.5159 267.995 54.5159C267.995 54.5159 264.263 56.4954 262.877 55.8845C261.181 55.1396 259.777 53.2908 257.766 51.1654C256.858 50.2062 254.94 49.8372 254.94 49.8372C254.94 49.8372 257.354 48.3537 259.184 48.8466C261.014 49.3397 262.902 49.5092 264.039 48.815C265.298 48.0466 265.948 45.3208 265.948 45.3208C265.948 45.3208 264.386 47.2171 262.956 46.7425C261.528 46.27 258.367 44.2761 255.56 45.4664C252.751 46.6547 253.653 43.292 256.064 41.9691C257.081 41.4133 259.273 42.7875 259.273 42.7875C259.273 42.7875 257.747 39.0582 254.538 40.8796C245.697 45.9004 243.819 42.7605 243.819 42.7605L230.727 46.2803Z" fill="#330E01"/>
<path d="M220.916 47.2564C220.667 48.0572 225.434 56.195 231.692 53.1776C237.952 50.1602 243.047 44.1079 246.746 44.8071C250.444 45.5063 253.092 46.7271 255.766 43.9006C257.553 42.0082 258.299 39.7218 258.299 39.7218C258.299 39.7218 255.264 43.1302 253.797 43.1246C252.002 43.1148 250.205 41.9424 247.763 40.7599C246.66 40.2274 244.749 40.6644 244.749 40.6644C244.749 40.6644 246.663 38.27 248.52 37.9845C250.377 37.6968 252.209 37.0821 253.111 35.9587C254.11 34.7144 254.035 31.8673 254.035 31.8673C254.035 31.8673 253.035 34.3039 251.562 34.4438C250.09 34.5815 246.591 33.9949 244.232 36.2741C241.872 38.5554 241.877 35.0033 243.828 32.7605C244.649 31.8154 247.073 32.216 247.073 32.216C247.073 32.216 244.685 29.3142 242.106 32.3581C235.001 40.741 232.429 38.5445 232.429 38.5445L220.916 47.2564Z" fill="#330E01"/>
<path d="M188.613 102.933C187.352 103.388 182.884 98.3579 183.441 97.4226C183.982 97.5148 185.342 96.1203 187.211 95.9395C188.861 97.9665 188.61 96.8378 189.671 98.9961C189.265 99.1404 189.649 101.63 188.613 102.933Z" fill="#191919"/>
<path d="M207.69 76.5358C211.125 75.1562 213.577 72.4467 215.357 73.9165C217.125 75.3737 220.223 77.2271 222.654 79.3341C225.087 81.4402 232.086 84.6253 232.086 84.6253L226.855 95.7792C226.855 95.7792 221.837 95.2901 219.757 91.1722C217.679 87.0543 214.774 80.9595 214.131 80.8091C213.489 80.6592 203.094 84.0294 203.094 84.0294C203.094 84.0294 202.823 84.0675 202.662 84.1031C201.217 84.423 199.397 85.9909 197.395 86.1919C198.383 83.6439 194.861 83.7504 195.178 82.9318C195.473 82.1727 203.909 78.0549 207.69 76.5358Z" fill="#371100"/>
<path d="M274.048 209.649C273.277 211.331 269.164 211.896 268.22 211.977C267.527 212.037 268.434 207.32 268.968 204.798C270.467 204.543 272.154 204.255 273.313 204.057C273.326 204.102 274.608 208.429 274.048 209.649Z" fill="#303030"/>
<path d="M214.387 34.5661C217.277 34.538 231.476 43.309 236.537 46.2457C241.598 49.1848 260.075 62.7281 261.236 66.4752C262.395 70.2218 265.697 85.2033 268.179 93.0931C269.465 97.1791 280.175 112.395 282.563 115.318C284.95 118.242 287.091 127.766 287.203 132.016C287.315 136.265 278.656 160.617 278.353 164.241C278.049 167.862 280.729 175.645 279.896 179.87C279.063 184.097 273.839 206.295 273.839 206.295L272.574 206.842L272.574 206.849C271.493 206.276 269.92 205.44 268.522 204.698C269.045 204.031 269.417 203.576 269.417 203.576C269.417 203.576 273.948 178.836 273.242 177.7C272.537 176.563 268.53 166.76 267.587 161.258C266.641 155.757 262.273 135.479 262.273 135.479C262.273 135.479 248.205 126.958 242.508 119.048C236.812 111.136 224.999 94.9288 223.257 86.7448C221.516 78.5609 227.144 68.8465 225.679 67.0148C224.214 65.1808 221.449 62.0605 220.6 61.066C218.797 58.9574 215.294 57.2077 210.434 52.6894C206.169 48.7256 211.496 34.5966 214.387 34.5661Z" fill="#62341F"/>
<path d="M220.921 85.2649C218.045 83.8436 203.981 86.1279 202.758 86.6811C200.409 86.8989 199.336 88.0358 197.788 89.209L187.342 95.6871L189.089 99.9356C195.429 98.0143 198.727 98.2922 202.764 93.0576C205.478 94.6326 208.195 94.9974 210.208 95.4944C212.221 95.9915 227.267 96.9006 232.226 93.4209C234.774 90.8708 236.672 85.8259 236.672 85.8259L223.878 82.2399C223.878 82.2399 223.214 83.8861 220.921 85.2649Z" fill="#62341F"/>
<path d="M226.117 39.9355C225.475 43.5709 220.19 53.0988 216.79 54.3895C213.389 55.6819 208.568 52.6019 206.123 51.659C203.677 50.7155 201.81 49.5232 200.496 49.9207C199.182 50.3182 198.721 51.0138 198.063 50.9633C197.404 50.9146 194.129 47.3377 193.851 46.2953C193.575 45.2517 194.262 43.4621 194.216 42.3204C194.171 41.1772 194.702 39.2899 195.397 38.9933C196.092 38.695 198.175 37.3045 199.649 37.5023C201.122 37.7 206.69 36.3103 208.625 35.8124C210.558 35.3157 215.109 32.0372 218.174 32.8814C221.238 33.7258 226.94 35.2662 226.117 39.9355Z" fill="#62341F"/>
<path d="M222.944 37.0877C223.384 38.2287 225.753 37.2115 226.537 35.5484C227.322 33.8829 228.212 30.4307 227.874 28.9155C227.535 27.402 226.696 29.5862 225.557 30.1585C224.417 30.7308 221.489 33.3132 222.944 37.0877Z" fill="#371100"/>
<path d="M268.053 88.5425C268.053 88.5425 259.684 92.5192 252.556 98.2446C243.203 105.758 237.544 112.49 237.544 112.49L234.706 108.329C234.706 108.329 240.204 99.8668 250.422 92.2256C258.274 86.3526 265.849 82.9793 265.849 82.9793L268.053 88.5425Z" fill="black"/>
<path d="M268.053 88.5425C268.053 88.5425 259.684 92.5192 252.556 98.2446C243.203 105.758 237.544 112.49 237.544 112.49L234.706 108.329C234.706 108.329 240.204 99.8668 250.422 92.2256C258.274 86.3526 265.849 82.9793 265.849 82.9793L268.053 88.5425Z" fill="black"/>
<path d="M257.866 112.166C257.866 112.166 255.55 115.981 252.559 119.292C249.568 122.605 247.617 123.9 246.727 122.96C245.836 122.022 244.724 120.271 243.611 120.35C242.498 120.427 241.242 120.664 240.814 119.791C240.385 118.919 245.643 113.675 249.218 110.486C252.794 107.297 254.488 107.216 254.488 107.216L257.866 112.166Z" fill="#191919"/>
<path d="M264.451 75.0674C264.451 75.0674 261.086 77.7077 262.212 80.1036C263.023 81.8263 264.368 81.0044 264.6 81.4971C264.832 81.9901 264.927 83.4499 265.316 83.8829C265.705 84.3181 267.369 85.5638 267.606 86.393C267.843 87.2203 269.835 94.3562 268.962 94.8492C268.088 95.3443 262.702 94.4673 260.855 89.9935C259.009 85.5177 260.56 82.7011 260.145 81.7418C259.732 80.7833 257.053 79.3996 257.877 77.3111C258.253 76.3588 262.636 71.5737 264.451 75.0674Z" fill="#191919"/>
<path d="M269.876 84.8956C269.876 84.8956 270.085 93.9189 272.004 96.7639C275.609 102.107 277.52 101.735 277.482 104.171C277.463 105.373 273.832 106.372 271.997 103.598C270.161 100.825 264.327 86.9156 264.327 86.9156C264.327 86.9156 265.481 87.8812 267.359 86.7553C268.975 85.7862 269.876 84.8956 269.876 84.8956Z" fill="#303030"/>
<path d="M261.311 114.579C259.389 113.469 255.995 109.698 250.769 100.201C248.934 96.8685 244.815 89.5646 242.202 80.5486C240.949 76.2252 262.421 67.3903 262.62 67.9561C262.82 68.5202 261.827 73.7933 266.187 84.099C271.87 97.5271 276.574 103.894 276.574 103.894C276.574 103.894 263.233 115.688 261.311 114.579Z" fill="#ABABAB"/>
<path d="M200.145 49.9404C200.275 50.018 213.292 57.5953 220.48 60.6767C232.732 65.9271 238.654 67.8715 238.713 67.8901L238.92 66.8071C238.863 66.7874 232.965 64.8539 220.749 59.6165C213.604 56.555 200.629 49.0006 200.499 48.9251L200.145 49.9404Z" fill="#191919"/>
<path d="M201.981 47.2864C201.981 47.2864 202.98 45.5362 202.799 42.2027C202.644 39.3296 201.832 37.9219 201.832 37.9219L199.624 38.165C199.624 38.165 200.457 39.9428 200.516 42.0146C200.574 44.0864 199.694 46.5774 199.694 46.5774L201.981 47.2864Z" fill="#191919"/>
<path d="M201.8 46.5776L216.379 45.9666L216.478 47.2242L202.046 47.6551L201.8 46.5776Z" fill="#191919"/>
<path d="M216.711 58.1669C216.827 58.1169 219.075 56.7451 221.704 53.6821C223.987 51.0225 224.679 48.4529 225.271 45.9868C225.863 43.519 225.899 37.949 225.899 37.949L227.372 38.3577C227.372 38.3577 227.519 46.3504 225.018 51.3514C222.517 56.3525 218.537 58.8914 218.537 58.8914L216.711 58.1669Z" fill="#191919"/>
<path d="M216.078 47.2661C216.229 47.3991 218.767 46.5295 220.934 44.6026C223.505 42.3143 226.069 37.9273 226.069 37.9273L225.11 37.2856C225.11 37.2856 222.515 42.0483 220.108 44.0759C218.011 45.8413 216.323 46.0606 216.323 46.0606L216.078 47.2661Z" fill="#191919"/>
<path d="M200.489 45.9929C200.728 45.952 200.971 46.004 201.19 46.1424C201.482 46.326 201.701 46.6445 201.805 47.0405C201.909 47.434 201.887 47.8559 201.742 48.2298C201.453 48.9729 200.69 49.3076 200.103 48.9383C199.811 48.7525 199.592 48.434 199.489 48.0402C199.384 47.6467 199.407 47.2226 199.551 46.8488C199.733 46.3819 200.084 46.0619 200.489 45.9929ZM200.903 50.0318C201.555 49.9205 202.119 49.4063 202.411 48.6538C202.646 48.0511 202.682 47.369 202.515 46.7327C202.347 46.0964 201.995 45.5827 201.522 45.2852C200.579 44.6922 199.348 45.2268 198.881 46.4248C198.647 47.0274 198.61 47.7096 198.778 48.3459C198.946 48.9822 199.298 49.4959 199.771 49.7933C200.122 50.0158 200.515 50.0979 200.903 50.0318Z" fill="#E8A900"/>
<path d="M270.076 63.8956C270.076 63.8956 270.132 61.739 270.02 60.4318C269.738 57.1589 269.017 53.4359 269.017 53.4359L275.385 49.7226C275.385 49.7226 274.12 53.8085 276.076 58.5164C274.634 60.9116 272.542 63.4886 270.076 63.8956Z" fill="#FFA47C"/>
<path d="M239.489 66.1687C239.489 66.1687 236.906 63.8018 236.315 63.501C235.725 63.2004 233.251 62.9926 233.251 62.9926C233.251 62.9926 233.776 64.2614 233.56 64.9346C233.346 65.6068 232.666 67.2756 232.666 67.2756C232.666 67.2756 234.547 68.6376 235.531 68.8864C236.515 69.1358 239.003 70.4176 239.003 70.4176L239.489 66.1687Z" fill="#FFBD95"/>
<path d="M270.871 41.4733C272.602 40.8251 276.619 41.7572 277.221 45.7995C277.823 49.8418 275.953 52.2859 274.328 53.5057C273.062 54.4577 272.056 54.7922 270.346 54.7145C269.997 54.6985 267.185 53.6403 266.752 53.0908C266.456 52.7142 267.439 49.2483 267.33 49.1978C267.222 49.1452 267.009 48.7677 267.095 48.4913C267.222 48.0886 268.454 45.9285 268.475 45.6319C268.495 45.335 268.888 42.2165 270.871 41.4733Z" fill="#FFBD95"/>
<path d="M269.948 41.1991C269.948 41.1991 272.465 41.0203 273.836 45.423C274.131 46.3713 272.135 48.3597 272.18 48.6746C272.227 49.0143 274.86 47.9843 274.677 48.2378C272.81 50.8192 272.952 52.9744 273.162 53.1311C273.798 53.5999 277.453 50.6002 277.765 46.5138C278.077 42.4272 275.304 40.2569 274.538 40.0054C273.773 39.7539 271.6 38.6316 269.948 41.1991Z" fill="#8D3B26"/>
<path d="M252.959 91.5668C254.669 92.51 254.79 104.687 252.576 110.569C250.362 116.453 246.703 121.663 246.348 122.688C245.992 123.711 245.703 126.353 244.797 126.473C243.889 126.594 241.328 122.938 241.761 122.179C242.194 121.421 242.298 121.905 243.146 119.885C243.994 117.866 246.995 106.998 247.603 104.462C248.212 101.927 250.178 90.0312 252.959 91.5668Z" fill="#DEDEDE"/>
<path d="M243.86 120.051C244.759 119.956 245.008 117.437 245.346 116.465C245.686 115.493 249.245 110.594 251.36 105.019C252.275 102.607 252.474 99.9087 252.269 97.5454C255.963 98.3788 261.825 99.3961 264.646 99.4791C266.907 99.5451 270.007 100.119 271.868 98.4974L272.247 98.2484C274.967 95.8804 274.91 92.5048 274.29 88.5679C274.526 88.4394 274.774 88.3515 275.002 88.2032C275.867 92.9741 276.448 97.0758 273.29 99.8246L272.909 100.076C271.048 101.698 267.949 101.123 265.689 101.055C262.867 100.972 257.005 99.9551 253.311 99.1218C253.516 101.485 253.317 104.184 252.402 106.595C250.286 112.172 246.728 117.069 246.389 118.043C246.049 119.015 245.8 121.534 244.902 121.628C244.263 121.695 242.782 119.925 242.123 118.633C242.765 119.436 243.47 120.091 243.86 120.051Z" fill="#C2C2C2"/>
<path d="M260.283 89.1967L260.286 89.196C262.44 88.6718 264.593 88.3144 265.758 88.2582C266.403 88.2282 267.231 88.2123 268.134 88.2217L268.148 87.8044C269.083 88.055 270.033 88.2327 270.984 88.3368L271.438 88.3747C272.562 88.4661 273.679 88.3983 274.777 88.2369C274.751 88.9551 274.431 89.6294 273.388 89.8151C270.918 90.257 259.826 89.3406 259.747 89.334L260.283 89.1967Z" fill="#C2C2C2"/>
<path d="M276.56 94.3096C276.714 92.1374 275.037 90.1695 273.316 89.0441C271.596 87.9211 265.872 87.8024 263.208 87.9318C260.545 88.0589 252.719 89.7575 251.524 91.4509C250.327 93.146 250.162 96.7741 253.426 97.5954C256.69 98.419 264.27 99.6899 267.611 99.7101C270.952 99.7325 276.098 100.861 276.56 94.3096Z" fill="#DEDEDE"/>
<path d="M253.593 106.794C253.593 106.794 252.949 110.724 251.519 113.807C250.089 116.89 246.739 121.606 246.625 122.383C246.512 123.159 245.651 126.223 245.288 126.767C244.924 127.31 243.851 127.967 243.707 128.162C243.561 128.359 243.023 129.18 243.023 129.18L239.834 126.863L240.035 125.835C240.035 125.835 236.917 124.463 235.144 122.695C233.372 120.927 232.177 119.367 232.255 118.777C232.331 118.185 233.01 117.603 234.661 118.819C236.314 120.032 240.667 120.363 241.741 120.372C242.815 120.382 247.136 105.175 247.136 105.175C247.136 105.175 248.773 102.894 250.304 103.277C252.076 103.719 253.593 106.794 253.593 106.794Z" fill="black"/>
<path d="M239.014 65.8364C239.014 65.8364 242.534 65.3893 246.061 65.8947C249.587 66.3993 256.072 68.6719 256.712 70.7244C257.353 72.7789 256.23 74.58 254.105 74.5656C251.98 74.5516 238.924 70.3988 238.648 70.1925C238.371 69.9859 239.014 65.8364 239.014 65.8364Z" fill="#0001FC"/>
<path d="M279.303 63.0648C279.771 64.7612 278.828 72.2825 279.164 69.1786C279.181 69.0292 278.65 73.8928 278.591 74.8306C278.539 75.6659 277.963 94.8659 276.678 95.0851C275.393 95.3042 277.374 94.9506 275.95 94.3688C272.488 92.1179 266.319 91.8022 264.73 87.0386C263.962 85.4921 265.213 79.0833 265.478 77.5202C266.019 74.3267 265.538 68.7473 266.031 64.709C266.524 60.6714 268.518 58.0943 270.688 57.4561C272.857 56.8174 277.98 58.257 279.303 63.0648Z" fill="#0001C8"/>
<path d="M278.406 84.7071L265.429 79.357" stroke="black"/>
<path d="M271.791 66.9622C271.07 64.4984 268.535 64.4505 265.636 65.4341C262.736 66.4196 255.742 68.6139 254.361 69.8218C252.979 71.0297 252.378 74.5691 254.713 75.1385C257.046 75.7091 264.823 75.1606 267.225 74.2746C269.627 73.3868 273.356 72.3204 271.791 66.9622Z" fill="#0001FC"/>
<path d="M276.091 87.6226L276.307 83.3843L274.937 82.7777L274.294 82.8873L274.334 89.6028L275.062 90.319L275.278 86.0807L276.091 87.6226Z" fill="white" stroke="white"/>
<path d="M257.226 25.2961L257.652 29.4248L254.61 31.6241L252 25.3468L255.042 23.1475L257.226 25.2961Z" fill="#FFBD95"/>
<path d="M272.985 43.0994L266.339 39.833L270.232 40.4481L272.985 43.0994Z" fill="#030303"/>
<path d="M272.985 43.0994L266.339 39.833L270.232 40.4481L272.985 43.0994ZM272.985 43.0994L275.046 44.4538L277.106 45.8083L277.392 44.9169L270.362 38.3166" stroke="black"/>
<path d="M270.885 35.9817C270.679 36.6237 270.82 38.7027 270.82 38.7027L277.258 46.3776L277.776 46.6529L277.914 46.2249L278.466 45.7664L279.053 45.8276L273.095 35.4012L272.297 33.475C272.297 33.475 271.091 35.3397 270.885 35.9817Z" fill="#0001C8" stroke="#0001FC"/>
<path d="M269.965 40.0622L270.636 37.9731L270.759 38.2827L277.841 45.9538L277.126 46.797L269.965 40.0622Z" fill="#2C2E2A" stroke="black"/>
<path d="M270.851 38.5218L271.037 37.9415L271.371 38.1187L278.008 46.0425L270.851 38.5218Z" fill="#0001C8" stroke="#0001C8"/>
<rect width="0.780781" height="1.2851" transform="matrix(-0.855101 -0.45383 -0.313383 0.975349 271.975 36.2383)" fill="#B18138"/>
<path d="M270.468 39.1063L277.54 46.2831L270.334 39.5241L270.468 39.1063Z" stroke="#B18138"/>
<g filter="url(#filter1_i_1024_547)">
<path d="M255.95 24.2729L273.124 8.30029" stroke="black" stroke-width="0.5"/>
</g>
<path d="M252.796 26.8569L250.431 29.0106" stroke="black"/>
<path d="M273.128 8.30811C266.855 16.2845 263.147 19.3235 256.408 23.7466" stroke="#404040" stroke-width="0.5"/>
<path d="M270.167 11.3252L260.654 20.5098" stroke="#404040" stroke-width="0.5"/>
<path d="M225.562 76.6735C231.183 83.3801 224.602 93.9992 233.148 100.517" stroke="#0001FC" stroke-width="3"/>
<path d="M231.223 79.2711C229.817 89.5766 243.466 93.364 238.81 103.115" stroke="#0001FC" stroke-width="3"/>
<path d="M237.459 76.7177C248.557 85.2969 241.126 92.903 245.269 100.645" stroke="#0001FC" stroke-width="3"/>
<path d="M242.79 72.9936C243.316 82.0331 254.37 86.396 250.6 96.9211" stroke="#0001FC" stroke-width="3"/>
<path d="M224.753 75.8774C230.375 82.584 220.99 92.816 229.537 99.3341" stroke="white" stroke-width="3"/>
<path d="M231 79.1874C229.593 89.4929 240.439 92.8932 235.783 102.644" stroke="white" stroke-width="3"/>
<path d="M237.164 76.3886C235.88 86.0768 243.159 87.6985 241.947 99.8453" stroke="white" stroke-width="3"/>
<path d="M242.791 72.9936C243.316 82.0331 251.344 85.9252 247.574 96.4503" stroke="white" stroke-width="3"/>
<path d="M225.667 68.5886L251.432 73.4833L223.212 81.2741C223.3 76.3441 223.758 73.9036 225.667 68.5886Z" fill="#0001FC" stroke="#0001FC" stroke-width="0.5"/>
<path d="M268.155 150.09C270.484 161.506 259.54 174.551 264.717 186.647" stroke="#0001FC" stroke-width="3"/>
<path d="M272.35 155.643C266.436 169.921 277.65 179.771 268.911 192.2" stroke="#0001FC" stroke-width="3"/>
<path d="M277.635 154.264C272.111 167.699 280.557 174.064 274.008 191.037" stroke="#0001FC" stroke-width="3"/>
<path d="M281.269 153.609C287.94 169.481 277.533 177.942 278.004 190.358" stroke="#0001FC" stroke-width="3"/>
<path d="M286.075 150.426C282.55 163.521 291.056 173.351 282.81 187.175" stroke="#0001FC" stroke-width="3"/>
<path d="M267.746 148.69C270.075 160.105 256.653 171.686 261.83 183.782" stroke="white" stroke-width="3"/>
<path d="M272.176 155.451C266.262 169.729 274.999 178.114 266.261 190.543" stroke="white" stroke-width="3"/>
<path d="M277.272 154.289C271.749 167.724 277.906 172.407 271.357 189.381" stroke="white" stroke-width="3"/>
<path d="M281.269 153.609C287.94 169.481 274.882 176.286 275.353 188.702" stroke="white" stroke-width="3"/>
<path d="M286.075 150.426C282.549 163.521 288.405 171.695 280.159 185.519" stroke="white" stroke-width="3"/>
<path d="M270.888 156.15C264.055 146.07 258.771 137.532 274.26 105.926C285.967 112.041 287.29 130.852 289.214 142.325C290.829 157.998 283.008 155.531 270.888 156.15Z" fill="#0001FC" stroke="#0001FC" stroke-width="0.5"/>
<path d="M283.041 139.001L279.393 140.065L280.259 135.925L285.036 133.56L283.041 139.001Z" fill="white" stroke="white" stroke-width="0.5"/>
<path d="M278.338 144.422L279.205 140.282L275.556 141.346L273.561 146.787L278.338 144.422Z" fill="white" stroke="white" stroke-width="0.5"/>
<path d="M278.499 136.291L279.081 140.333L275.489 139.761L273.864 134.565L278.499 136.291Z" fill="white" stroke="white" stroke-width="0.5"/>
<path d="M282.796 140.854L279.205 140.281L279.786 144.323L284.421 146.049L282.796 140.854Z" fill="white" stroke="white" stroke-width="0.5"/>
<defs>
<filter id="filter0_i_1024_547" x="59.8029" y="7.64355" width="17.2866" height="16.6548" filterUnits="userSpaceOnUse" color-interpolation-filters="sRGB">
<feFlood flood-opacity="0" result="BackgroundImageFix"/>
<feBlend mode="normal" in="SourceGraphic" in2="BackgroundImageFix" result="shape"/>
<feColorMatrix in="SourceAlpha" type="matrix" values="0 0 0 0 0 0 0 0 0 0 0 0 0 0 0 0 0 0 127 0" result="hardAlpha"/>
<feOffset dx="131" dy="-44"/>
<feGaussianBlur stdDeviation="2"/>
<feComposite in2="hardAlpha" operator="arithmetic" k2="-1" k3="1"/>
<feColorMatrix type="matrix" values="0 0 0 0 1 0 0 0 0 1 0 0 0 0 1 0 0 0 0.25 0"/>
<feBlend mode="normal" in2="shape" result="effect1_innerShadow_1024_547"/>
</filter>
<filter id="filter1_i_1024_547" x="255.815" y="8.10742" width="17.4436" height="16.3579" filterUnits="userSpaceOnUse" color-interpolation-filters="sRGB">
<feFlood flood-opacity="0" result="BackgroundImageFix"/>
<feBlend mode="normal" in="SourceGraphic" in2="BackgroundImageFix" result="shape"/>
<feColorMatrix in="SourceAlpha" type="matrix" values="0 0 0 0 0 0 0 0 0 0 0 0 0 0 0 0 0 0 127 0" result="hardAlpha"/>
<feOffset dx="131" dy="-44"/>
<feGaussianBlur stdDeviation="2"/>
<feComposite in2="hardAlpha" operator="arithmetic" k2="-1" k3="1"/>
<feColorMatrix type="matrix" values="0 0 0 0 1 0 0 0 0 1 0 0 0 0 1 0 0 0 0.25 0"/>
<feBlend mode="normal" in2="shape" result="effect1_innerShadow_1024_547"/>
</filter>
</defs>
</svg>
