<svg width="168" height="158" viewBox="0 0 168 158" fill="none" xmlns="http://www.w3.org/2000/svg">
<path d="M45.2124 47.1621C44.7351 46.5029 44.2878 45.7745 43.8676 44.9568C40.7752 38.92 36.1366 28.0885 30.261 24.8925C25.7936 22.4633 19.8102 21.5764 15.43 22.5397C13.1194 22.2046 10.2316 25.3587 8.51093 27.2307C8.29367 27.4656 8.10496 27.757 7.921 28.0557L7.90512 28.0448C7.90512 28.0448 7.21529 24.4883 8.66952 22.6672C10.1237 20.8462 14.6165 20.695 15.2778 21.1503C15.9375 21.6055 16.5988 19.4039 19.2424 19.291C21.8845 19.1763 22.6774 21.7567 24.2632 21.4526C25.8491 21.1503 29.2857 20.2397 31.5328 21.9078C33.7784 23.5777 32.1925 26.1581 33.9116 26.4604C35.6291 26.7645 38.4043 26.7646 39.0656 29.0409C39.7254 31.3172 38.6692 32.8341 39.5937 33.7446C40.5183 34.6551 43.5409 35.4455 43.8803 37.1755C44.2197 38.9055 43.9215 41.3493 44.5987 42.7825C45.2758 44.2156 46.3875 45.3465 46.3384 46.1114C46.3257 46.319 45.8642 46.7105 45.2124 47.1621Z" fill="#330E01"/>
<path d="M96.0545 51.9714C91.5221 51.7619 83.8973 55.4514 82.1195 62.7647C80.3418 70.0762 86.035 78.7608 89.2035 82.7962C92.3737 86.8316 96.3669 92.2401 98.6568 95.5781C100.945 98.9161 104.708 104.354 105.333 107.357C105.96 110.361 106.191 120.51 105.541 122.329C104.892 124.149 104.285 125.159 103.283 125.682C102.282 126.204 99.981 127.822 99.981 127.822L105.232 130.4C105.232 130.4 106.853 129 107.52 128.652C108.188 128.302 109.778 127.843 110.118 126.461C110.459 125.083 110.367 120.273 110.427 115.846C110.487 111.421 112.175 101.843 111.731 100.826C111.288 99.8084 107.385 94.1213 105.861 91.4935C104.337 88.8658 103.359 84.5644 104.337 81.2337C105.314 77.9012 107.395 69.4753 107.097 65.8987C106.8 62.3222 105.658 52.4175 96.0545 51.9714Z" fill="#6F2200"/>
<path d="M99.9813 127.822C99.9813 127.822 99.0044 128.61 97.972 130.074C96.9412 131.538 96.1276 132.842 96.1276 132.842C96.1276 132.842 103.849 133.112 104.48 132.367C105.112 131.62 105.232 130.4 105.232 130.4L99.9813 127.822Z" fill="#191919"/>
<path d="M102.237 50.7588C102.237 50.7588 107.352 46.3227 112.103 51.6001C116.737 56.7446 114.23 70.7102 121.832 81.3724C124.669 85.355 134.102 84.9325 134.102 84.9325C134.102 84.9325 132.305 87.7806 129.513 88.7877C126.72 89.7947 125.094 89.425 125.094 89.425C124.758 89.5179 126.579 91.0786 128.157 91.4883C129.096 91.7305 131.113 91.3317 131.113 91.3317C131.113 91.3317 127.638 95.4054 121.778 93.0289C121.415 92.8814 122.473 96.7766 122.473 96.7766C122.473 96.7766 119.005 96.7384 115.413 94.4093C112.186 92.3187 109.282 88.8714 109.282 88.8714L109.819 95.7368C109.819 95.7368 106.272 90.5577 105.496 88.8095C104.957 87.5931 104.561 83.8836 104.561 83.8836L103.034 88.0829C103.034 88.0829 100.469 85.3677 100.399 75.1225C100.328 64.8773 102.237 50.7588 102.237 50.7588Z" fill="#330E01"/>
<path d="M39.7456 63.0617C37.7094 61.7177 34.3886 60.6324 28.9935 64.076C23.5985 67.5178 22.8119 72.777 23.0196 75.4302C23.2258 78.0835 26.361 80.2669 26.2881 81.0737C26.2135 81.8786 14.1372 84.1858 12.2453 85.7847C10.355 87.3836 8.9626 89.6144 9.04665 91.2096C9.1307 92.8048 10.0806 95.4071 9.23535 99.2022C8.39009 102.995 7.93019 105.295 8.68031 106.31C9.43041 107.326 10.6135 109.912 10.8926 110.826C11.1733 111.74 11.3668 113.195 11.3668 113.195C11.3668 113.195 15.7802 108.752 15.0713 108.535C14.3624 108.317 13.1984 108.264 13.5917 106.903C13.9834 105.541 13.1699 103.33 13.1207 102.4C13.0731 101.469 12.6735 93.892 14.326 92.1766C15.9784 90.4611 26.3325 90.7234 30.6095 90.3355C34.8882 89.9476 36.8578 89.8566 37.7316 86.5714C38.6038 83.2862 42.4638 79.2818 43.3931 76.0166C44.3224 72.7497 44.3193 66.0791 39.7456 63.0617Z" fill="#6F2200"/>
<path d="M106.49 57.7406C104.905 51.946 98.7579 46.1988 88.2436 46.909C77.7294 47.621 68.4522 54.1896 59.9472 53.3009C51.4438 52.414 46.959 50.9936 43.8666 44.9568C40.7742 38.9201 36.1356 28.0885 30.26 24.8926C24.3844 21.6966 15.8794 21.1631 11.8593 24.0057C7.83914 26.8465 20.6735 40.6956 21.4458 44.6017C22.2197 48.5079 24.3844 63.0671 24.0751 64.666C23.7659 66.2631 21.292 70.8794 22.8382 76.0294C24.3844 81.1775 35.054 92.5426 47.8868 92.3641C60.7211 92.1857 74.9462 83.6632 80.2033 83.1314C85.4605 82.5979 98.7579 80.4672 103.087 75.6742C107.418 70.8794 108.191 63.954 106.49 57.7406Z" fill="#97380E"/>
<path d="M91.665 52.82C84.7998 52.9347 79.3381 61.7978 77.9362 67.168C76.5328 72.5401 79.6648 80.54 81.6265 82.9911C87.2658 90.0349 94.7447 94.2397 94.7431 94.9572C94.7416 96.1846 81.1603 103.066 80.5307 103.86C79.9011 104.654 78.2312 112.004 78.2439 112.552C78.255 113.1 83.3408 110.177 83.3408 110.177C83.3408 110.177 83.4185 108.56 84.3875 107.854C85.3565 107.147 102.198 98.7832 102.501 97.2244C102.806 95.6638 97.3772 90.5849 97.4312 87.8697C97.4851 85.1545 105.755 74.9967 106.632 69.9014C107.511 64.8062 104.92 52.5979 91.665 52.82Z" fill="#97380E"/>
<path d="M83.3407 110.178C83.3407 110.178 84.8726 112.072 84.7711 112.592C84.6696 113.111 81.6438 118.884 80.6368 119.172C79.6314 119.458 79.0684 116.857 78.6799 115.803C78.2913 114.748 78.2438 112.552 78.2438 112.552L83.3407 110.178Z" fill="#303030"/>
<path d="M40.7079 67.4996C37.4934 66.5818 32.9515 69.1368 30.9929 74.2284C29.0344 79.32 29.8432 84.8469 31.8588 87.369C33.876 89.8912 37.422 91.9563 39.2806 95.7131C40.2274 97.6306 42.7711 102.451 43.6639 105.328C44.5552 108.205 46.5883 118.072 46.5883 118.072C47.6381 122.027 48.7514 127.219 47.6555 129.371C46.5597 131.524 43.7099 133.738 43.7099 133.738L48.2169 134.809C48.2169 134.809 49.0685 133.396 49.909 133.511C50.7495 133.625 52.4242 133.024 52.7445 131.994C53.0633 130.961 52.0246 125.478 51.728 123.455C51.4315 121.434 50.0708 116.151 50.9018 114.605C51.7344 113.059 50.6925 110.764 50.4942 109.415C50.2976 108.067 48.117 95.5947 48.385 91.8015C48.6515 88.0064 55.1899 71.6334 40.7079 67.4996Z" fill="#97380E"/>
<path d="M43.8241 132.745C43.8241 132.745 43.0866 134.134 42.4238 135.234C41.7625 136.332 40.5651 136.979 40.7776 137.631C40.9901 138.283 47.5873 137.563 48.1202 137.183C48.6514 136.802 48.3311 133.816 48.3311 133.816L43.8241 132.745Z" fill="#303030"/>
<path d="M15.071 108.535C15.071 108.535 17.407 108.771 17.5719 109.695C17.7368 110.616 15.8592 116.884 15.1994 117.596C14.5397 118.31 13.6247 116.373 13.0046 115.615C12.383 114.857 11.3664 113.195 11.3664 113.195L15.071 108.535Z" fill="#191919"/>
<path d="M73.962 56.9154C73.5576 60.5411 72.4126 69.7939 70.6539 71.0377C68.8968 72.2796 63.2844 73.4269 58.7061 73.8093C55.6137 74.0679 50.3454 73.8311 45.6275 72.8168C42.1941 72.0793 39.7773 70.4422 38.7227 69.2312C36.8371 67.066 44.7188 46.022 45.1819 46.1112C45.6465 46.1986 53.2063 52.687 57.7371 52.8163C62.2679 52.9474 73.8082 50.5436 73.8082 50.5436C73.8082 50.5436 74.2316 54.4953 73.962 56.9154Z" fill="#C2C2C2"/>
<path d="M56.2417 73.9024L56.0482 73.906H55.999C53.2634 73.8987 49.8427 73.6219 46.587 73.001L45.6275 48.9122L48.2918 48.3258C51.0147 50.2488 54.9476 52.7363 57.7371 52.8165C62.2679 52.9476 73.8082 50.5438 73.8082 50.5438C73.8082 50.5438 74.2316 54.4955 73.962 56.9156C73.9081 57.4019 73.8399 57.9919 73.759 58.6438C73.7558 58.6456 63.5128 60.0005 59.7163 63.7919C55.9308 67.576 56.2401 73.8678 56.2417 73.9024Z" fill="#ABABAB"/>
<path d="M65.476 17.9688C65.476 17.9688 64.7798 16.6813 64.588 15.5705C64.3945 14.4614 64.7037 11.85 64.7037 11.85L60.1031 14.5944C60.1031 14.5944 60.1031 16.2806 60.0254 16.9471C59.9477 17.6118 59.7162 18.9448 59.7162 18.9448L65.476 17.9688Z" fill="#FFBD95"/>
<path d="M48.9734 76.4409C48.9734 76.4409 48.7577 78.4513 49.2445 79.8044C49.733 81.1574 50.296 84.0292 50.3356 85.0999C50.3753 86.1707 48.7418 87.6312 48.7418 87.6312L45.8714 87.6931C45.8714 87.6931 46.593 82.1317 46.9308 80.4454C47.267 78.7573 46.5375 76.7578 46.5375 76.7578L48.9734 76.4409Z" fill="black"/>
<path d="M52.9429 53.208C52.9429 53.208 54.2797 58.3288 54.7317 63.9248C55.1837 69.5191 54.7952 72.6222 53.4107 73.0702C52.0278 73.52 49.8425 73.713 49.0987 75.066C48.3566 76.4191 47.635 78.0398 46.6375 77.9888C45.6384 77.9396 45.299 68.4702 45.3672 62.2695C45.4338 56.0689 46.5947 54.033 46.5947 54.033L52.9429 53.208Z" fill="#191919"/>
<path d="M47.478 76.7195L46.4805 76.8489L46.4678 76.7724C46.4662 76.7578 46.2426 75.2846 46.1094 71.8938C45.9667 68.2881 45.8605 65.2342 45.8795 61.5102C45.8985 57.757 46.5566 55.0928 46.563 55.0673L46.6994 55.1129C46.6914 55.1402 46.0397 57.7825 46.0206 61.5084C46.0016 65.2288 46.1078 68.2809 46.2506 71.8829C46.3663 74.833 46.5503 76.3244 46.5963 76.6631L47.3845 76.5611C47.5177 76.237 48.3423 74.303 49.3937 73.6857C49.9599 73.3524 50.8733 73.0429 51.6789 72.7715C52.4465 72.5111 53.1712 72.2653 53.3631 72.0741C54.0958 71.342 54.4019 67.7691 54.0577 63.9413C53.7073 60.0442 52.8382 55.5499 52.8287 55.5062L52.9667 55.4643C52.9746 55.5098 53.8468 60.0133 54.1989 63.9213C54.5525 67.8638 54.2322 71.4258 53.4519 72.2052C53.2379 72.4201 52.5321 72.6568 51.717 72.9336C50.9162 73.205 50.0106 73.5127 49.4556 73.8369C48.3756 74.4706 47.5034 76.654 47.4955 76.6758L47.478 76.7195Z" fill="black"/>
<path d="M48.7946 77.3697L45.7069 77.7722C45.358 77.8159 45.0472 77.4935 45.0107 77.051C44.9758 76.6103 45.2264 76.2188 45.5737 76.1733L48.6613 75.7727C49.0086 75.7271 49.321 76.0513 49.3559 76.492C49.3924 76.9326 49.1403 77.326 48.7946 77.3697Z" fill="#303030"/>
<path d="M66.0472 49.8407C66.0472 49.8407 71.3805 49.9973 71.5914 50.0428C71.8007 50.0902 71.8943 55.1545 71.6659 55.6917C71.4376 56.2271 70.8651 57.6092 69.1 57.5054C67.3366 57.4016 56.0833 56.6806 56.0833 56.6806L66.0472 49.8407Z" fill="#191919"/>
<path d="M51.4647 43.5491C50.7939 43.0575 48.8179 43.2796 48.4515 43.8278C47.8442 44.7401 47.5682 48.4332 47.7585 49.158C47.9488 49.8828 47.8204 52.9148 49.8265 53.1825C51.8342 53.4502 52.1387 51.5545 52.2481 50.2724C52.3591 48.9922 52.8127 44.5307 51.4647 43.5491Z" fill="#303030"/>
<path d="M47.7426 47.3442C47.7426 47.3442 47.576 52.2064 49.9215 52.2901C51.6089 52.352 51.8388 50.531 52.3225 50.5492C52.8046 50.5656 53.8814 51.2284 54.4158 51.0536C54.9519 50.8788 56.8168 49.8062 57.5368 49.9938C58.2568 50.1813 64.4305 51.8458 64.2529 53.0076C64.0769 54.1694 60.2439 59.2848 56.016 58.8586C51.7865 58.4325 50.7462 55.3568 49.8295 55.2857C48.9129 55.2129 46.3438 57.2598 45.378 55.3167C44.9388 54.4335 44.2188 47.3988 47.7426 47.3442Z" fill="#191919"/>
<path d="M52.2942 45.4594C52.2942 45.4594 58.7249 50.0029 61.8522 49.4547C64.9795 48.9066 68.1417 44.2302 69.8195 45.5413C70.6474 46.1878 69.6562 52.5815 66.6209 53.0313C63.5855 53.4829 50.3849 52.2555 50.3849 52.2555C50.3849 52.2555 51.7503 51.5654 52.0865 49.0341C52.3767 46.8561 52.2942 45.4594 52.2942 45.4594Z" fill="#303030"/>
<path d="M46.7233 48.4734L46.9373 48.0236L46.7201 47.6139L46.4759 48.0655L46.7233 48.4734Z" fill="black"/>
<path d="M46.4554 49.0886L46.6187 48.6115L46.3491 48.2455L46.1667 48.7153L46.4554 49.0886Z" fill="black"/>
<path d="M46.2466 49.7332L46.3656 49.2397L46.0611 48.9082L45.9247 49.3963L46.2466 49.7332Z" fill="black"/>
<path d="M46.1032 50.4001L46.1716 49.8939L45.8357 49.6007L45.7466 50.1033L46.1032 50.4001Z" fill="black"/>
<path d="M46.0208 51.0828L46.0431 50.5674L45.6817 50.3161L45.6403 50.8241L46.0208 51.0828Z" fill="black"/>
<path d="M45.9813 51.7783L45.9733 51.2593L45.5928 51.039L45.5864 51.5434L45.9813 51.7783Z" fill="black"/>
<path d="M45.9732 52.4775L45.9414 51.9567L45.5513 51.7619L45.5704 52.2645L45.9732 52.4775Z" fill="black"/>
<path d="M45.9959 53.175L45.9436 52.6579L45.5455 52.483L45.5851 52.982L45.9959 53.175Z" fill="black"/>
<path d="M46.0527 53.8672L45.9735 53.3573L45.5691 53.2043L45.6325 53.7033L46.0527 53.8672Z" fill="black"/>
<path d="M46.1586 54.541L46.1269 54.3225L46.0397 54.0493L45.6273 53.9255L45.7241 54.4244L46.1586 54.541Z" fill="black"/>
<path d="M46.338 55.038L46.3332 55.0308L46.2888 54.9379L46.1667 54.7139L45.7433 54.652L45.9288 55.1582L46.1968 55.1619L46.338 55.038Z" fill="black"/>
<path d="M46.8197 55.1055L46.4169 55.1128L46.2409 55.3077L46.0918 55.4224L46.6389 55.5571L46.8197 55.1055Z" fill="black"/>
<path d="M47.4086 54.9671L46.9741 55.1182L46.8996 55.3823L46.8599 55.5735L47.3262 55.4478L47.4086 54.9671Z" fill="black"/>
<path d="M47.9998 54.7376L47.57 54.9471L47.5303 55.4187L47.9585 55.2257L47.9998 54.7376Z" fill="black"/>
<path d="M48.5916 54.4717L48.1618 54.7048L48.1538 55.1765L48.5646 54.9616L48.5916 54.4717Z" fill="black"/>
<path d="M49.1972 54.2005L48.7579 54.4336L48.7563 54.9053L49.1575 54.6904L49.1972 54.2005Z" fill="black"/>
<path d="M50.0089 54.1421L49.9787 54.1149L49.7948 54.0456L49.5965 54.0566L49.3729 54.1731L49.346 54.6411L49.7155 54.4973L49.79 54.3479L49.9359 54.1931L50.0089 54.1421Z" fill="black"/>
<path d="M50.5212 54.6118L50.1326 54.2949L49.7647 54.528L50.112 54.8066L50.5212 54.6118Z" fill="black"/>
<path d="M51.0098 55.0709L50.6261 54.7577L50.2423 54.9689L50.6023 55.2676L51.0098 55.0709Z" fill="black"/>
<path d="M51.5044 55.5206L51.1159 55.2147L50.7353 55.4314L51.0984 55.7246L51.5044 55.5206Z" fill="black"/>
<path d="M52.0042 55.9595L51.6109 55.6627L51.2335 55.8867L51.603 56.1726L52.0042 55.9595Z" fill="black"/>
<path d="M52.5134 56.3838L52.1153 56.0979L51.7427 56.3328L52.1185 56.6096L52.5134 56.3838Z" fill="black"/>
<path d="M53.033 56.7862L52.627 56.5185L52.2607 56.7644L52.6445 57.0303L53.033 56.7862Z" fill="black"/>
<path d="M53.5682 57.1615L53.1527 56.9175L52.7959 57.1779L53.1924 57.4255L53.5682 57.1615Z" fill="black"/>
<path d="M54.1162 57.4927L53.9386 57.3798L53.6896 57.2851L53.3471 57.5656L53.7594 57.7896L54.1162 57.4927Z" fill="black"/>
<path d="M54.6826 57.7532L54.2465 57.6002L53.9278 57.9171L54.3671 58.0938L54.6826 57.7532Z" fill="black"/>
<path d="M55.2698 57.8735L55.0684 57.8407L54.821 57.8316L54.553 58.2013L55.0287 58.2905L55.2698 57.8735Z" fill="black"/>
<path d="M55.8896 57.906L55.4265 57.926L55.2283 58.343H55.6913L55.8896 57.906Z" fill="black"/>
<path d="M56.5114 57.8625L56.3068 57.8716L56.0515 57.9371L55.8945 58.376L56.0864 58.3796L56.3559 58.3214L56.5114 57.8625Z" fill="black"/>
<path d="M57.1276 57.7531L56.6741 57.8751L56.5583 58.3303L57.0103 58.2266L57.1276 57.7531Z" fill="black"/>
<path d="M57.7365 57.5856L57.5351 57.6348L57.2925 57.7531L57.2148 58.2139L57.4019 58.1811L57.6556 58.0682L57.7365 57.5856Z" fill="black"/>
<path d="M58.3335 57.3654L57.9006 57.5675L57.8578 58.0374L58.2859 57.8534L58.3335 57.3654Z" fill="black"/>
<path d="M58.9168 57.1014L58.495 57.3363L58.4807 57.8062L58.8977 57.5931L58.9168 57.1014Z" fill="black"/>
<path d="M59.4874 56.7992L59.0767 57.0596L59.0894 57.5312L59.4922 57.289L59.4874 56.7992Z" fill="black"/>
<path d="M60.0472 56.4657L59.646 56.7479L59.681 57.2178L60.0711 56.9556L60.0472 56.4657Z" fill="black"/>
<path d="M60.6054 56.1107L60.2043 56.4075L60.2552 56.8755L60.6341 56.6005L60.6054 56.1107Z" fill="black"/>
<path d="M61.3284 55.9505L60.8194 56.058L60.7797 56.3348L60.8162 56.5205L60.9367 56.4859L61.1603 56.404L61.3284 55.9505Z" fill="black"/>
<path d="M61.9875 55.9415L61.5007 55.9797L61.3516 56.4204L61.7877 56.3804L61.9875 55.9415Z" fill="black"/>
<path d="M62.6377 55.9613L62.154 55.9796L61.9812 56.4111L62.4252 56.3948L62.6377 55.9613Z" fill="black"/>
<path d="M63.2845 55.9979L62.8024 56.007L62.6185 56.4331L63.0657 56.4258L63.2845 55.9979Z" fill="black"/>
<path d="M63.9302 56.0414L63.4481 56.0451L63.2593 56.4675H63.7081L63.9302 56.0414Z" fill="black"/>
<path d="M64.5739 56.0868L64.0934 56.0887L63.9015 56.5111L64.3503 56.5129L64.5739 56.0868Z" fill="black"/>
<path d="M65.2162 56.1342L64.7357 56.136L64.5438 56.5567L64.9942 56.5603L65.2162 56.1342Z" fill="black"/>
<path d="M65.8582 56.1799L65.3792 56.1817L65.1874 56.6041L65.6377 56.606L65.8582 56.1799Z" fill="black"/>
<path d="M66.5007 56.2217L66.0217 56.2272L65.8314 56.6497H66.2818L66.5007 56.2217Z" fill="black"/>
<path d="M67.1411 56.2583L66.6637 56.2674L66.4766 56.6917L66.927 56.6862L67.1411 56.2583Z" fill="black"/>
<path d="M67.7821 56.2818L67.3064 56.3001L67.1224 56.728L67.5744 56.7153L67.7821 56.2818Z" fill="black"/>
<path d="M68.4211 56.2928L67.9469 56.3219L67.7709 56.7517L68.2228 56.7317L68.4211 56.2928Z" fill="black"/>
<path d="M69.0554 56.2762L68.586 56.3272L68.4211 56.7625L68.8746 56.726L69.0554 56.2762Z" fill="black"/>
<path d="M69.6776 56.2163L69.2208 56.3037L69.0765 56.748L69.5333 56.6807L69.6776 56.2163Z" fill="black"/>
<path d="M70.1942 56.0489L69.8358 56.2219L69.7391 56.6826L69.9357 56.6535L70.2085 56.5296L70.1942 56.0489Z" fill="black"/>
<path d="M70.4606 55.568L70.3749 55.7519L70.2956 55.9795L70.3924 56.2418L70.4431 56.4312L70.7492 55.9395L70.4606 55.568Z" fill="black"/>
<path d="M70.6129 54.9195L70.5365 55.4167L70.8613 55.7317L70.9647 55.2218L70.6129 54.9195Z" fill="black"/>
<path d="M70.7045 54.2348L70.6742 54.752L71.034 55.0088L71.077 54.803L71.0802 54.5025L70.7045 54.2348Z" fill="black"/>
<path d="M70.7589 53.5394L70.7541 54.0602L71.1314 54.2878L71.1473 53.7852L70.7589 53.5394Z" fill="black"/>
<path d="M70.7871 52.8381L70.8014 53.3607L71.1867 53.5684L71.1819 53.0676L70.7871 52.8381Z" fill="black"/>
<path d="M70.7964 52.1335L70.8251 52.658L71.2167 52.8511L71.1976 52.3521L70.7964 52.1335Z" fill="black"/>
<path d="M70.7919 51.4287L70.8301 51.9531L71.2265 52.1353L71.1962 51.6381L70.7919 51.4287Z" fill="black"/>
<path d="M70.7743 50.7238L70.8235 51.2464L71.2199 51.4194L71.1819 50.9241L70.7743 50.7238Z" fill="black"/>
<path d="M70.7426 50.0211L70.8012 50.5419L71.2025 50.7058L71.1533 50.2105L70.7426 50.0211Z" fill="black"/>
<path d="M62.3584 52.7835C57.8181 52.6178 51.4462 51.8821 51.0671 51.8384L51.0053 51.7528L51.083 51.6836C51.213 51.6982 64.252 53.206 66.4991 52.4448C68.8906 51.6363 69.3568 48.0415 69.4028 47.6336C69.498 46.7759 69.2902 45.3592 69.2886 45.3446L69.3473 45.2554L69.4282 45.3191C69.4361 45.3773 69.6407 46.7723 69.5424 47.6537C69.4964 48.0707 69.0175 51.7546 66.5404 52.5941C65.8648 52.8218 64.2757 52.8527 62.3584 52.7835Z" fill="black"/>
<path d="M17.0339 23.5212C18.8941 25.8576 21.8406 35.2123 20.8035 38.889C19.7663 42.5639 15.3212 45.3974 13.4404 47.1347C11.5595 48.8702 9.83888 49.9683 9.37739 51.3395C8.91432 52.7108 9.08877 53.461 8.70658 54.0274C8.32439 54.5937 4.40573 55.7993 3.6239 55.5425C2.84366 55.2857 2.12845 53.8052 1.41164 53.2917C0.694834 52.7799 -0.164696 51.3887 0.0271931 50.6202C0.217495 49.8517 0.490265 47.3095 1.39896 46.0858C2.30607 44.8602 4.4438 39.1913 5.17805 37.2155C5.91072 35.2396 6.35951 29.5689 8.50994 27.2307C10.6619 24.8906 14.6456 20.5201 17.0339 23.5212Z" fill="#97380E"/>
<path d="M13.896 25.9521C14.8222 26.1105 15.474 23.4919 14.8856 21.9822C14.2957 20.4744 12.6813 18.0032 11.5823 17.5735C10.4833 17.1437 11.3587 18.9538 11.0938 20.2522C10.8306 21.5506 10.829 25.4295 13.896 25.9521Z" fill="#6F2200"/>
<path d="M0.639681 50.0958C0.424004 50.9608 0.861705 51.8641 1.61499 52.1117C2.36985 52.3594 3.15643 51.8586 3.37211 50.9918C3.58778 50.1268 3.15167 49.2236 2.3968 48.9759C1.64352 48.7282 0.856943 49.229 0.639681 50.0958Z" fill="#191919"/>
<path d="M63.9483 17.0364C64.8094 17.0819 66.7314 19.2326 67.1374 21.8294C67.5434 24.4262 64.7602 33.6152 65.0504 36.0117C65.3407 38.4082 67.6592 42.0703 67.9494 44.2028C68.2396 46.3334 67.3119 49.9281 63.9483 50.9279C60.5862 51.9258 56.5851 48.9284 56.4107 46.8651C56.2362 44.8 56.1205 39.8068 55.9476 37.1444C55.7732 34.4802 55.0199 29.0207 55.3672 27.023C55.7145 25.0253 56.8753 21.6309 57.9188 20.165C58.9623 18.7008 60.2374 16.8361 63.9483 17.0364Z" fill="#C2C2C2"/>
<path d="M65.6315 45.2009C64.8037 43.6112 62.6739 43.3362 60.8755 43.6694C59.0787 44.0027 54.6716 47.5974 52.7004 49.3966C50.7292 51.194 45.5101 57.3855 45.3373 59.3159C45.1628 61.248 46.6123 63.8448 49.4541 62.3133C52.2944 60.78 58.6141 56.7864 61.1657 54.6558C63.7174 52.5252 68.1244 49.9939 65.6315 45.2009Z" fill="#DEDEDE"/>
<path d="M46.5538 58.4507C48.2649 58.0009 52.7006 62.0455 53.5696 67.505C54.4403 72.9663 53.9185 78.892 54.0929 79.8243C54.2658 80.7567 55.1935 82.7544 54.556 83.4191C53.9185 84.0856 50.3821 83.2188 50.3821 82.4211C50.3821 81.6217 50.6707 81.8876 50.4391 79.9573C50.2076 78.0251 47.7717 68.6377 47.1342 66.507C46.4967 64.3764 43.7706 59.1828 46.5538 58.4507Z" fill="#DEDEDE"/>
<path d="M58.341 4.48754C59.5732 3.20553 63.1525 2.07649 64.8351 4.86451C66.5177 7.65435 65.6978 10.364 64.7209 12.0303C63.9581 13.3305 63.2302 14.0444 61.7998 14.7673C61.5095 14.913 58.8849 15.3974 58.3664 15.1771C58.0127 15.0277 57.8018 11.952 57.6971 11.9611C57.5941 11.972 57.307 11.7845 57.2975 11.535C57.2832 11.1708 57.6623 8.96915 57.5909 8.73606C57.5211 8.50114 56.928 5.95713 58.341 4.48754Z" fill="#FFBD95"/>
<path d="M58.3021 5.98083C58.2624 6.31226 59.2377 7.93117 60.0719 8.12238C60.9076 8.31359 61.4119 9.00924 61.8956 9.27512C62.3777 9.54099 64.0508 11.7354 64.0508 11.7354C64.0508 11.7354 66.6786 9.11122 66.2234 6.72201C65.7699 4.3328 63.5893 3.26019 62.1858 3.16186C60.7839 3.06352 58.6414 3.23834 58.3021 5.98083Z" fill="#8D3B26"/>
<path d="M58.5759 5.52192C58.5759 5.52192 58.0208 6.70563 57.7179 6.82582C57.4166 6.94601 57.415 7.44678 57.415 7.44678C57.415 7.44678 56.8632 6.39966 57.4594 5.24147C58.0557 4.08147 59.6352 2.82316 60.4535 3.2329C61.2718 3.64263 58.5759 5.52192 58.5759 5.52192Z" fill="#8D3B26"/>
<path d="M21.1594 53.7014C22.344 53.7014 23.5365 53.5867 24.6958 53.3172C39.135 49.9337 44.2082 42.3545 44.4175 42.0321L43.7816 41.4877C43.7324 41.5623 38.6513 49.1197 24.5372 52.423C17.6689 54.031 9.28923 49.7443 9.20518 49.7006L8.87848 50.5292C9.17186 50.6821 15.0681 53.7014 21.1594 53.7014Z" fill="#191919"/>
<path d="M7.66392 47.082C7.66392 47.082 7.20243 45.545 5.44054 44.2284C3.92288 43.0921 2.8667 43.1048 2.8667 43.1048L2.05475 44.915C2.05475 44.915 3.30597 45.0497 4.37801 45.9092C5.45005 46.7706 6.33656 48.5388 6.33656 48.5388L7.66392 47.082Z" fill="#191919"/>
<path d="M8.2283 47.5007L15.658 34.1287L16.4732 34.6477L9.01331 47.803L8.2283 47.5007Z" fill="#191919"/>
<path d="M16.3762 44.6873C16.4079 44.558 16.7806 41.8792 16.3302 38.0368C15.94 34.7025 14.7522 32.8359 13.5755 31.1114C12.3972 29.3832 9.04158 26.6553 9.04158 26.6553L10.1152 25.6337C10.1152 25.6337 14.9981 29.2703 16.6902 33.9358C18.3823 38.5995 17.7923 43.3998 17.7923 43.3998L16.3762 44.6873Z" fill="#191919"/>
<path d="M16.6901 33.9358C16.8598 33.8994 18.0857 31.41 18.5091 28.5765C19.0118 25.2148 18.0682 22.1536 18.0682 22.1536L17.2119 22.2319C17.2119 22.2319 18.2157 25.8231 17.686 28.9024C17.223 31.5848 16.2207 33.0234 16.2207 33.0234L16.6901 33.9358Z" fill="#191919"/>
<path d="M7.78407 47.6903L8.10281 47.7413C8.71495 47.9416 9.0686 48.6773 8.89574 49.3802C8.72447 50.0631 8.06951 50.4892 7.46847 50.2889C7.17191 50.1906 6.92611 49.9666 6.77545 49.657C6.62638 49.3475 6.5899 48.9905 6.67554 48.6518C6.81668 48.0855 7.27343 47.6903 7.78407 47.6903ZM7.78564 51.1521C8.61187 51.1521 9.34771 50.5147 9.57449 49.6042C9.85677 48.4697 9.28429 47.286 8.29789 46.96C7.33051 46.6377 6.27116 47.3243 5.99522 48.4278C5.85884 48.976 5.91593 49.5514 6.15857 50.0522C6.39962 50.5511 6.79448 50.9117 7.27341 51.0702C7.44151 51.1248 7.61278 51.1521 7.78564 51.1521Z" fill="#E8A900"/>
<path d="M52.875 64.2471C52.875 64.2471 54.0914 67.3593 54.3419 70.3932C54.5925 73.4289 54.0914 78.8155 54.3419 79.4238C54.5925 80.0302 55.2681 82.6853 55.2284 83.2935C55.1872 83.8999 54.6559 85.0381 54.6306 85.2657C54.6068 85.4933 54.5528 86.4038 54.5528 86.4038L51.1195 86.8591L50.8261 86.025C50.8261 86.025 47.8574 87.0867 45.7418 87.0102C43.6247 86.9356 42.0389 86.6315 41.8406 86.1762C41.6424 85.7209 41.9056 84.8869 43.6897 84.6593C45.4738 84.4316 48.931 81.8621 49.7525 81.1792C50.5739 80.4963 47.2579 67.2829 47.2579 67.2829C47.2579 67.2829 47.5148 64.6642 48.8438 63.9449C50.3852 63.109 52.875 64.2471 52.875 64.2471Z" fill="black"/>
<path d="M65.2821 20.2323C64.1451 19.5093 62.4609 19.8317 61.3778 21.2521C60.2962 22.6725 55.8447 34.125 55.8463 35.0137C55.8463 35.9005 57.8603 39.5845 58.9435 38.7869C60.025 37.9875 64.7033 29.2428 65.7072 27.2888C66.7126 25.3367 67.7957 21.8293 65.2821 20.2323Z" fill="#010169"/>
<path d="M45.5071 76.8907L48.1729 76.796C48.1729 76.796 48.2221 78.8611 48.1079 79.7807C47.9921 80.704 47.7099 84.8177 48.0476 86.0779C48.387 87.3362 48.4616 87.6677 48.4616 87.6677L45.1503 87.7004C45.1503 87.7004 44.7744 85.9923 44.8775 84.337C44.9806 82.6798 45.6942 80.378 45.7069 79.3564C45.718 78.3366 45.5071 76.8907 45.5071 76.8907Z" fill="#303030"/>
<path d="M64.7018 15.953L64.6368 14.0555L59.581 16.2171L58.4249 19.291L64.7018 15.953Z" fill="#DEDEDE"/>
<path d="M65.779 17.2423L64.9004 14.8149C64.9004 14.8149 59.3499 17.9252 58.5903 18.6846C57.8307 19.4421 56.1782 23.0205 56.1782 23.0205C56.1782 23.0205 58.9535 20.278 61.3005 19.0251C63.646 17.7741 65.779 17.2423 65.779 17.2423Z" fill="#921212"/>
<path d="M55.766 6.39258H67.6757C67.8216 6.39258 67.9406 6.25601 67.9406 6.08848C67.9406 5.92094 67.8216 5.78438 67.6757 5.78438H55.766C55.6201 5.78438 55.5011 5.92094 55.5011 6.08848C55.5011 6.25601 55.6201 6.39258 55.766 6.39258Z" fill="#E8A900"/>
<path d="M65.4855 3.37602L66.0802 5.4404H57.1597L57.7544 1.99976L58.3491 2.68789L59.5385 4.75227L61.9173 1.99976L63.1067 4.75227L65.4855 3.37602Z" stroke="#E8A900"/>
<path d="M42.246 44.3613L42.2445 44.3595C42.1255 44.1246 42.1953 43.8168 42.3999 43.6784L44.0032 42.6004C44.2093 42.462 44.4773 42.5439 44.5979 42.7807V42.7825C44.7184 43.0192 44.647 43.3251 44.4425 43.4635L42.8407 44.5416C42.633 44.68 42.3666 44.5999 42.246 44.3613Z" fill="#818181"/>
<path d="M41.7684 43.602L41.7668 43.5984C41.6479 43.3634 41.7177 43.0575 41.9222 42.9191L43.5255 41.8411C43.7317 41.7008 43.9997 41.7828 44.1202 42.0213L44.1218 42.0232C44.2408 42.2581 44.171 42.564 43.9648 42.7024L42.3631 43.7805C42.1569 43.9207 41.8889 43.8387 41.7684 43.602Z" fill="#818181"/>
<path d="M41.3436 42.828L41.3421 42.8262C41.2231 42.5895 41.2929 42.2835 41.4975 42.147L43.1008 41.0671C43.3069 40.9287 43.5749 41.0088 43.6955 41.2474L43.697 41.2492C43.816 41.4859 43.7462 41.7919 43.54 41.9303L41.9383 43.0083C41.7322 43.1485 41.4642 43.0666 41.3436 42.828Z" fill="#818181"/>
<path d="M40.9955 42.0395L40.9939 42.0377C40.875 41.801 40.9447 41.495 41.1509 41.3566L42.7526 40.2786C42.9588 40.1384 43.2268 40.2203 43.3473 40.4589L43.3489 40.4607C43.4678 40.6974 43.398 41.0034 43.1919 41.1399L41.5902 42.2198C41.384 42.3582 41.116 42.2781 40.9955 42.0395Z" fill="#818181"/>
<path d="M46.8282 38.6324C46.8282 38.6324 43.8753 39.1914 43.3251 39.4628C42.7732 39.7341 41.0113 41.5114 41.0113 41.5114C41.0113 41.5114 42.0199 41.8738 42.2245 42.4438C42.429 43.0156 42.8382 44.5435 42.8382 44.5435C42.8382 44.5435 44.8015 43.9207 45.5881 43.3143C46.3762 42.7078 47.702 41.8684 47.702 41.8684L46.8282 38.6324Z" fill="#818181"/>
<path d="M59.6791 38.4426C58.8957 39.6172 55.5036 41.1942 52.4111 41.9063C49.3187 42.6147 47.579 42.8823 47.579 42.8823C47.579 42.8823 46.8067 41.817 46.729 40.3511C46.6513 38.887 46.729 37.3773 46.729 37.3773C46.729 37.3773 50.7872 36.5779 52.4888 36.0461C54.1889 35.5125 55.5083 34.6348 56.7041 34.5856C57.8998 34.5365 61.1857 36.1791 59.6791 38.4426Z" fill="#D31818"/>
<path d="M38.1719 52.1918C46.0661 60.1039 38.8636 69.074 49.9589 76.3329" stroke="#D31818" stroke-width="3"/>
<path d="M20.9083 70.6809C21.8876 84.2421 37.9747 87.2467 35.2089 100.543" stroke="#D31818" stroke-width="3"/>
<path d="M25.5629 67.4135C26.526 80.1572 38.1302 81.6003 39.7792 97.5224" stroke="#D31818" stroke-width="3"/>
<path d="M28.9073 65.3951C43.3428 74.9704 36.9681 85.8729 43.4765 95.3345" stroke="#D31818" stroke-width="3"/>
<path d="M32.2025 60.9246C35.014 72.5742 48.3626 76.6875 46.7717 90.864" stroke="#D31818" stroke-width="3"/>
<path d="M38.4537 52.7091C46.348 60.6211 35.3875 68.8864 46.4828 76.1453" stroke="white" stroke-width="3"/>
<path d="M20.6394 70.6038C21.6186 84.1651 34.4979 87.0593 31.7321 100.356" stroke="white" stroke-width="3"/>
<path d="M25.2106 67.5833C26.1738 80.3269 34.6543 81.4129 36.3034 97.3351" stroke="white" stroke-width="3"/>
<path d="M28.9074 65.3953C43.3429 74.9707 33.4918 85.6855 40.0002 95.1471" stroke="white" stroke-width="3"/>
<path d="M32.2029 60.9251C35.0145 72.5747 44.8866 76.5004 43.2957 90.6769" stroke="white" stroke-width="3"/>
<path d="M22.2165 82.119L44.5181 45.3967L19.3389 64.1179C17.0882 75.5596 17.3541 79.9818 22.2165 82.119Z" fill="#D31818" stroke="#D31818"/>
<path d="M109.797 53.4927C117.724 58.8743 117.965 74.1812 128.121 78.0604" stroke="#D31818" stroke-width="3"/>
<path d="M104.94 80.6465C109.135 93.3182 121.939 91.7666 123.264 105.214" stroke="#D31818" stroke-width="3"/>
<path d="M107.589 76.25C111.563 88.1459 120.615 86.3357 125.913 101.076" stroke="#D31818" stroke-width="3"/>
<path d="M109.576 73.4055C122.822 78.5777 120.835 90.7322 128.121 97.9732" stroke="#D31818" stroke-width="3"/>
<path d="M110.901 68.2332C115.978 78.5774 127.017 78.836 129.445 92.8008" stroke="#D31818" stroke-width="3"/>
<path d="M109.576 53.4927C117.503 58.8743 115.316 74.9571 125.472 78.8362" stroke="white" stroke-width="3"/>
<path d="M104.719 80.6465C108.914 93.3182 119.29 92.5424 120.615 105.99" stroke="white" stroke-width="3"/>
<path d="M107.368 76.5088C111.342 88.4047 117.965 87.1117 123.264 101.852" stroke="white" stroke-width="3"/>
<path d="M109.576 73.4053C122.823 78.5774 118.186 91.5078 125.472 98.7488" stroke="white" stroke-width="3"/>
<path d="M110.901 68.2334C115.978 78.5777 124.368 79.6121 126.796 93.5769" stroke="white" stroke-width="3"/>
<path d="M103.63 81.3734C93.5345 79.8356 85.3103 78.1953 77.5785 48.5304C88.6028 44.3733 97.2272 42.0652 104.924 47.7546C114.783 56.2082 111.136 72.8394 103.63 81.3734Z" fill="#FF0000" stroke="#FF0000" stroke-width="0.5"/>
<path d="M67.7998 21.8635L65.4716 15.9155L59.6512 19.2774C56.3635 28.0464 55.625 32.6754 58.0215 39.966C65.8296 60.1958 80.4474 60.8516 110.172 54.7066C106.68 47.4656 105.283 47.7242 102.257 45.1381C99.2299 42.5521 82.0789 48.1511 71.0592 45.1381C67.3906 41.722 66.3028 39.5974 65.4716 35.5697L67.7998 21.8635Z" fill="#D31818" stroke="#D31818"/>
<path d="M101.863 62.7538L100.097 65.8571L98.3311 62.7538L100.097 58.0989L101.863 62.7538Z" fill="white" stroke="white" stroke-width="0.5"/>
<path d="M101.863 69.2189L100.097 66.1156L98.3311 69.2189L100.097 73.8738L101.863 69.2189Z" fill="white" stroke="white" stroke-width="0.5"/>
<path d="M97.3975 64.1611L100.047 66.23L97.3975 68.2988L93.4236 66.23L97.3975 64.1611Z" fill="white" stroke="white" stroke-width="0.5"/>
<path d="M102.746 64.0466L100.097 66.1155L102.746 68.1843L106.72 66.1155L102.746 64.0466Z" fill="white" stroke="white" stroke-width="0.5"/>
<path d="M50.3276 47.3547C52.1974 49.6149 55.1592 58.6648 54.1167 62.2216C53.0742 65.7768 48.606 68.518 46.7155 70.1986C44.825 71.8776 43.0954 72.9399 42.6315 74.2664C42.1661 75.593 42.3414 76.3188 41.9573 76.8667C41.5731 77.4146 37.6342 78.5809 36.8483 78.3325C36.0641 78.0841 35.3452 76.6518 34.6247 76.155C33.9041 75.6599 33.0402 74.314 33.2331 73.5706C33.4243 72.8271 33.6985 70.3678 34.6119 69.1839C35.5237 67.9983 37.6725 62.5141 38.4105 60.6027C39.147 58.6912 39.5981 53.2052 41.7596 50.9432C43.9227 48.6794 47.927 44.4514 50.3276 47.3547Z" fill="white"/>
<path d="M33.8481 73.0632C33.6313 73.9 34.0713 74.7739 34.8285 75.0135C35.5872 75.253 36.3779 74.7686 36.5947 73.93C36.8115 73.0932 36.3731 72.2194 35.6143 71.9798C34.8572 71.7402 34.0665 72.2247 33.8481 73.0632Z" fill="black"/>
<path d="M78.6515 70.2253C78.1717 69.5876 77.7222 68.8829 77.2998 68.0919C74.1914 62.2519 69.5288 51.7733 63.6228 48.6815C59.1324 46.3314 53.1181 45.4734 48.7153 46.4053C46.3928 46.0812 43.49 49.1324 41.7605 50.9435C41.5421 51.1707 41.3524 51.4526 41.1675 51.7415L41.1515 51.731C41.1515 51.731 40.4581 48.2904 41.9199 46.5287C43.3816 44.767 47.8976 44.6207 48.5623 45.0612C49.2254 45.5016 49.8901 43.3717 52.5474 43.2625C55.2031 43.1515 56.0001 45.6478 57.5941 45.3536C59.1882 45.0611 62.6425 44.1803 64.9013 45.794C67.1584 47.4095 65.5644 49.9058 67.2923 50.1983C69.0187 50.4925 71.8083 50.4925 72.473 52.6946C73.1361 54.8968 72.0745 56.3642 73.0038 57.2451C73.9331 58.1259 76.9714 58.8905 77.3125 60.5641C77.6536 62.2378 77.354 64.602 78.0346 65.9884C78.7153 67.3749 79.8327 68.4689 79.7833 69.2088C79.7705 69.4097 79.3067 69.7884 78.6515 70.2253Z" fill="#330E01"/>
<path d="M129.756 74.8779C125.2 74.6753 117.536 78.2446 115.749 85.3195C113.962 92.3928 119.685 100.794 122.87 104.698C126.056 108.602 130.07 113.834 132.372 117.064C134.672 120.293 138.455 125.553 139.083 128.458C139.713 131.365 139.945 141.183 139.292 142.943C138.64 144.703 138.029 145.681 137.022 146.186C136.016 146.692 133.703 148.256 133.703 148.256L138.981 150.751C138.981 150.751 140.61 149.396 141.281 149.06C141.952 148.722 143.551 148.278 143.892 146.94C144.235 145.607 144.142 140.954 144.203 136.671C144.264 132.391 145.96 123.124 145.513 122.141C145.069 121.156 141.146 115.654 139.614 113.112C138.082 110.57 137.098 106.409 138.082 103.187C139.064 99.9628 141.155 91.8114 140.856 88.3514C140.557 84.8914 139.41 75.3095 129.756 74.8779Z" fill="#BEB8B5"/>
<path d="M133.704 148.256C133.704 148.256 132.722 149.019 131.684 150.436C130.648 151.852 129.83 153.113 129.83 153.113C129.83 153.113 137.592 153.374 138.226 152.654C138.86 151.931 138.982 150.751 138.982 150.751L133.704 148.256Z" fill="black"/>
<path d="M135.971 73.7047C135.971 73.7047 141.112 69.4131 145.887 74.5185C150.545 79.4954 148.025 93.0059 155.667 103.321C158.519 107.173 168 106.765 168 106.765C168 106.765 166.194 109.52 163.387 110.494C160.58 111.469 158.946 111.111 158.946 111.111C158.608 111.201 160.438 112.711 162.024 113.107C162.968 113.341 164.995 112.955 164.995 112.955C164.995 112.955 161.503 116.896 155.613 114.597C155.248 114.455 156.311 118.223 156.311 118.223C156.311 118.223 152.825 118.186 149.214 115.933C145.97 113.91 143.052 110.575 143.052 110.575L143.592 117.217C143.592 117.217 140.026 112.207 139.247 110.515C138.705 109.339 138.306 105.75 138.306 105.75L136.771 109.813C136.771 109.813 134.193 107.186 134.123 97.2745C134.052 87.3631 135.971 73.7047 135.971 73.7047Z" fill="black"/>
<path d="M73.1569 85.6067C71.1101 84.3066 67.7722 83.2566 62.3492 86.588C56.9263 89.9176 56.1356 95.0054 56.3444 97.5723C56.5517 100.139 59.7031 102.251 59.6298 103.032C59.5549 103.81 47.4162 106.042 45.5145 107.589C43.6144 109.136 42.2148 111.294 42.2993 112.837C42.3838 114.381 43.3386 116.898 42.489 120.57C41.6393 124.239 41.1771 126.464 41.9311 127.445C42.685 128.428 43.8742 130.93 44.1548 131.814C44.4369 132.699 44.6314 134.106 44.6314 134.106C44.6314 134.106 49.0676 129.808 48.3551 129.598C47.6425 129.387 46.4725 129.336 46.8678 128.02C47.2616 126.702 46.4438 124.563 46.3944 123.663C46.3466 122.763 45.9449 115.432 47.6059 113.773C49.2669 112.113 59.6744 112.367 63.9736 111.992C68.2743 111.617 70.2541 111.528 71.1324 108.35C72.0092 105.172 75.8891 101.298 76.8232 98.1395C77.7573 94.979 77.7541 88.5259 73.1569 85.6067Z" fill="#BEB8B5"/>
<path d="M140.246 80.4587C138.652 74.853 132.474 69.2931 121.905 69.9801C111.336 70.669 102.011 77.0234 93.4624 76.1637C84.9152 75.3058 80.4072 73.9316 77.2988 68.0916C74.1904 62.2515 69.5278 51.7729 63.6219 48.6812C57.7159 45.5894 49.167 45.0732 45.1261 47.8232C41.0852 50.5714 53.9858 63.9692 54.7621 67.7481C55.54 71.5269 57.7159 85.6117 57.4051 87.1585C57.0942 88.7035 54.6075 93.1695 56.1617 98.1516C57.7159 103.132 68.4407 114.127 81.3397 113.954C94.2403 113.781 108.539 105.537 113.823 105.022C119.107 104.506 132.474 102.445 136.825 97.808C141.179 93.1694 141.955 86.4697 140.246 80.4587Z" fill="white"/>
<path d="M125.344 75.6989C118.443 75.8099 112.953 84.3841 111.544 89.5794C110.133 94.7764 113.282 102.516 115.254 104.887C120.922 111.701 128.44 115.769 128.438 116.463C128.436 117.65 114.785 124.308 114.152 125.076C113.519 125.844 111.841 132.954 111.853 133.485C111.865 134.015 116.977 131.187 116.977 131.187C116.977 131.187 117.055 129.623 118.029 128.939C119.003 128.256 135.932 120.164 136.236 118.656C136.542 117.147 131.086 112.233 131.14 109.606C131.194 106.98 139.507 97.1529 140.389 92.2237C141.272 87.2944 138.667 75.484 125.344 75.6989Z" fill="white"/>
<path d="M116.976 131.187C116.976 131.187 118.516 133.019 118.414 133.523C118.312 134.025 115.271 139.61 114.258 139.888C113.248 140.165 112.682 137.649 112.291 136.629C111.901 135.609 111.853 133.485 111.853 133.485L116.976 131.187Z" fill="#303030"/>
<path d="M74.1238 89.8998C70.8926 89.0119 66.3273 91.4836 64.3586 96.4093C62.39 101.335 63.203 106.682 65.229 109.122C67.2566 111.562 70.8209 113.559 72.6891 117.194C73.6408 119.049 76.1976 123.712 77.0951 126.496C77.9909 129.279 80.0345 138.824 80.0345 138.824C81.0898 142.65 82.2088 147.673 81.1073 149.755C80.0058 151.838 77.1413 153.98 77.1413 153.98L81.6716 155.016C81.6716 155.016 82.5276 153.649 83.3724 153.76C84.2173 153.871 85.9006 153.289 86.2226 152.292C86.543 151.293 85.4989 145.989 85.2008 144.032C84.9027 142.076 83.535 136.965 84.3703 135.47C85.2072 133.974 84.1599 131.754 83.9606 130.449C83.763 129.145 81.5712 117.079 81.8406 113.41C82.1084 109.738 88.6806 93.8989 74.1238 89.8998Z" fill="white"/>
<path d="M77.2561 153.019C77.2561 153.019 76.5149 154.363 75.8486 155.427C75.1839 156.49 73.9804 157.115 74.194 157.746C74.4076 158.376 81.0388 157.68 81.5744 157.312C82.1084 156.944 81.7864 154.055 81.7864 154.055L77.2561 153.019Z" fill="#303030"/>
<path d="M48.3543 129.598C48.3543 129.598 50.7023 129.827 50.8681 130.72C51.0339 131.612 49.1465 137.676 48.4834 138.365C47.8203 139.055 46.9005 137.181 46.2772 136.448C45.6524 135.715 44.6306 134.106 44.6306 134.106L48.3543 129.598Z" fill="black"/>
<path d="M47.1734 49.7067C48.1043 49.86 48.7595 47.3267 48.1681 45.8662C47.5751 44.4075 45.9523 42.0169 44.8477 41.6011C43.743 41.1854 44.6229 42.9365 44.3567 44.1926C44.0921 45.4487 44.0905 49.2011 47.1734 49.7067Z" fill="white"/>
<path d="M107.55 79.6612C107.143 83.1688 105.992 92.12 104.224 93.3233C102.458 94.5248 96.8168 95.6346 92.2148 96.0046C89.1064 96.2547 83.811 96.0257 79.0687 95.0445C75.6176 94.331 73.1883 92.7472 72.1282 91.5757C70.2329 89.481 78.1553 69.1228 78.6208 69.2091C79.0878 69.2937 86.6867 75.5706 91.2409 75.6957C95.795 75.8225 107.395 73.497 107.395 73.497C107.395 73.497 107.821 77.3199 107.55 79.6612Z" fill="#C2C2C2"/>
<path d="M89.7377 96.0946L89.5432 96.0981H89.4938C86.744 96.0911 83.3057 95.8233 80.0331 95.2226L79.0687 71.9188L81.7467 71.3515C84.4837 73.2119 88.4369 75.6183 91.2409 75.6958C95.795 75.8227 107.395 73.4972 107.395 73.4972C107.395 73.4972 107.821 77.3201 107.55 79.6614C107.495 80.1318 107.427 80.7026 107.346 81.3333C107.342 81.3351 97.0464 82.6458 93.2302 86.3136C89.4252 89.9745 89.7361 96.0611 89.7377 96.0946Z" fill="#ABABAB"/>
<path d="M99.0196 41.9837C99.0196 41.9837 98.3199 40.7382 98.127 39.6636C97.9325 38.5907 98.2433 36.0644 98.2433 36.0644L93.619 38.7193C93.619 38.7193 93.619 40.3506 93.5409 40.9954C93.4628 41.6384 93.2301 42.928 93.2301 42.928L99.0196 41.9837Z" fill="#925B42"/>
<path d="M82.4321 98.551C82.4321 98.551 82.2153 100.496 82.7047 101.805C83.1956 103.114 83.7615 105.892 83.8014 106.928C83.8412 107.964 82.1993 109.377 82.1993 109.377L79.3141 109.437C79.3141 109.437 80.0394 104.056 80.3789 102.425C80.7169 100.792 79.9836 98.8575 79.9836 98.8575L82.4321 98.551Z" fill="black"/>
<path d="M86.4216 76.0742C86.4216 76.0742 87.7654 81.0281 88.2197 86.4418C88.674 91.8537 88.2835 94.8557 86.8919 95.2891C85.5019 95.7242 83.3053 95.911 82.5577 97.2199C81.8116 98.5289 81.0864 100.097 80.0837 100.047C79.0795 99.9999 78.7383 90.839 78.8069 84.8404C78.8738 78.8418 80.0407 76.8722 80.0407 76.8722L86.4216 76.0742Z" fill="#191919"/>
<path d="M80.9284 98.8197L79.9258 98.9448L79.913 98.8708C79.9114 98.8567 79.6867 97.4315 79.5528 94.1512C79.4093 90.663 79.3025 87.7086 79.3217 84.106C79.3408 80.4751 80.0023 77.8977 80.0087 77.8731L80.1458 77.9171C80.1378 77.9435 79.4827 80.4998 79.4635 84.1042C79.4444 87.7034 79.5512 90.656 79.6947 94.1407C79.811 96.9946 79.9959 98.4375 80.0422 98.7651L80.8344 98.6665C80.9683 98.3529 81.7972 96.4819 82.8541 95.8847C83.4231 95.5623 84.3413 95.2628 85.1511 95.0003C85.9226 94.7484 86.6511 94.5106 86.844 94.3256C87.5804 93.6174 87.8881 90.1609 87.5422 86.4578C87.1899 82.6878 86.3163 78.3399 86.3068 78.2976L86.4454 78.2571C86.4534 78.3011 87.3301 82.6579 87.684 86.4385C88.0395 90.2526 87.7175 93.6985 86.9332 94.4525C86.718 94.6604 86.0087 94.8894 85.1893 95.1572C84.3843 95.4197 83.4741 95.7174 82.9162 96.031C81.8307 96.644 80.954 98.7563 80.946 98.7774L80.9284 98.8197Z" fill="black"/>
<path d="M82.2522 99.4486L79.1485 99.838C78.7979 99.8802 78.4854 99.5684 78.4488 99.1403C78.4137 98.714 78.6656 98.3352 79.0147 98.2912L82.1183 97.9036C82.4674 97.8596 82.7814 98.1731 82.8165 98.5995C82.8531 99.0258 82.5997 99.4063 82.2522 99.4486Z" fill="#303030"/>
<path d="M99.5935 72.817C99.5935 72.817 104.954 72.9684 105.166 73.0125C105.377 73.0583 105.471 77.9576 105.241 78.4773C105.012 78.9952 104.436 80.3324 102.662 80.2319C100.889 80.1315 89.5781 79.4339 89.5781 79.4339L99.5935 72.817Z" fill="#191919"/>
<path d="M84.9357 66.7304C84.2614 66.2547 82.2752 66.4696 81.907 66.9999C81.2965 67.8825 81.0191 71.4553 81.2104 72.1564C81.4017 72.8576 81.2726 75.7908 83.2891 76.0498C85.3071 76.3087 85.6132 74.4748 85.7232 73.2346C85.8347 71.9961 86.2906 67.6799 84.9357 66.7304Z" fill="#303030"/>
<path d="M81.1945 70.4019C81.1945 70.4019 81.0271 75.1056 83.3847 75.1866C85.0808 75.2465 85.3119 73.4848 85.7981 73.5024C86.2827 73.5183 87.3651 74.1595 87.9023 73.9904C88.441 73.8213 90.3157 72.7836 91.0393 72.9651C91.763 73.1466 97.9687 74.7568 97.7901 75.8807C97.6132 77.0047 93.7604 81.9533 89.5106 81.5411C85.2593 81.1289 84.2136 78.1533 83.2923 78.0846C82.3709 78.0142 79.7886 79.9943 78.8178 78.1146C78.3762 77.2602 77.6525 70.4547 81.1945 70.4019Z" fill="#191919"/>
<path d="M85.7692 68.5783C85.7692 68.5783 92.2331 72.9737 95.3766 72.4434C98.52 71.9132 101.699 67.3891 103.385 68.6575C104.217 69.2829 103.221 75.4683 100.17 75.9034C97.1188 76.3403 83.85 75.153 83.85 75.153C83.85 75.153 85.2225 74.4853 85.5604 72.0365C85.8521 69.9295 85.7692 68.5783 85.7692 68.5783Z" fill="#303030"/>
<path d="M80.1701 71.4941L80.3852 71.059L80.1669 70.6626L79.9214 71.0995L80.1701 71.4941Z" fill="black"/>
<path d="M79.9003 72.0894L80.0644 71.6278L79.7934 71.2737L79.6101 71.7282L79.9003 72.0894Z" fill="black"/>
<path d="M79.6908 72.7129L79.8104 72.2355L79.5043 71.9148L79.3672 72.387L79.6908 72.7129Z" fill="black"/>
<path d="M79.5466 73.3579L79.6154 72.8682L79.2778 72.5845L79.1882 73.0707L79.5466 73.3579Z" fill="black"/>
<path d="M79.4636 74.0186L79.486 73.52L79.1228 73.2768L79.0812 73.7684L79.4636 74.0186Z" fill="black"/>
<path d="M79.4237 74.6914L79.4157 74.1893L79.0332 73.9761L79.0268 74.4641L79.4237 74.6914Z" fill="black"/>
<path d="M79.4156 75.3679L79.3836 74.8641L78.9915 74.6756L79.0107 75.1618L79.4156 75.3679Z" fill="black"/>
<path d="M79.4382 76.0427L79.3856 75.5424L78.9855 75.3733L79.0253 75.856L79.4382 76.0427Z" fill="black"/>
<path d="M79.4957 76.7122L79.416 76.2189L79.0095 76.0709L79.0733 76.5536L79.4957 76.7122Z" fill="black"/>
<path d="M79.602 77.364L79.5701 77.1526L79.4824 76.8883L79.0679 76.7685L79.1652 77.2512L79.602 77.364Z" fill="black"/>
<path d="M79.7827 77.8448L79.778 77.8378L79.7333 77.7479L79.6106 77.5312L79.185 77.4713L79.3715 77.9611L79.6409 77.9646L79.7827 77.8448Z" fill="black"/>
<path d="M80.267 77.9103L79.8622 77.9173L79.6852 78.1058L79.5354 78.2168L80.0853 78.3472L80.267 77.9103Z" fill="black"/>
<path d="M80.8589 77.7761L80.4221 77.9224L80.3472 78.1778L80.3074 78.3628L80.776 78.2412L80.8589 77.7761Z" fill="black"/>
<path d="M81.4532 77.554L81.0212 77.7566L80.9813 78.2129L81.4117 78.0262L81.4532 77.554Z" fill="black"/>
<path d="M82.0475 77.2967L81.6155 77.5222L81.6075 77.9785L82.0203 77.7706L82.0475 77.2967Z" fill="black"/>
<path d="M82.6567 77.0348L82.2151 77.2603L82.2135 77.7166L82.6168 77.5086L82.6567 77.0348Z" fill="black"/>
<path d="M83.4726 76.9782L83.4423 76.9518L83.2574 76.8849L83.0582 76.8954L82.8334 77.0082L82.8063 77.4609L83.1777 77.3218L83.2526 77.1773L83.3993 77.0276L83.4726 76.9782Z" fill="black"/>
<path d="M83.9876 77.4326L83.597 77.126L83.2272 77.3515L83.5763 77.6211L83.9876 77.4326Z" fill="black"/>
<path d="M84.4787 77.8766L84.093 77.5736L83.7072 77.778L84.0691 78.0669L84.4787 77.8766Z" fill="black"/>
<path d="M84.9755 78.3119L84.585 78.016L84.2024 78.2256L84.5674 78.5093L84.9755 78.3119Z" fill="black"/>
<path d="M85.4777 78.7365L85.0824 78.4493L84.703 78.666L85.0744 78.9426L85.4777 78.7365Z" fill="black"/>
<path d="M85.9901 79.1468L85.5899 78.8702L85.2153 79.0975L85.5931 79.3652L85.9901 79.1468Z" fill="black"/>
<path d="M86.5122 79.5361L86.1042 79.2772L85.7359 79.515L86.1217 79.7722L86.5122 79.5361Z" fill="black"/>
<path d="M87.05 79.8991L86.6324 79.663L86.2737 79.915L86.6722 80.1545L87.05 79.8991Z" fill="black"/>
<path d="M87.6013 80.2197L87.4228 80.1105L87.1726 80.0188L86.8282 80.2901L87.2427 80.5068L87.6013 80.2197Z" fill="black"/>
<path d="M88.1702 80.4716L87.7319 80.3236L87.4115 80.6301L87.853 80.801L88.1702 80.4716Z" fill="black"/>
<path d="M88.7604 80.5878L88.558 80.5561L88.3093 80.5473L88.0399 80.9049L88.5181 80.9912L88.7604 80.5878Z" fill="black"/>
<path d="M89.3836 80.6194L88.9182 80.6388L88.7189 81.0422H89.1844L89.3836 80.6194Z" fill="black"/>
<path d="M90.0082 80.5773L89.8025 80.5861L89.5459 80.6496L89.3881 81.0741L89.581 81.0776L89.8519 81.0213L90.0082 80.5773Z" fill="black"/>
<path d="M90.6284 80.4716L90.1725 80.5896L90.0562 81.03L90.5105 80.9296L90.6284 80.4716Z" fill="black"/>
<path d="M91.2402 80.3095L91.0377 80.357L90.7938 80.4715L90.7157 80.9172L90.9038 80.8855L91.1589 80.7763L91.2402 80.3095Z" fill="black"/>
<path d="M91.84 80.0965L91.4048 80.292L91.3618 80.7466L91.7922 80.5686L91.84 80.0965Z" fill="black"/>
<path d="M92.4263 79.8409L92.0022 80.0682L91.9878 80.5227L92.4071 80.3166L92.4263 79.8409Z" fill="black"/>
<path d="M93.0003 79.5484L92.5875 79.8003L92.6003 80.2566L93.0051 80.0223L93.0003 79.5484Z" fill="black"/>
<path d="M93.5627 79.2263L93.1594 79.4993L93.1946 79.9539L93.5867 79.7002L93.5627 79.2263Z" fill="black"/>
<path d="M94.1239 78.8827L93.7207 79.1698L93.7719 79.6226L94.1527 79.3565L94.1239 78.8827Z" fill="black"/>
<path d="M94.8505 78.7277L94.3388 78.8316L94.2989 79.0994L94.3356 79.2791L94.4567 79.2456L94.6815 79.1663L94.8505 78.7277Z" fill="black"/>
<path d="M95.5132 78.7186L95.0238 78.7556L94.874 79.1819L95.3123 79.1431L95.5132 78.7186Z" fill="black"/>
<path d="M96.1667 78.7382L95.6805 78.7558L95.5068 79.1733L95.9531 79.1575L96.1667 78.7382Z" fill="black"/>
<path d="M96.8166 78.7733L96.332 78.7821L96.1471 79.1943L96.5966 79.1873L96.8166 78.7733Z" fill="black"/>
<path d="M97.4657 78.8156L96.9811 78.8191L96.7914 79.2278H97.2425L97.4657 78.8156Z" fill="black"/>
<path d="M98.1122 78.8595L97.6292 78.8613L97.4363 79.27L97.8874 79.2717L98.1122 78.8595Z" fill="black"/>
<path d="M98.7584 78.9054L98.2754 78.9072L98.0825 79.3141L98.5352 79.3176L98.7584 78.9054Z" fill="black"/>
<path d="M99.4037 78.9496L98.9223 78.9514L98.7294 79.3601L99.1821 79.3618L99.4037 78.9496Z" fill="black"/>
<path d="M100.049 78.9901L99.568 78.9954L99.3767 79.4041H99.8294L100.049 78.9901Z" fill="black"/>
<path d="M100.693 79.0253L100.213 79.0341L100.025 79.4446L100.478 79.4393L100.693 79.0253Z" fill="black"/>
<path d="M101.337 79.0481L100.859 79.0657L100.674 79.4797L101.129 79.4674L101.337 79.0481Z" fill="black"/>
<path d="M101.98 79.0587L101.503 79.0869L101.326 79.5027L101.78 79.4833L101.98 79.0587Z" fill="black"/>
<path d="M102.617 79.043L102.145 79.0924L101.979 79.5134L102.435 79.4782L102.617 79.043Z" fill="black"/>
<path d="M103.242 78.9846L102.783 79.0692L102.638 79.499L103.097 79.4339L103.242 78.9846Z" fill="black"/>
<path d="M103.762 78.8227L103.402 78.9901L103.305 79.4358L103.502 79.4076L103.777 79.2878L103.762 78.8227Z" fill="black"/>
<path d="M104.03 78.3576L103.944 78.5355L103.864 78.7557L103.962 79.0094L104.013 79.1926L104.32 78.717L104.03 78.3576Z" fill="black"/>
<path d="M104.183 77.7304L104.106 78.2113L104.433 78.5161L104.537 78.0229L104.183 77.7304Z" fill="black"/>
<path d="M104.275 77.0679L104.245 77.5683L104.606 77.8167L104.649 77.6176L104.653 77.3269L104.275 77.0679Z" fill="black"/>
<path d="M104.33 76.3951L104.325 76.8989L104.704 77.1191L104.72 76.6329L104.33 76.3951Z" fill="black"/>
<path d="M104.358 75.7167L104.372 76.2222L104.76 76.4231L104.755 75.9386L104.358 75.7167Z" fill="black"/>
<path d="M104.368 75.0349L104.397 75.5423L104.79 75.729L104.771 75.2463L104.368 75.0349Z" fill="black"/>
<path d="M104.363 74.3533L104.401 74.8607L104.8 75.0369L104.769 74.5559L104.363 74.3533Z" fill="black"/>
<path d="M104.345 73.6713L104.394 74.1769L104.793 74.3442L104.755 73.8651L104.345 73.6713Z" fill="black"/>
<path d="M104.314 72.9914L104.373 73.4952L104.776 73.6538L104.727 73.1746L104.314 72.9914Z" fill="black"/>
<path d="M95.8859 75.6637C91.3221 75.5034 84.9172 74.7917 84.5363 74.7494L84.4741 74.6666L84.5522 74.5997C84.6829 74.6138 97.7892 76.0725 100.048 75.3361C102.452 74.5539 102.92 71.0763 102.967 70.6816C103.062 69.8519 102.853 68.4813 102.852 68.4672L102.911 68.3809L102.992 68.4425C103 68.4989 103.206 69.8484 103.107 70.701C103.061 71.1045 102.579 74.6684 100.089 75.4805C99.4103 75.7007 97.8131 75.7307 95.8859 75.6637Z" fill="black"/>
<path d="M54.4737 76.5518C55.6644 76.5518 56.8632 76.4408 58.0284 76.18C72.5422 72.9068 77.6416 65.5746 77.852 65.2627L77.2128 64.736C77.1634 64.8082 72.056 72.1193 57.869 75.315C50.9652 76.8706 42.5422 72.7236 42.4578 72.6813L42.1294 73.4829C42.4243 73.6309 48.351 76.5518 54.4737 76.5518Z" fill="#191919"/>
<path d="M40.9088 70.148C40.9088 70.148 40.4449 68.6611 38.6739 67.3874C37.1484 66.2881 36.0868 66.3005 36.0868 66.3005L35.2706 68.0516C35.2706 68.0516 36.5283 68.182 37.6059 69.0135C38.6835 69.8468 39.5746 71.5574 39.5746 71.5574L40.9088 70.148Z" fill="#191919"/>
<path d="M41.4768 70.5532L48.9449 57.6171L49.7643 58.1192L42.2659 70.8457L41.4768 70.5532Z" fill="#191919"/>
<path d="M49.667 67.8315C49.6988 67.7065 50.0734 65.115 49.6207 61.3978C49.2286 58.1721 48.0346 56.3664 46.8519 54.698C45.6675 53.0262 42.2945 50.3872 42.2945 50.3872L43.3737 49.3989C43.3737 49.3989 48.2817 52.917 49.9826 57.4304C51.6834 61.9422 51.0904 66.586 51.0904 66.586L49.667 67.8315Z" fill="#191919"/>
<path d="M49.9824 57.4302C50.1529 57.3949 51.3851 54.9867 51.8107 52.2455C52.316 48.9934 51.3676 46.032 51.3676 46.032L50.5068 46.1077C50.5068 46.1077 51.5158 49.5818 50.9834 52.5608C50.518 55.1558 49.5105 56.5476 49.5105 56.5476L49.9824 57.4302Z" fill="#191919"/>
<path d="M41.0299 70.7364L41.3502 70.7858C41.9656 70.9796 42.321 71.6913 42.1473 72.3713C41.9751 73.032 41.3168 73.4442 40.7126 73.2504C40.4145 73.1553 40.1675 72.9386 40.016 72.6391C39.8662 72.3396 39.8295 71.9943 39.9156 71.6666C40.0575 71.1187 40.5166 70.7364 41.0299 70.7364ZM41.0314 74.0854C41.8619 74.0854 42.6016 73.4689 42.8295 72.588C43.1133 71.4905 42.5378 70.3453 41.5463 70.03C40.574 69.7182 39.5091 70.3824 39.2318 71.4499C39.0947 71.9802 39.1521 72.5369 39.396 73.0214C39.6383 73.5041 40.0352 73.8529 40.5166 74.0062C40.6855 74.059 40.8577 74.0854 41.0314 74.0854Z" fill="#E8A900"/>
<path d="M86.3535 86.7537C86.3535 86.7537 87.5762 89.7644 87.828 92.6994C88.0799 95.6362 87.5762 100.847 87.828 101.436C88.0799 102.022 88.7589 104.591 88.7191 105.179C88.6776 105.766 88.1436 106.867 88.1181 107.087C88.0942 107.308 88.04 108.188 88.04 108.188L84.5889 108.629L84.294 107.822C84.294 107.822 81.31 108.849 79.1835 108.775C77.0554 108.703 75.4614 108.409 75.2621 107.968C75.0629 107.528 75.3275 106.721 77.1208 106.501C78.9141 106.28 82.3891 103.795 83.2148 103.134C84.0405 102.473 80.7074 89.6905 80.7074 89.6905C80.7074 89.6905 80.9656 87.1571 82.3014 86.4613C83.8509 85.6526 86.3535 86.7537 86.3535 86.7537Z" fill="black"/>
<path d="M98.8254 44.1733C97.6825 43.4739 95.9896 43.7858 94.9009 45.1599C93.8137 46.534 89.3392 57.6133 89.3408 58.4731C89.3408 59.331 91.3653 62.895 92.454 62.1233C93.5411 61.35 98.2436 52.8902 99.2526 50.9999C100.263 49.1114 101.352 45.7183 98.8254 44.1733Z" fill="#921212"/>
<path d="M78.948 98.9854L81.6275 98.8938C81.6275 98.8938 81.677 100.892 81.5622 101.781C81.4458 102.674 81.1621 106.654 81.5016 107.873C81.8427 109.091 81.9177 109.411 81.9177 109.411L78.5893 109.443C78.5893 109.443 78.2115 107.79 78.3151 106.189C78.4187 104.586 79.136 102.359 79.1488 101.371C79.16 100.384 78.948 98.9854 78.948 98.9854Z" fill="#303030"/>
<path d="M98.2419 40.0335L98.1766 38.1978L93.0947 40.2889L91.9327 43.2627L98.2419 40.0335Z" fill="#DEDEDE"/>
<path d="M99.3242 41.2807L98.441 38.9324C98.441 38.9324 92.8619 41.9413 92.0983 42.676C91.3348 43.4088 89.6738 46.8706 89.6738 46.8706C89.6738 46.8706 92.4634 44.2175 94.8226 43.0054C97.1802 41.7951 99.3242 41.2807 99.3242 41.2807Z" fill="#921212"/>
<path d="M75.6701 67.5159L75.6686 67.5141C75.549 67.2869 75.6191 66.9891 75.8248 66.8552L77.4363 65.8123C77.6436 65.6784 77.913 65.7577 78.0341 65.9867V65.9885C78.1553 66.2175 78.0835 66.5135 77.8779 66.6474L76.2679 67.6903C76.0591 67.8242 75.7913 67.7467 75.6701 67.5159Z" fill="#818181"/>
<path d="M75.1901 66.7814L75.1885 66.7779C75.069 66.5507 75.1391 66.2547 75.3448 66.1208L76.9563 65.0779C77.1636 64.9422 77.433 65.0215 77.5541 65.2523L77.5557 65.2541C77.6753 65.4813 77.6051 65.7773 77.3979 65.9112L75.7879 66.9541C75.5807 67.0897 75.3113 67.0105 75.1901 66.7814Z" fill="#818181"/>
<path d="M74.7632 66.0327L74.7616 66.0309C74.642 65.8019 74.7122 65.5059 74.9178 65.3738L76.5294 64.3291C76.7366 64.1952 77.006 64.2727 77.1271 64.5035L77.1287 64.5053C77.2483 64.7343 77.1782 65.0303 76.9709 65.1642L75.3609 66.2071C75.1537 66.3427 74.8843 66.2635 74.7632 66.0327Z" fill="#818181"/>
<path d="M74.4126 65.2698L74.411 65.268C74.2915 65.039 74.3616 64.743 74.5689 64.6091L76.1789 63.5662C76.3861 63.4306 76.6555 63.5099 76.7766 63.7406L76.7782 63.7424C76.8978 63.9714 76.8276 64.2674 76.6204 64.3995L75.0104 65.4442C74.8032 65.5781 74.5338 65.5006 74.4126 65.2698Z" fill="#818181"/>
<path d="M80.2756 61.9737C80.2756 61.9737 77.3075 62.5145 76.7544 62.777C76.1996 63.0395 74.4286 64.7589 74.4286 64.7589C74.4286 64.7589 75.4425 65.1095 75.6481 65.6609C75.8537 66.2141 76.265 67.6921 76.265 67.6921C76.265 67.6921 78.2384 67.0896 79.0291 66.503C79.8213 65.9163 81.1539 65.1042 81.1539 65.1042L80.2756 61.9737Z" fill="#A86C50"/>
<path d="M93.1925 61.7902C92.405 62.9265 88.9953 64.4521 85.8869 65.141C82.7786 65.8263 81.0299 66.0852 81.0299 66.0852C81.0299 66.0852 80.2536 65.0546 80.1755 63.6365C80.0974 62.22 80.1755 60.7596 80.1755 60.7596C80.1755 60.7596 84.2546 59.9862 85.9651 59.4718C87.6739 58.9556 89.0001 58.1064 90.202 58.0589C91.404 58.0113 94.7068 59.6004 93.1925 61.7902Z" fill="#921212"/>
<path d="M97.484 41.0818C98.3496 41.1258 100.282 43.2064 100.69 45.7186C101.098 48.2308 98.3002 57.1204 98.5919 59.4388C98.8836 61.7572 101.214 65.3 101.506 67.3629C101.798 69.4241 100.865 72.9017 97.484 73.8689C94.1046 74.8343 90.0828 71.9345 89.9075 69.9385C89.7322 67.9407 90.7137 63.1102 90.5399 60.5346C90.3646 57.9572 87.7317 51.8033 87.7317 48.3008C87.7317 46.3325 89.9591 45.5266 91.0079 44.1084C92.0568 42.692 93.7539 40.888 97.484 41.0818Z" fill="#C2C2C2"/>
<path d="M99.1762 68.3281C98.3441 66.7901 96.2033 66.5241 94.3957 66.8465C92.5896 67.1689 88.1598 70.6465 86.1784 72.3871C84.197 74.1259 78.951 80.1157 78.7772 81.9831C78.6019 83.8522 80.0588 86.3644 82.9154 84.8828C85.7703 83.3995 92.1226 79.536 94.6874 77.4749C97.2522 75.4137 101.682 72.9649 99.1762 68.3281Z" fill="#DEDEDE"/>
<path d="M79.9998 81.1461C81.7198 80.711 86.1783 84.6237 87.0519 89.9053C87.927 95.1887 87.4026 100.921 87.5779 101.823C87.7516 102.725 88.6842 104.658 88.0434 105.301C87.4026 105.946 83.8478 105.107 83.8478 104.335C83.8478 103.562 84.138 103.819 83.9052 101.952C83.6725 100.083 81.224 91.0011 80.5832 88.9399C79.9424 86.8787 77.2023 81.8543 79.9998 81.1461Z" fill="#DEDEDE"/>
<path d="M91.8482 28.9417C93.0868 27.7015 96.6845 26.6092 98.3758 29.3064C100.067 32.0053 99.243 34.6267 98.261 36.2387C97.4943 37.4965 96.7626 38.1871 95.3248 38.8865C95.0331 39.0275 92.3949 39.4961 91.8737 39.2829C91.5182 39.1385 91.3062 36.163 91.201 36.1718C91.0974 36.1823 90.8089 36.0009 90.7993 35.7595C90.785 35.4072 91.1659 33.2773 91.0942 33.0518C91.0241 32.8245 90.4279 30.3634 91.8482 28.9417Z" fill="#A86C50"/>
<path d="M88.9354 29.7835C88.9354 29.7835 91.8899 31.4071 92.7495 31.6982C93.6091 31.9893 94.2007 33.945 94.3482 34.4265C94.4957 34.9099 96.5331 36.2666 96.5331 36.2666C96.5331 36.2666 98.2558 34.5329 97.675 31.519C97.0941 28.5051 95.2995 27.6579 93.1883 27.5553C91.0772 27.4507 90.1834 27.7083 88.9354 29.7835Z" fill="#49271F"/>
<path d="M95.5376 29.8334C95.2319 30.0499 95.9243 32.4965 99.4615 33.4314C102.997 34.3664 106.75 33.7916 108.235 35.2659C109.722 36.7421 110.611 38.0652 112.495 37.8916C113.756 37.7778 114.644 37.1732 114.644 37.1732C114.644 37.1732 112.458 37.4419 111.801 36.9567C111.001 36.3651 110.481 35.3387 109.674 34.0977C109.311 33.5378 108.349 33.0732 108.349 33.0732C108.349 33.0732 109.787 32.8119 110.688 33.3158C111.589 33.8196 112.56 34.1928 113.236 34.0715C113.986 33.9372 114.644 32.8566 114.644 32.8566C114.644 32.8566 113.605 33.4314 112.911 33.0003C112.218 32.5674 110.794 31.2013 109.183 31.2723C107.573 31.345 108.438 30.0275 109.857 29.8353C110.454 29.7551 111.443 30.6994 111.443 30.6994C111.443 30.6994 111.078 28.8369 109.183 29.1205C103.964 29.9006 100.159 26.8942 100.159 26.8942L95.5376 29.8334Z" fill="#49271F"/>
<path d="M91.263 28.6691C91.1029 28.447 92.1729 25.8306 94.6023 25.5768C97.03 25.323 98.866 26.2729 100.159 26.8943C101.907 27.7341 102.928 27.5699 103.342 27.7677C103.8 27.9879 104.034 28.9696 104.034 28.9696C104.034 28.9696 103.468 28.3463 102.948 28.6001C102.428 28.8539 101.279 29.7683 100.26 29.4753C99.2401 29.1804 99.5673 30.3878 100.443 30.7517C100.812 30.9048 101.608 30.274 101.608 30.274C101.608 30.274 101.053 31.7502 99.8875 31.2407C96.6758 29.8411 95.9924 31.1138 95.9924 31.1138L91.263 28.6691Z" fill="#49271F"/>
<path d="M94.3347 32.5394C94.0218 32.7558 94.1819 37.3429 97.782 38.2779C101.382 39.2129 105.202 38.6381 106.714 40.1124C108.228 41.5867 109.133 42.9116 111.051 42.7381C112.334 42.6242 113.24 42.0196 113.24 42.0196C113.24 42.0196 111.012 42.2884 110.347 41.8032C109.53 41.2116 109 40.1852 108.18 38.9441C107.809 38.3843 106.829 37.9196 106.829 37.9196C106.829 37.9196 108.295 37.6583 109.212 38.1622C110.129 38.6661 111.116 39.0393 111.807 38.918C112.569 38.7836 113.24 37.7012 113.24 37.7012C113.24 37.7012 112.181 38.2779 111.474 37.8468C110.769 37.4138 109.32 36.0478 107.68 36.1187C106.04 36.1915 106.921 34.874 108.365 34.6818C108.974 34.5996 109.98 35.544 109.98 35.544C109.98 35.544 109.609 33.6833 107.68 33.967C102.366 34.7471 101.738 33.0862 101.738 33.0862L94.3347 32.5394Z" fill="#49271F"/>
<path d="M95.0037 33.0228C94.9731 33.8476 95.2986 34.5288 95.7302 34.5456C96.1618 34.5624 96.5377 33.9073 96.5664 33.0843C96.597 32.2595 96.2715 31.5765 95.8399 31.5597C95.4084 31.5429 95.0343 32.1979 95.0037 33.0228Z" fill="#A86C50"/>
<path d="M89.3018 27.6238H101.273C101.42 27.6238 101.539 27.4917 101.539 27.3296C101.539 27.1675 101.42 27.0354 101.273 27.0354H89.3018C89.1551 27.0354 89.0356 27.1675 89.0356 27.3296C89.0356 27.4917 89.1551 27.6238 89.3018 27.6238Z" fill="#E8A900"/>
<path d="M99.537 24.8641L100.135 26.8612H91.1683L91.766 23.5327L92.3638 24.1984L93.5593 26.1955L95.9504 23.5327L97.1459 26.1955L99.537 24.8641Z" stroke="#E8A900"/>
<path d="M73.9146 75.0914C81.8496 82.7456 74.6099 91.4234 85.7625 98.4458" stroke="#FF0000" stroke-width="3"/>
<path d="M56.5625 92.9779C57.5468 106.097 73.717 109.004 70.9369 121.867" stroke="#FF0000" stroke-width="3"/>
<path d="M61.2414 89.8173C62.2095 102.146 73.8736 103.542 75.5311 118.945" stroke="#FF0000" stroke-width="3"/>
<path d="M64.6027 87.8645C79.1128 97.1279 72.7052 107.675 79.2472 116.828" stroke="#FF0000" stroke-width="3"/>
<path d="M67.9152 83.5389C70.7413 94.8089 84.1588 98.7881 82.5597 112.503" stroke="#FF0000" stroke-width="3"/>
<path d="M74.1976 75.5918C82.1326 83.246 71.1155 91.242 82.2681 98.2643" stroke="white" stroke-width="3"/>
<path d="M56.2923 92.9034C57.2766 106.023 70.2225 108.823 67.4424 121.686" stroke="white" stroke-width="3"/>
<path d="M60.8865 89.9813C61.8546 102.31 70.379 103.36 72.0365 118.764" stroke="white" stroke-width="3"/>
<path d="M64.6024 87.8646C79.1124 97.1279 69.2104 107.494 75.7524 116.647" stroke="white" stroke-width="3"/>
<path d="M67.9155 83.5389C70.7416 94.8089 80.6647 98.6066 79.0656 112.321" stroke="white" stroke-width="3"/>
<path d="M57.877 104.043L80.2938 68.5178L54.9845 86.6289C52.7222 97.6978 52.9895 101.976 57.877 104.043Z" fill="#FF0000" stroke="#FF0000"/>
<path d="M139.711 103.322C129.563 101.835 121.297 100.248 113.525 71.5496C124.606 67.528 133.275 65.2951 141.012 70.7991C150.921 78.9772 147.256 95.0665 139.711 103.322Z" fill="#FF0000" stroke="#FF0000" stroke-width="0.5"/>
<path d="M137.935 85.3094L136.16 88.3116L134.384 85.3094L136.16 80.8062L137.935 85.3094Z" fill="white" stroke="white" stroke-width="0.5"/>
<path d="M137.935 91.5639L136.16 88.5617L134.384 91.5639L136.16 96.0671L137.935 91.5639Z" fill="white" stroke="white" stroke-width="0.5"/>
<path d="M133.446 86.6709L136.109 88.6723L133.446 90.6738L129.451 88.6723L133.446 86.6709Z" fill="white" stroke="white" stroke-width="0.5"/>
<path d="M138.823 86.5603L136.16 88.5617L138.823 90.5632L142.817 88.5617L138.823 86.5603Z" fill="white" stroke="white" stroke-width="0.5"/>
<path d="M98.6913 39.5442C98.6913 39.5442 100.343 43.5103 101.367 44.9606C102.392 46.4109 98.919 57.6264 99.1945 59.0749C99.47 60.5251 102.77 66.4763 106.482 68.3843C110.195 70.2905 133.599 66.8138 133.599 66.8138C133.599 66.8138 151.135 76.2362 149.279 79.0726C147.423 81.909 146.413 84.1636 143.534 84.3046C140.654 84.4456 110.884 92.17 103.411 88.8297C95.9393 85.4894 91.3854 73.6156 89.2933 61.8985C87.2012 50.1814 88.1697 53.6584 88.3198 51.1406C88.47 48.6229 90.5885 44.501 91.3854 43.5103C92.1823 42.5197 98.6913 39.5442 98.6913 39.5442Z" fill="#D31818"/>
</svg>
