<svg width="308" height="360" viewBox="0 0 308 360" fill="none" xmlns="http://www.w3.org/2000/svg">
<path d="M134.479 45.5053C134.479 45.5053 130.304 50.8879 127.195 57.1598C124.087 63.4286 122.406 70.5986 124.049 73.5482C125.695 76.4985 128.893 76.314 131.093 72.8018C133.294 69.2913 139.71 49.5694 139.766 48.9241C139.822 48.2774 134.479 45.5053 134.479 45.5053Z" fill="#FF0000"/>
<path d="M109.909 99.0063C107.149 96.2841 108.656 91.4337 111.731 86.4567C114.809 81.4789 121.995 69.3724 124.422 67.4056C126.85 65.4388 131.829 66.2336 131.125 70.9885C130.423 75.741 124.894 90.2393 122.254 94.323C119.611 98.4078 115.915 104.92 109.909 99.0063Z" fill="#FF0000"/>
<path d="M137.628 300.651C137.628 300.651 134.54 303.597 134.624 304.533C134.708 305.472 139.724 318.765 141.467 319.517C143.209 320.269 144.006 313.426 144.897 311.671C145.786 309.913 146.281 306.073 146.281 306.073L137.628 300.651Z" fill="#303030"/>
<path d="M90.9645 201.635C90.9645 201.635 93.6478 189.967 83.5421 184.992C73.6883 180.14 56.5647 193.219 37.4189 186.644C30.2697 184.188 24.819 167.508 24.819 167.508C24.819 167.508 22.1469 172.413 22.5785 177.903C23.0101 183.392 24.5427 185.987 24.5427 185.987C24.6312 186.632 21.3793 184.439 19.8228 181.946C18.8987 180.465 18.1479 176.706 18.1479 176.706C18.1479 176.706 14.9014 185.293 21.8255 194.008C22.2549 194.548 16.3573 195.14 16.3573 195.14C16.3573 195.14 18.6205 201.15 24.036 205.951C28.898 210.259 35.3709 213.165 35.3709 213.165L25.8247 216.511C25.8247 216.511 35.0312 219.454 37.869 219.713C39.8433 219.891 45.0722 218.266 45.0722 218.266L40.414 223.546C40.414 223.546 45.6902 226.312 59.4715 220.042C73.2534 213.768 90.9645 201.635 90.9645 201.635Z" fill="#330E01"/>
<path d="M129.826 177.977C142.13 177.007 152.997 191.702 156.172 200.934C159.344 210.163 154.723 224.803 151.512 229.46C142.285 242.841 130.895 254.799 130.986 256.065C131.139 258.227 145.466 294.785 145.648 299.163C145.726 301.06 146.119 306.351 146.165 307.318C146.211 308.29 136.711 306.957 136.711 306.957C136.711 306.957 135.193 299.845 135.474 297.531C136.702 287.468 116.63 260.812 115.894 258.115C115.157 255.415 121.364 244.293 120.933 239.514C120.504 234.738 107.333 219.481 105.133 210.644C102.935 201.814 106.07 179.845 129.826 177.977Z" fill="#6F2200"/>
<path d="M212.642 76.4467C212.736 77.8062 201.266 87.2516 191.828 78.993C182.391 70.7346 176.188 58.5868 169.592 57.4511C162.994 56.3152 157.977 56.5898 154.578 50.7388C152.307 46.828 151.975 42.9346 151.975 42.9346C151.975 42.9346 155.752 49.8723 158.256 50.7334C161.321 51.7829 164.868 51.0801 169.518 50.7443C171.618 50.5916 174.697 52.3858 174.697 52.3858C174.697 52.3858 172.418 47.64 169.367 46.1073C166.317 44.5748 163.445 42.5617 162.37 40.3314C161.177 37.8634 162.473 33.6155 162.473 33.6155C162.473 33.6155 163.18 37.8809 165.633 38.9657C168.088 40.0471 174.295 41.234 177.384 46.0693C180.471 50.9079 181.922 45.5459 179.517 41.0113C178.503 39.0972 174.205 38.2639 174.205 38.2639C174.205 38.2639 179.47 35.3045 182.619 41.4232C191.293 58.2786 191.937 55.0195 196.584 56.4842C211.598 61.2195 212.642 76.4467 212.642 76.4467Z" fill="#330E01"/>
<path d="M242.741 141.596C244.983 141.785 250.725 134.35 250.755 133.302C250.78 132.442 245.715 131.504 242.316 130.684C240.423 134.132 240.897 134.064 238.046 136.618C239.778 137.836 241.111 141.458 242.741 141.596Z" fill="#303030"/>
<path d="M181.732 73.5123C182.502 74.5588 177.946 89.7523 166.032 89.1189C154.118 88.4855 142.863 82.5657 136.898 85.922C130.931 89.2747 126.973 92.7584 121.217 90.1762C117.369 88.4508 115.117 85.4789 115.117 85.4789C115.117 85.4789 121.736 88.7079 124.219 87.7819C127.257 86.6529 129.795 83.7731 133.422 80.4733C135.06 78.9842 138.487 78.4549 138.487 78.4549C138.487 78.4549 134.209 76.0456 130.936 76.773C127.665 77.5006 124.295 77.7158 122.28 76.5881C120.049 75.3399 118.942 71.0183 118.942 71.0183C118.942 71.0183 121.692 74.0557 124.249 73.3461C126.805 72.6398 132.479 69.5797 137.464 71.537C142.451 73.4912 140.905 68.157 136.63 66.0014C134.827 65.0956 130.893 67.2043 130.893 67.2043C130.893 67.2043 133.684 61.3588 139.372 64.3237C155.043 72.4964 158.452 67.5913 158.452 67.5913L181.732 73.5123Z" fill="#330E01"/>
<path d="M199.21 75.3263C199.638 76.5974 190.985 89.3131 179.88 84.3752C168.775 79.4373 159.803 69.7401 153.194 70.7412C146.585 71.7422 141.841 73.5961 137.125 69.0592C133.973 66.0217 132.688 62.3913 132.688 62.3913C132.688 62.3913 138.036 67.8568 140.652 67.8888C143.852 67.9232 147.079 66.1222 151.456 64.323C153.432 63.513 156.832 64.2561 156.832 64.2561C156.832 64.2561 153.464 60.4225 150.157 59.9201C146.851 59.4143 143.597 58.3929 142.009 56.5942C140.252 54.6019 140.438 50.1089 140.438 50.1089C140.438 50.1089 142.177 53.9838 144.8 54.2455C147.423 54.5038 153.673 53.675 157.838 57.3389C162.002 61.0063 162.061 55.3981 158.624 51.8029C157.177 50.2879 152.846 50.8529 152.846 50.8529C152.846 50.8529 157.16 46.338 161.703 51.2154C174.215 64.6481 178.843 61.2516 178.843 61.2516L199.21 75.3263Z" fill="#330E01"/>
<path d="M255.766 164.127C258.006 164.881 266.069 157.064 265.093 155.571C264.126 155.702 261.728 153.462 258.397 153.125C255.417 156.279 255.886 154.504 253.954 157.882C254.675 158.121 253.943 162.041 255.766 164.127Z" fill="#191919"/>
<path d="M222.243 121.921C216.144 119.647 211.823 115.301 208.62 117.572C205.44 119.824 199.88 122.664 195.506 125.923C191.128 129.18 178.587 134.014 178.587 134.014L187.705 151.77C187.705 151.77 196.663 151.137 200.449 144.693C204.232 138.25 209.528 128.708 210.677 128.488C211.825 128.27 230.298 133.88 230.298 133.88C230.298 133.88 230.782 133.947 231.068 134.008C233.638 134.553 236.854 137.079 240.42 137.452C238.708 133.402 244.985 133.668 244.436 132.367C243.924 131.16 228.958 124.424 222.243 121.921Z" fill="#6F2200"/>
<path d="M101.404 330.238C102.748 332.914 110.071 333.921 111.754 334.075C112.987 334.19 111.459 326.716 110.555 322.72C107.887 322.275 104.883 321.774 102.82 321.43C102.796 321.499 100.428 328.295 101.404 330.238Z" fill="#303030"/>
<path d="M211.092 55.4722C205.938 55.3476 180.453 68.8006 171.372 73.2964C162.29 77.796 129.086 98.6647 126.947 104.548C124.809 110.431 118.638 133.993 114.064 146.38C111.693 152.795 92.3086 176.521 87.9952 181.069C83.6831 185.62 79.6864 200.597 79.4058 207.303C79.1267 214.009 94.1093 252.698 94.5826 258.427C95.0558 264.153 90.1307 276.366 91.5369 283.059C92.9428 289.757 101.841 324.947 101.841 324.947L104.085 325.847L104.086 325.858C106.024 324.982 108.845 323.708 111.352 322.575C110.433 321.508 109.776 320.778 109.776 320.778C109.776 320.778 102.164 281.592 103.443 279.819C104.721 278.043 112.051 262.677 113.838 254.016C115.627 245.359 123.798 213.464 123.798 213.464C123.798 213.464 149.045 200.402 159.353 188.072C169.66 175.739 191.03 150.479 194.291 137.606C197.551 124.734 187.696 109.24 190.343 106.389C192.99 103.534 197.98 98.6846 199.513 97.138C202.767 93.8591 209.048 91.194 217.8 84.1955C225.479 78.0559 216.245 55.6007 211.092 55.4722Z" fill="#97380E"/>
<path d="M198.485 135.335C203.64 133.171 228.678 137.168 230.848 138.075C235.033 138.485 236.926 140.309 239.663 142.205L258.17 152.723L254.975 159.382C243.705 156.172 237.818 156.519 230.719 148.143C225.848 150.554 220.996 151.054 217.397 151.783C213.798 152.512 186.95 153.529 178.172 147.897C173.677 143.8 170.386 135.782 170.386 135.782L193.27 130.476C193.27 130.476 194.422 133.094 198.485 135.335Z" fill="#97380E"/>
<path d="M190.073 63.623C191.149 69.3805 200.394 84.5702 206.433 86.7025C212.474 88.8375 221.128 84.1088 225.507 82.6882C229.886 81.2664 233.237 79.4359 235.574 80.1001C237.91 80.7642 238.719 81.8752 239.893 81.8138C241.069 81.7552 246.976 76.199 247.491 74.5609C248.003 72.9209 246.812 70.0764 246.916 68.2751C247.017 66.4715 246.106 63.477 244.872 62.9895C243.637 62.4992 239.95 60.246 237.318 60.5172C234.687 60.7883 224.784 58.4395 221.343 57.5997C217.905 56.7617 209.851 51.4591 204.37 52.7067C198.889 53.9546 188.692 56.2281 190.073 63.623Z" fill="#97380E"/>
<path d="M195.784 59.2153C194.977 61.0045 190.772 59.3327 189.405 56.6852C188.037 54.0339 186.515 48.5587 187.146 46.1758C187.779 43.7958 189.234 47.2675 191.255 48.2027C193.276 49.1379 198.449 53.2964 195.784 59.2153Z" fill="#6F2200"/>
<path d="M114.373 139.199C114.373 139.199 129.223 145.71 141.826 154.947C158.364 167.07 168.329 177.855 168.329 177.855L173.468 171.365C173.468 171.365 163.822 157.852 145.744 145.504C131.852 136.013 118.409 130.477 118.409 130.477L114.373 139.199Z" fill="black"/>
<path d="M114.373 139.199C114.373 139.199 129.223 145.71 141.826 154.947C158.364 167.07 168.329 177.855 168.329 177.855L173.468 171.365C173.468 171.365 163.822 157.852 145.744 145.504C131.852 136.013 118.409 130.477 118.409 130.477L114.373 139.199Z" fill="black"/>
<path d="M132.096 176.779C132.096 176.779 136.154 182.867 141.425 188.178C146.698 193.492 150.152 195.59 151.757 194.131C153.363 192.675 155.378 189.941 157.362 190.097C159.346 190.249 161.581 190.659 162.361 189.292C163.143 187.927 153.865 179.502 147.549 174.367C141.233 169.232 138.213 169.058 138.213 169.058L132.096 176.779Z" fill="#191919"/>
<path d="M121.05 118.024C121.05 118.024 127.001 122.286 124.948 126.038C123.471 128.735 121.087 127.4 120.664 128.171C120.241 128.943 120.044 131.245 119.342 131.918C118.641 132.594 115.65 134.515 115.212 135.818C114.773 137.117 111.088 148.328 112.635 149.131C114.183 149.937 123.806 148.702 127.182 141.69C130.558 134.675 127.847 130.185 128.604 128.682C129.358 127.18 134.162 125.07 132.733 121.749C132.08 120.235 124.353 112.559 121.05 118.024Z" fill="#191919"/>
<path d="M111.191 133.39C111.191 133.39 110.648 147.631 107.173 152.069C100.644 160.404 97.2433 159.765 97.2656 163.612C97.2765 165.509 103.732 167.188 107.057 162.858C110.384 158.532 121.049 136.734 121.049 136.734C121.049 136.734 118.972 138.226 115.645 136.397C112.781 134.822 111.191 133.39 111.191 133.39Z" fill="#303030"/>
<path d="M125.907 180.493C129.355 178.793 135.478 172.934 144.977 158.085C148.312 152.875 155.794 141.458 160.623 127.296C162.939 120.505 124.815 105.96 124.449 106.848C124.082 107.733 125.753 116.085 117.784 132.235C107.398 153.278 98.8903 163.199 98.8903 163.199C98.8903 163.199 122.458 182.19 125.907 180.493Z" fill="#ABABAB"/>
<path d="M236.198 80.1414C235.966 80.2603 212.61 91.8617 199.734 96.5268C177.787 104.476 167.188 107.381 167.083 107.408L166.734 105.693C166.837 105.663 177.392 102.775 199.274 94.8454C212.074 90.2104 235.353 78.6442 235.587 78.5286L236.198 80.1414Z" fill="#191919"/>
<path d="M232.974 75.9004C232.974 75.9004 231.226 73.1093 231.611 67.8514C231.942 63.3195 233.417 61.1197 233.417 61.1197L237.349 61.5647C237.349 61.5647 235.83 64.3485 235.687 67.6179C235.543 70.8873 237.067 74.8446 237.067 74.8446L232.974 75.9004Z" fill="#191919"/>
<path d="M233.311 74.7861L207.324 73.4163L207.124 75.399L232.852 76.4805L233.311 74.7861Z" fill="#191919"/>
<path d="M206.501 92.6688C206.296 92.5865 202.312 90.3583 197.682 85.4492C193.661 81.1868 192.475 77.1106 191.466 73.2006C190.456 69.2879 190.497 60.493 190.497 60.493L187.862 61.0972C187.862 61.0972 187.449 73.7122 191.816 81.6773C196.183 89.6427 203.232 93.7618 203.232 93.7618L206.501 92.6688Z" fill="#191919"/>
<path d="M207.836 75.476C207.564 75.6818 203.054 74.2382 199.226 71.1358C194.685 67.4515 190.196 60.454 190.196 60.454L191.916 59.4674C191.916 59.4674 196.456 67.0591 200.71 70.3272C204.415 73.1727 207.423 73.5659 207.423 73.5659L207.836 75.476Z" fill="#191919"/>
<path d="M235.66 73.899C235.233 73.8279 234.799 73.9031 234.406 74.1156C233.882 74.3974 233.486 74.8942 233.293 75.5164C233.099 76.1348 233.131 76.8016 233.384 77.3959C233.885 78.5771 235.239 79.1267 236.292 78.5601C236.817 78.2748 237.213 77.778 237.405 77.1592C237.599 76.5408 237.566 75.8705 237.315 75.2764C237 74.5342 236.381 74.0193 235.66 73.899ZM234.846 80.2642C233.684 80.0703 232.688 79.2428 232.181 78.0466C231.774 77.0887 231.722 76.0106 232.033 75.0107C232.345 74.0108 232.982 73.2096 233.83 72.753C235.523 71.843 237.709 72.7212 238.518 74.6256C238.925 75.5836 238.977 76.6617 238.665 77.6616C238.354 78.6614 237.717 79.4627 236.868 79.9191C236.237 80.2607 235.536 80.3794 234.846 80.2642Z" fill="#E8A900"/>
<path d="M111.23 100.229C111.23 100.229 111.17 96.8229 111.395 94.7621C111.96 89.6027 113.315 83.7448 113.315 83.7448L102.029 77.7051C102.029 77.7051 104.208 84.1912 100.632 91.5698C103.158 95.3914 106.839 99.5182 111.23 100.229Z" fill="#BA7454"/>
<path d="M165.732 104.669C165.732 104.669 170.383 101.004 171.442 100.545C172.501 100.087 176.917 99.8279 176.917 99.8279C176.917 99.8279 175.957 101.816 176.329 102.885C176.698 103.953 177.879 106.606 177.879 106.606C177.879 106.606 174.499 108.704 172.74 109.07C170.98 109.436 166.518 111.391 166.518 111.391L165.732 104.669Z" fill="#D08562"/>
<path d="M110.234 64.8072C107.16 63.7356 99.9798 65.0956 98.8301 71.4609C97.6804 77.8263 100.969 81.7369 103.843 83.708C106.084 85.2462 107.87 85.8023 110.921 85.7271C111.544 85.7116 116.578 84.1191 117.361 83.2636C117.897 82.6772 116.209 77.1779 116.404 77.1011C116.598 77.0211 116.984 76.431 116.836 75.9922C116.618 75.353 114.461 71.9083 114.429 71.4395C114.399 70.9701 113.757 66.0357 110.234 64.8072Z" fill="#D08562"/>
<path d="M111.885 64.3992C111.885 64.3992 107.401 64.047 104.874 70.9599C104.33 72.449 107.852 75.6438 107.766 76.1396C107.675 76.6747 102.998 74.9754 103.32 75.3806C106.602 79.508 106.307 82.9068 105.93 83.1483C104.786 83.8708 98.3262 79.0334 97.8463 72.5729C97.3666 66.1122 102.352 62.7628 103.723 62.387C105.093 62.0113 108.989 60.2998 111.885 64.3992Z" fill="#8D3B26"/>
<path d="M141.233 144.393C138.166 145.834 137.722 165.056 141.558 174.404C145.396 183.755 151.823 192.083 152.438 193.711C153.053 195.336 153.518 199.515 155.132 199.73C156.749 199.947 161.385 194.246 160.626 193.034C159.869 191.826 159.674 192.588 158.2 189.375C156.727 186.164 151.578 168.922 150.541 164.9C149.504 160.882 146.221 142.046 141.233 144.393Z" fill="#DEDEDE"/>
<path d="M156.923 189.618C155.323 189.442 154.926 185.459 154.34 183.915C153.754 182.371 147.499 174.537 143.832 165.676C142.246 161.844 141.941 157.577 142.351 153.852C135.748 155.065 125.276 156.508 120.243 156.561C116.209 156.602 110.672 157.423 107.384 154.81L106.711 154.406C101.905 150.592 102.071 145.264 103.25 139.066C102.832 138.856 102.392 138.711 101.988 138.47C100.356 145.979 99.2429 152.438 104.823 156.866L105.496 157.273C108.784 159.885 114.322 159.065 118.354 159.02C123.388 158.968 133.86 157.525 140.463 156.312C140.053 160.037 140.358 164.303 141.944 168.136C145.612 177 151.865 184.83 152.452 186.378C153.039 187.922 153.435 191.905 155.035 192.078C156.175 192.203 158.848 189.449 160.048 187.428C158.887 188.678 157.617 189.692 156.923 189.618Z" fill="#C2C2C2"/>
<path d="M128.217 140.448L128.212 140.447C124.382 139.559 120.549 138.935 118.471 138.814C117.322 138.749 115.845 138.701 114.235 138.69L114.219 138.031C112.547 138.401 110.849 138.655 109.15 138.793L108.341 138.84C106.334 138.953 104.343 138.815 102.388 138.53C102.422 139.664 102.98 140.738 104.836 141.06C109.233 141.826 129.029 140.688 129.172 140.68L128.217 140.448Z" fill="#C2C2C2"/>
<path d="M99.0954 148.068C98.8622 144.634 101.89 141.574 104.979 139.845C108.068 138.119 118.278 138.091 123.025 138.369C127.772 138.644 141.697 141.544 143.796 144.25C145.898 146.96 146.123 152.693 140.287 153.898C134.452 155.108 120.91 156.904 114.952 156.843C108.995 156.785 99.7962 158.424 99.0954 148.068Z" fill="#DEDEDE"/>
<path d="M139.817 168.417C139.817 168.417 140.892 174.639 143.383 179.546C145.876 184.454 151.761 191.993 151.949 193.222C152.137 194.452 153.614 199.312 154.252 200.181C154.891 201.05 156.79 202.116 157.045 202.428C157.301 202.743 158.246 204.054 158.246 204.054L163.976 200.484L163.635 198.856C163.635 198.856 169.222 196.777 172.417 194.035C175.611 191.292 177.77 188.863 177.643 187.928C177.518 186.993 176.319 186.055 173.351 187.928C170.382 189.797 162.613 190.198 160.697 190.184C158.781 190.17 151.362 166.04 151.362 166.04C151.362 166.04 148.485 162.393 145.749 162.955C142.579 163.604 139.817 168.417 139.817 168.417Z" fill="black"/>
<path d="M166.587 104.157C166.587 104.157 160.317 103.353 154.018 104.053C147.721 104.752 136.114 108.16 134.933 111.382C133.753 114.608 135.72 117.483 139.511 117.519C143.3 117.556 166.661 111.363 167.158 111.045C167.655 110.726 166.587 104.157 166.587 104.157Z" fill="#F30000"/>
<path d="M94.7925 98.6616C93.9256 101.327 95.466 113.228 94.9237 108.318C94.8975 108.082 95.7525 115.775 95.8396 117.257C95.9166 118.578 96.5829 148.907 98.8706 149.289C101.158 149.67 97.6309 149.057 100.182 148.178C106.399 144.721 117.405 144.394 120.328 136.917C121.726 134.497 119.617 124.344 119.174 121.868C118.269 116.811 119.232 108.016 118.429 101.626C117.626 95.2382 114.118 91.1139 110.26 90.046C106.404 88.9773 97.2413 91.1078 94.7925 98.6616Z" fill="#F30000"/>
<path d="M95.9841 132.856L119.226 124.769" stroke="black"/>
<path d="M108.114 105.024C109.446 101.154 113.968 101.148 119.119 102.782C124.271 104.418 136.703 108.077 139.143 110.023C141.584 111.968 142.59 117.573 138.416 118.407C134.244 119.243 120.385 118.161 116.12 116.695C111.853 115.227 105.223 113.44 108.114 105.024Z" fill="#F30000"/>
<path d="M100.056 137.523L99.7511 130.825L102.206 129.906L103.35 130.096L103.152 140.698L101.841 141.808L101.536 135.111L100.056 137.523Z" fill="white" stroke="white"/>
<path d="M134.872 39.6451L134.033 46.1517L139.417 49.7086L144.19 39.8704L138.806 36.3136L134.872 39.6451Z" fill="#D08562"/>
<path d="M106.433 67.315L118.346 62.3428L111.393 63.2057L106.433 67.315Z" fill="#030303"/>
<path d="M106.433 67.315L118.346 62.3428L111.393 63.2057L106.433 67.315ZM106.433 67.315L102.733 69.3962L99.0332 71.4773L98.5393 70.0621L111.201 59.8368" stroke="black"/>
<path d="M110.312 56.1363C110.668 57.1556 110.377 60.434 110.377 60.434L98.7526 72.3724L97.8225 72.7926L97.5854 72.113L96.6096 71.3738L95.561 71.4542L106.382 55.1583L107.841 52.1393C107.841 52.1393 109.957 55.117 110.312 56.1363Z" fill="#FF0000" stroke="#FF0000"/>
<path d="M111.876 62.6037L110.718 59.2868L110.494 59.7722L97.7203 71.6865L98.9794 73.0376L111.876 62.6037Z" fill="#2C2E2A" stroke="black"/>
<path d="M110.325 60.1469L110.004 59.2255L109.405 59.496L97.4211 71.8217L110.325 60.1469Z" fill="#B70303" stroke="#B70303"/>
<rect width="1.33669" height="2.07688" transform="matrix(0.895697 -0.404643 0.334442 0.95823 108.363 56.5108)" fill="#B18138"/>
<path d="M110.998 61.0805L98.2511 72.2147L111.229 61.7439L110.998 61.0805Z" stroke="#B18138"/>
<g filter="url(#filter0_i_408_473)">
<path d="M137.167 38.0652L106.841 12.3699" stroke="black" stroke-width="0.5"/>
</g>
<path d="M142.743 42.2322L146.92 45.6983" stroke="black"/>
<path d="M106.833 12.3819C117.869 25.1495 124.425 30.0507 136.359 37.2213" stroke="#404040" stroke-width="0.5"/>
<path d="M112.057 17.2281L128.848 31.9934" stroke="#404040" stroke-width="0.5"/>
<path d="M190.486 123.255C180.326 135.747 192.887 155.966 177.307 168.019" stroke="#FF0000" stroke-width="3"/>
<path d="M180.103 127.994C183.077 147.474 157.956 154.23 166.924 172.757" stroke="#FF0000" stroke-width="3"/>
<path d="M168.472 123C148.246 138.868 162.27 153.428 154.883 167.915" stroke="#FF0000" stroke-width="3"/>
<path d="M158.472 115.823C157.826 132.86 137.527 140.776 144.883 160.738" stroke="#FF0000" stroke-width="3"/>
<path d="M191.952 121.777C181.792 134.268 199.527 153.837 183.947 165.89" stroke="white" stroke-width="3"/>
<path d="M180.513 127.842C183.487 147.323 163.54 153.428 172.508 171.955" stroke="white" stroke-width="3"/>
<path d="M169.006 122.387C171.731 140.7 158.32 143.552 161 166.5" stroke="white" stroke-width="3"/>
<path d="M158.472 115.823C157.826 132.86 143.111 139.974 150.466 159.936" stroke="white" stroke-width="3"/>
<path d="M190 108L142.5 116.5L195 132C194.659 122.698 193.723 118.081 190 108Z" fill="#FF0000" stroke="#FF0000" stroke-width="0.5"/>
<path d="M114.5 238.5C110.381 257.485 131.092 278.631 121.665 298.858" stroke="#FF0000" stroke-width="3"/>
<path d="M106.776 247.859C118.114 271.248 97.3629 288.001 113.941 308.216" stroke="#FF0000" stroke-width="3"/>
<path d="M96.8749 245.79C107.466 267.8 91.8159 278.673 104.396 306.498" stroke="#FF0000" stroke-width="3"/>
<path d="M90.072 244.853C77.9309 271.388 97.5444 284.97 96.9162 305.535" stroke="#FF0000" stroke-width="3"/>
<path d="M81.0293 239.779C87.8809 261.307 72.1884 277.917 87.8735 300.461" stroke="#FF0000" stroke-width="3"/>
<path d="M115.237 236.166C111.118 255.151 136.427 273.774 127 294" stroke="white" stroke-width="3"/>
<path d="M107.097 247.534C118.435 270.923 102.282 285.152 118.86 305.368" stroke="white" stroke-width="3"/>
<path d="M97.5518 245.816C108.143 267.826 96.7351 275.825 109.315 303.65" stroke="white" stroke-width="3"/>
<path d="M90.072 244.852C77.9309 271.388 102.464 282.121 101.835 302.687" stroke="white" stroke-width="3"/>
<path d="M81.0292 239.779C87.8809 261.307 77.1075 275.069 92.7926 297.613" stroke="white" stroke-width="3"/>
<path d="M109.518 248.639C122.078 231.682 131.778 217.341 102.2 165.661C80.4517 176.253 78.3616 207.436 75 226.5C72.2997 252.502 86.862 248.104 109.518 248.639Z" fill="#FF0000" stroke="#FF0000" stroke-width="0.5"/>
<path d="M86.4649 220.749L93.3028 222.362L91.6004 215.546L82.6274 211.825L86.4649 220.749Z" fill="white" stroke="white" stroke-width="0.5"/>
<path d="M95.361 229.53L93.6586 222.713L100.496 224.327L104.334 233.251L95.361 229.53Z" fill="white" stroke="white" stroke-width="0.5"/>
<path d="M94.895 216.081L93.8902 222.793L100.589 221.701L103.519 213.038L94.895 216.081Z" fill="white" stroke="white" stroke-width="0.5"/>
<path d="M86.9602 223.805L93.6586 222.713L92.6538 229.425L84.0296 232.468L86.9602 223.805Z" fill="white" stroke="white" stroke-width="0.5"/>
<defs>
<filter id="filter0_i_408_473" x="106.699" y="12.1736" width="30.6105" height="26.0878" filterUnits="userSpaceOnUse" color-interpolation-filters="sRGB">
<feFlood flood-opacity="0" result="BackgroundImageFix"/>
<feBlend mode="normal" in="SourceGraphic" in2="BackgroundImageFix" result="shape"/>
<feColorMatrix in="SourceAlpha" type="matrix" values="0 0 0 0 0 0 0 0 0 0 0 0 0 0 0 0 0 0 127 0" result="hardAlpha"/>
<feOffset dx="131" dy="-44"/>
<feGaussianBlur stdDeviation="2"/>
<feComposite in2="hardAlpha" operator="arithmetic" k2="-1" k3="1"/>
<feColorMatrix type="matrix" values="0 0 0 0 1 0 0 0 0 1 0 0 0 0 1 0 0 0 0.25 0"/>
<feBlend mode="normal" in2="shape" result="effect1_innerShadow_408_473"/>
</filter>
</defs>
</svg>
