<svg width="304" height="358" viewBox="0 0 304 358" fill="none" xmlns="http://www.w3.org/2000/svg">
<path d="M172.822 44.8065C172.822 44.8065 176.93 50.2537 179.962 56.5734C182.994 62.89 184.588 70.0855 182.911 73.0091C181.232 75.9335 178.037 75.6992 175.88 72.153C173.723 68.6086 167.546 48.7887 167.498 48.1426C167.449 47.4951 172.822 44.8065 172.822 44.8065Z" fill="#0001C8"/>
<path d="M196.739 98.6851C199.53 96.0062 198.082 91.1328 195.068 86.1083C192.051 81.083 185.014 68.8658 182.611 66.8614C180.209 64.857 175.223 65.574 175.871 70.3394C176.515 75.1024 181.868 89.6854 184.458 93.8098C187.05 97.9353 190.667 104.504 196.739 98.6851Z" fill="#0001C8"/>
<path d="M166.636 299.876C166.636 299.876 169.687 302.871 169.592 303.805C169.497 304.743 164.326 317.957 162.575 318.681C160.825 319.405 160.11 312.551 159.241 310.782C158.373 309.011 157.924 305.163 157.924 305.163L166.636 299.876Z" fill="#303030"/>
<path d="M214.449 201.599C214.449 201.599 211.906 189.89 222.065 185.073C231.97 180.375 248.927 193.719 268.139 187.443C275.313 185.099 280.959 168.506 280.959 168.506C280.959 168.506 283.571 173.452 283.074 178.934C282.577 184.417 281.015 186.987 281.015 186.987C280.919 187.631 284.195 185.489 285.78 183.02C286.721 181.554 287.516 177.807 287.516 177.807C287.516 177.807 290.658 186.444 283.635 195.05C283.199 195.583 289.086 196.267 289.086 196.267C289.086 196.267 286.753 202.241 281.284 206.957C276.373 211.189 269.87 213.993 269.87 213.993L279.37 217.488C279.37 217.488 270.134 220.287 267.295 220.502C265.32 220.649 260.114 218.943 260.114 218.943L264.706 224.295C264.706 224.295 259.401 226.979 245.703 220.494C232.004 214.007 214.449 201.599 214.449 201.599Z" fill="#330E01"/>
<path d="M175.893 177.337C163.609 176.175 152.574 190.699 149.291 199.881C146.011 209.059 150.455 223.77 153.608 228.476C162.67 242 173.911 254.134 173.805 255.398C173.626 257.558 158.872 293.889 158.638 298.264C158.538 300.16 158.083 305.443 158.025 306.41C157.967 307.381 167.477 306.196 167.477 306.196C167.477 306.196 169.079 299.109 168.826 296.791C167.718 286.709 188.094 260.369 188.863 257.684C189.631 254.995 183.561 243.778 184.048 239.006C184.534 234.238 197.878 219.187 200.182 210.386C202.484 201.591 199.612 179.575 175.893 177.337Z" fill="#371100"/>
<path d="M94.3399 74.5263C94.2301 75.8842 105.581 85.5074 115.111 77.3968C124.64 69.2864 130.984 57.2365 137.589 56.2038C144.196 55.1708 149.207 55.5236 152.674 49.7261C154.99 45.8511 155.368 41.9634 155.368 41.9634C155.368 41.9634 151.511 48.8414 148.997 49.6634C145.923 50.665 142.386 49.9071 137.743 49.4988C135.646 49.3133 132.548 51.0594 132.548 51.0594C132.548 51.0594 134.882 46.3496 137.949 44.8646C141.015 43.3798 143.909 41.4117 145.011 39.1984C146.232 36.7492 144.987 32.4816 144.987 32.4816C144.987 32.4816 144.23 36.7355 141.765 37.782C139.3 38.825 133.082 39.9151 129.937 44.7017C126.794 49.4916 125.409 44.1076 127.866 39.6109C128.902 37.7129 133.208 36.9467 133.208 36.9467C133.208 36.9467 127.981 33.9054 124.761 39.9745C115.892 56.6929 115.287 53.4241 110.626 54.8162C95.5652 59.317 94.3399 74.5263 94.3399 74.5263Z" fill="#330E01"/>
<path d="M63.4836 139.2C61.2405 139.354 55.5912 131.83 55.5738 130.782C55.5583 129.922 60.6314 129.062 64.0383 128.295C65.8889 131.773 65.4161 131.697 68.235 134.295C66.4899 135.487 65.1148 139.087 63.4836 139.2Z" fill="#303030"/>
<path d="M125.265 72.074C124.484 73.1085 128.855 88.3713 140.77 87.9237C152.684 87.4761 164.001 81.7324 169.923 85.1813C175.846 88.6266 179.76 92.1716 185.543 89.6795C189.409 88.0142 191.695 85.0777 191.695 85.0777C191.695 85.0777 185.042 88.2033 182.572 87.2386C179.549 86.0624 177.047 83.1434 173.462 79.7874C171.843 78.2728 168.424 77.6902 168.424 77.6902C168.424 77.6902 172.728 75.3478 175.99 76.1262C179.251 76.9047 182.616 77.1724 184.643 76.0762C186.887 74.863 188.045 70.559 188.045 70.559C188.045 70.559 185.261 73.5532 182.713 72.8039C180.168 72.0578 174.533 68.9095 169.529 70.789C164.522 72.6652 166.13 67.3557 170.428 65.2669C172.241 64.3893 176.147 66.5591 176.147 66.5591C176.147 66.5591 173.428 60.6707 167.707 63.5466C151.949 71.4743 148.601 66.5165 148.601 66.5165L125.265 72.074Z" fill="#330E01"/>
<path d="M107.777 73.6154C107.333 74.8797 115.83 87.7289 126.986 82.9646C138.143 78.2003 147.226 68.644 153.818 69.748C160.411 70.852 165.13 72.7796 169.897 68.3167C173.083 65.3286 174.411 61.7186 174.411 61.7186C174.411 61.7186 169.001 67.1002 166.386 67.0914C163.188 67.0759 159.984 65.2249 155.632 63.3576C153.666 62.5169 150.26 63.2069 150.26 63.2069C150.26 63.2069 153.671 59.4262 156.982 58.9754C160.292 58.5211 163.556 57.5506 165.164 55.7769C166.944 53.8121 166.812 49.3167 166.812 49.3167C166.812 49.3167 165.028 53.1641 162.404 53.3849C159.779 53.6023 153.543 52.6761 149.337 56.2748C145.131 59.8769 145.14 54.2683 148.617 50.7271C150.082 49.2348 154.402 49.8672 154.402 49.8672C154.402 49.8672 150.146 45.2856 145.547 50.0916C132.883 63.3279 128.298 59.8596 128.298 59.8596L107.777 73.6154Z" fill="#330E01"/>
<path d="M50.1986 161.526C47.9505 162.244 39.9863 154.302 40.9794 152.825C41.9437 152.971 44.3669 150.769 47.6996 150.483C50.6402 153.684 50.1932 151.902 52.0832 155.31C51.36 155.537 52.0446 159.468 50.1986 161.526Z" fill="#191919"/>
<path d="M84.2027 119.846C90.3247 117.668 94.6951 113.389 97.869 115.71C101.02 118.011 106.542 120.937 110.875 124.264C115.211 127.59 127.687 132.619 127.687 132.619L118.364 150.23C118.364 150.23 109.419 149.458 105.712 142.956C102.008 136.454 96.8287 126.831 95.6836 126.593C94.5389 126.357 76.01 131.678 76.01 131.678C76.01 131.678 75.5262 131.738 75.2395 131.794C72.6644 132.299 69.4207 134.775 65.8524 135.092C67.6118 131.069 61.3353 131.237 61.8997 129.945C62.4252 128.746 77.4624 122.244 84.2027 119.846Z" fill="#371100"/>
<path d="M202.484 330.025C201.109 332.68 193.779 333.573 192.095 333.701C190.861 333.796 192.477 326.347 193.428 322.366C196.101 321.962 199.109 321.508 201.174 321.196C201.198 321.266 203.482 328.098 202.484 330.025Z" fill="#303030"/>
<path d="M96.139 53.578C101.291 53.5338 126.6 67.3827 135.622 72.0196C144.644 76.6602 177.578 98.0444 179.646 103.961C181.713 109.877 187.599 133.532 192.022 145.989C194.315 152.441 213.405 176.466 217.662 181.081C221.917 185.698 225.732 200.736 225.933 207.446C226.132 214.156 210.698 252.606 210.157 258.328C209.616 264.046 214.392 276.334 212.907 283.005C211.423 289.68 202.111 324.728 202.111 324.728L199.858 325.593L199.856 325.604C197.931 324.698 195.126 323.38 192.634 322.208C193.566 321.155 194.23 320.436 194.23 320.436C194.23 320.436 202.305 281.372 201.048 279.58C199.791 277.784 192.649 262.305 190.967 253.618C189.282 244.933 181.496 212.914 181.496 212.914C181.496 212.914 156.42 199.461 146.265 186.971C136.112 174.478 115.056 148.888 111.951 135.965C108.846 123.044 118.879 107.705 116.268 104.813C113.657 101.917 108.728 96.9904 107.214 95.4201C104.001 92.0907 97.7562 89.328 89.093 82.1938C81.4914 75.9352 90.9871 53.6262 96.139 53.578Z" fill="#62341F"/>
<path d="M107.786 133.629C102.661 131.385 77.5913 134.991 75.4117 135.865C71.2245 136.209 69.3112 138.004 66.5531 139.856L47.9322 150.085L51.046 156.793C62.3476 153.759 68.2265 154.198 75.421 145.933C80.2598 148.42 85.1028 148.996 88.691 149.781C92.2792 150.566 119.098 152.001 127.938 146.507C132.478 142.48 135.863 134.515 135.863 134.515L113.057 128.852C113.057 128.852 111.874 131.452 107.786 133.629Z" fill="#62341F"/>
<path d="M117.047 62.0558C115.903 67.7959 106.484 82.8399 100.423 84.8778C94.3603 86.9185 85.7678 82.0554 81.409 80.5666C77.0491 79.0768 73.7221 77.1942 71.3794 77.8218C69.0367 78.4495 68.2147 79.5477 67.0419 79.4681C65.8674 79.3912 60.0308 73.7434 59.5355 72.0975C59.043 70.4497 60.267 67.624 60.1852 65.8213C60.1057 64.0163 61.0521 61.0364 62.2902 60.5681C63.5302 60.0971 67.2424 57.9016 69.8689 58.2138C72.4953 58.5259 82.4205 56.3317 85.869 55.5456C89.3144 54.7613 97.4271 49.5848 102.89 50.9177C108.352 52.2509 118.516 54.6831 117.047 62.0558Z" fill="#62341F"/>
<path d="M111.392 57.5595C112.177 59.361 116.4 57.755 117.798 55.1291C119.196 52.4993 120.782 47.0484 120.18 44.6559C119.576 42.2663 118.081 45.715 116.05 46.6186C114.018 47.5222 108.799 51.5996 111.392 57.5595Z" fill="#371100"/>
<path d="M191.799 138.803C191.799 138.803 176.881 145.083 164.176 154.123C147.503 165.986 137.417 176.615 137.417 176.615L132.358 170.045C132.358 170.045 142.159 156.684 160.372 144.619C174.368 135.346 187.869 130.02 187.869 130.02L191.799 138.803Z" fill="black"/>
<path d="M191.799 138.803C191.799 138.803 176.881 145.083 164.176 154.123C147.503 165.986 137.417 176.615 137.417 176.615L132.358 170.045C132.358 170.045 142.159 156.684 160.372 144.619C174.368 135.346 187.869 130.02 187.869 130.02L191.799 138.803Z" fill="black"/>
<path d="M173.64 176.104C173.64 176.104 169.512 182.128 164.181 187.356C158.848 192.587 155.371 194.631 153.785 193.148C152.197 191.667 150.216 188.901 148.231 189.026C146.247 189.148 144.008 189.522 143.245 188.143C142.48 186.767 151.852 178.487 158.226 173.451C164.598 168.415 167.619 168.288 167.619 168.288L173.64 176.104Z" fill="#191919"/>
<path d="M185.378 117.527C185.378 117.527 179.38 121.696 181.387 125.479C182.832 128.199 185.23 126.901 185.643 127.679C186.057 128.458 186.226 130.763 186.92 131.446C187.612 132.133 190.579 134.1 191.001 135.41C191.425 136.716 194.974 147.983 193.418 148.762C191.861 149.543 182.259 148.159 178.968 141.095C175.678 134.028 178.441 129.58 177.703 128.066C176.966 126.552 172.191 124.367 173.659 121.07C174.329 119.566 182.143 112.011 185.378 117.527Z" fill="#191919"/>
<path d="M195.048 133.046C195.048 133.046 195.421 147.293 198.84 151.785C205.267 160.221 208.672 159.634 208.604 163.481C208.571 165.378 202.1 166.956 198.828 162.575C195.555 158.197 185.156 136.235 185.156 136.235C185.156 136.235 187.214 137.76 190.561 135.982C193.441 134.452 195.048 133.046 195.048 133.046Z" fill="#303030"/>
<path d="M179.78 179.914C176.355 178.161 170.305 172.206 160.989 157.211C157.719 151.95 150.377 140.417 145.72 126.182C143.486 119.355 181.76 105.405 182.114 106.299C182.471 107.189 180.701 115.515 188.473 131.787C198.601 152.99 206.986 163.043 206.986 163.043C206.986 163.043 183.207 181.665 179.78 179.914Z" fill="#ABABAB"/>
<path d="M70.7539 77.8534C70.9849 77.976 94.1878 89.9402 107 94.8055C128.838 103.096 139.396 106.166 139.501 106.195L139.87 104.485C139.767 104.454 129.254 101.401 107.48 93.1314C94.7436 88.2975 71.6163 76.3695 71.384 76.2503L70.7539 77.8534Z" fill="#191919"/>
<path d="M74.0267 73.6631C74.0267 73.6631 75.8072 70.8996 75.4847 65.6362C75.208 61.0996 73.76 58.877 73.76 58.877L69.8258 59.2608C69.8258 59.2608 71.3104 62.0679 71.4146 65.3392C71.5188 68.6105 69.9494 72.5436 69.9494 72.5436L74.0267 73.6631Z" fill="#191919"/>
<path d="M73.7036 72.5437L99.6901 71.5791L99.8662 73.5647L74.1419 74.2451L73.7036 72.5437Z" fill="#191919"/>
<path d="M100.283 90.8424C100.489 90.7634 104.497 88.5975 109.182 83.7611C113.251 79.5618 114.485 75.5045 115.54 71.6106C116.596 67.714 116.66 58.9195 116.66 58.9195L119.286 59.5647C119.286 59.5647 119.548 72.1848 115.089 80.081C110.63 87.9775 103.537 91.9863 103.537 91.9863L100.283 90.8424Z" fill="#191919"/>
<path d="M99.1543 73.6306C99.4234 73.8407 103.947 72.4675 107.81 69.425C112.392 65.812 116.962 58.8852 116.962 58.8852L115.254 57.8719C115.254 57.8719 110.627 65.392 106.337 68.5935C102.6 71.3809 99.5897 71.7272 99.5897 71.7272L99.1543 73.6306Z" fill="#191919"/>
<path d="M71.3661 71.6201C71.793 71.5556 72.2266 71.6376 72.616 71.8562C73.1369 72.1462 73.5269 72.6491 73.7117 73.2742C73.8983 73.8956 73.8582 74.5618 73.5992 75.1522C73.0843 76.3254 71.724 76.8539 70.6788 76.2709C70.1575 75.9774 69.7675 75.4745 69.5834 74.8528C69.3965 74.2314 69.4374 73.5617 69.6952 72.9715C70.0195 72.2344 70.6443 71.7291 71.3661 71.6201ZM72.1039 77.9973C73.2673 77.8216 74.2726 77.0097 74.7932 75.8215C75.2114 74.87 75.2763 73.7929 74.9772 72.7882C74.6779 71.7836 74.0502 70.9725 73.2084 70.5027C71.527 69.5664 69.332 70.4105 68.5013 72.3021C68.083 73.2536 68.0182 74.3308 68.3175 75.3354C68.6169 76.34 69.2443 77.1512 70.0873 77.6208C70.7132 77.9721 71.4121 78.1018 72.1039 77.9973Z" fill="#E8A900"/>
<path d="M195.403 99.8872C195.403 99.8872 195.504 96.482 195.304 94.418C194.8 89.2503 193.516 83.3719 193.516 83.3719L204.867 77.5087C204.867 77.5087 202.612 83.9602 206.098 91.3937C203.528 95.1756 199.8 99.2446 195.403 99.8872Z" fill="#FFA47C"/>
<path d="M140.884 103.477C140.884 103.477 136.279 99.7397 135.226 99.2649C134.173 98.7902 129.763 98.4621 129.763 98.4621C129.763 98.4621 130.699 100.465 130.314 101.528C129.933 102.59 128.721 105.225 128.721 105.225C128.721 105.225 132.074 107.375 133.827 107.768C135.582 108.162 140.017 110.186 140.017 110.186L140.884 103.477Z" fill="#FFBD95"/>
<path d="M196.821 64.4843C199.906 63.4607 207.066 64.9325 208.139 71.3151C209.212 77.6977 205.878 81.5567 202.983 83.4828C200.725 84.9859 198.933 85.5141 195.885 85.3913C195.263 85.3662 190.251 83.6954 189.479 82.8277C188.951 82.233 190.703 76.7606 190.509 76.6808C190.316 76.5978 189.937 76.0017 190.09 75.5653C190.316 74.9295 192.513 71.5188 192.55 71.0505C192.586 70.5817 193.286 65.6577 196.821 64.4843Z" fill="#FFBD95"/>
<path d="M195.176 64.0507C195.176 64.0507 199.662 63.7685 202.105 70.72C202.631 72.2175 199.073 75.357 199.153 75.8541C199.237 76.3906 203.932 74.7643 203.606 75.1645C200.277 79.2403 200.531 82.6433 200.905 82.8907C202.039 83.6309 208.552 78.8947 209.109 72.4423C209.665 65.9899 204.723 62.5631 203.358 62.1659C201.993 61.7689 198.119 59.9969 195.176 64.0507Z" fill="#8D3B26"/>
<path d="M164.894 143.579C167.941 145.068 168.157 164.294 164.211 173.581C160.264 182.872 153.742 191.099 153.108 192.717C152.474 194.332 151.96 198.504 150.344 198.693C148.726 198.885 144.161 193.113 144.933 191.913C145.704 190.717 145.891 191.482 147.402 188.291C148.912 185.104 154.263 167.944 155.347 163.939C156.431 159.938 159.937 141.154 164.894 143.579Z" fill="#DEDEDE"/>
<path d="M148.674 188.555C150.276 188.404 150.72 184.427 151.323 182.892C151.928 181.357 158.272 173.622 162.042 164.819C163.673 161.012 164.028 156.751 163.663 153.019C170.247 154.335 180.696 155.941 185.725 156.072C189.755 156.177 195.28 157.083 198.597 154.522L199.274 154.129C204.122 150.39 204.02 145.06 202.915 138.844C203.335 138.641 203.777 138.502 204.184 138.268C205.726 145.801 206.761 152.278 201.132 156.618L200.454 157.014C197.137 159.575 191.612 158.669 187.583 158.561C182.553 158.43 172.105 156.824 165.521 155.508C165.886 159.239 165.531 163.5 163.9 167.308C160.129 176.114 153.786 183.846 153.181 185.385C152.576 186.919 152.133 190.896 150.532 191.044C149.392 191.151 146.753 188.356 145.577 186.316C146.723 187.584 147.98 188.618 148.674 188.555Z" fill="#C2C2C2"/>
<path d="M177.948 139.837L177.954 139.836C181.792 139.008 185.629 138.444 187.707 138.355C188.856 138.308 190.333 138.283 191.942 138.297L191.966 137.638C193.633 138.034 195.327 138.315 197.023 138.479L197.831 138.539C199.835 138.683 201.826 138.576 203.784 138.321C203.737 139.455 203.166 140.52 201.307 140.813C196.904 141.511 177.134 140.064 176.992 140.054L177.948 139.837Z" fill="#C2C2C2"/>
<path d="M206.961 147.91C207.235 144.48 204.246 141.373 201.179 139.596C198.112 137.823 187.91 137.635 183.162 137.84C178.415 138.04 164.464 140.722 162.334 143.396C160.202 146.073 159.908 151.801 165.726 153.098C171.544 154.398 185.055 156.405 191.01 156.437C196.964 156.472 206.138 158.254 206.961 147.91Z" fill="#DEDEDE"/>
<path d="M166.022 167.622C166.022 167.622 164.875 173.827 162.326 178.695C159.777 183.563 153.806 191.009 153.603 192.236C153.4 193.462 151.866 198.299 151.219 199.158C150.57 200.017 148.659 201.054 148.401 201.362C148.141 201.673 147.181 202.969 147.181 202.969L141.498 199.31L141.857 197.686C141.857 197.686 136.298 195.521 133.139 192.729C129.979 189.937 127.85 187.475 127.988 186.542C128.125 185.608 129.334 184.69 132.278 186.608C135.223 188.524 142.982 189.046 144.897 189.062C146.812 189.077 154.514 165.066 154.514 165.066C154.514 165.066 157.432 161.464 160.16 162.068C163.32 162.767 166.022 167.622 166.022 167.622Z" fill="black"/>
<path d="M140.035 102.952C140.035 102.952 146.311 102.246 152.598 103.044C158.882 103.84 170.441 107.429 171.583 110.669C172.724 113.913 170.724 116.757 166.935 116.735C163.148 116.712 139.876 110.155 139.383 109.83C138.889 109.503 140.035 102.952 140.035 102.952Z" fill="#0001FC"/>
<path d="M211.85 98.576C212.684 101.254 211.003 113.13 211.603 108.229C211.632 107.994 210.686 115.673 210.582 117.154C210.489 118.472 209.462 148.788 207.171 149.134C204.88 149.48 208.413 148.922 205.874 148.003C199.702 144.449 188.707 143.951 185.874 136.429C184.506 133.987 186.735 123.868 187.207 121.4C188.172 116.358 187.314 107.548 188.193 101.172C189.072 94.797 192.626 90.7278 196.495 89.7202C200.36 88.7116 209.492 90.9848 211.85 98.576Z" fill="#0001C8"/>
<path d="M210.251 132.748L187.12 124.3" stroke="black"/>
<path d="M198.461 104.73C197.176 100.839 192.657 100.764 187.49 102.317C182.321 103.873 169.854 107.337 167.392 109.245C164.929 111.152 163.857 116.74 168.019 117.639C172.178 118.54 186.041 117.674 190.321 116.275C194.603 114.874 201.25 113.19 198.461 104.73Z" fill="#0001FC"/>
<path d="M206.126 137.351L206.511 130.659L204.068 129.701L202.922 129.874L202.994 140.478L204.292 141.609L204.676 134.916L206.126 137.351Z" fill="white" stroke="white"/>
<path d="M172.498 38.9408L173.259 45.4598L167.836 48.9324L163.183 39.0209L168.606 35.5483L172.498 38.9408Z" fill="#FFBD95"/>
<path d="M200.589 67.0511L188.743 61.8937L195.681 62.8649L200.589 67.0511Z" fill="#030303"/>
<path d="M200.589 67.0511L188.743 61.8937L195.681 62.8649L200.589 67.0511ZM200.589 67.0511L204.262 69.1897L207.935 71.3283L208.445 69.921L195.914 59.4993" stroke="black"/>
<path d="M196.846 55.813C196.478 56.8267 196.73 60.1093 196.73 60.1093L208.205 72.2277L209.129 72.6623L209.374 71.9865L210.358 71.2625L211.405 71.3593L200.785 54.8964L199.364 51.855C199.364 51.855 197.213 54.7993 196.846 55.813Z" fill="#0001C8" stroke="#0001FC"/>
<path d="M195.206 62.2553L196.403 58.9568L196.621 59.4456L209.245 71.5579L207.97 72.8892L195.206 62.2553Z" fill="#2C2E2A" stroke="black"/>
<path d="M196.785 59.823L197.118 58.9068L197.713 59.1865L209.542 71.6978L196.785 59.823Z" fill="#0001C8" stroke="#0001C8"/>
<rect width="1.33583" height="2.07711" transform="matrix(-0.890881 -0.418831 -0.345604 0.952811 198.789 56.2179)" fill="#B18138"/>
<path d="M196.102 60.746L208.708 72.0777L195.863 61.4057L196.102 60.746Z" stroke="#B18138"/>
<g filter="url(#filter0_i_408_567)">
<path d="M170.224 37.3252L200.837 12.1053" stroke="black" stroke-width="0.5"/>
</g>
<path d="M164.602 41.405L160.386 44.8056" stroke="black"/>
<path d="M200.844 12.1175C189.663 24.7118 183.053 29.5102 171.041 36.494" stroke="#404040" stroke-width="0.5"/>
<path d="M195.566 16.8817L178.61 31.3838" stroke="#404040" stroke-width="0.5"/>
<path d="M116.057 120.063C126.078 130.653 114.346 147.42 129.581 157.711" stroke="#0001FC" stroke-width="3"/>
<path d="M126.149 124.164C123.642 140.436 147.972 146.416 139.672 161.812" stroke="#0001FC" stroke-width="3"/>
<path d="M137.264 120.133C157.046 133.679 143.8 145.689 151.186 157.913" stroke="#0001FC" stroke-width="3"/>
<path d="M146.767 114.253C147.704 128.526 167.409 135.414 160.689 152.033" stroke="#0001FC" stroke-width="3"/>
<path d="M114.617 118.806C124.637 129.396 107.909 145.551 123.143 155.843" stroke="white" stroke-width="3"/>
<path d="M125.751 124.032C123.244 140.304 142.577 145.673 134.277 161.069" stroke="white" stroke-width="3"/>
<path d="M136.738 119.613C134.45 134.91 147.425 137.471 145.265 156.65" stroke="white" stroke-width="3"/>
<path d="M146.768 114.253C147.704 128.526 162.014 134.671 155.294 151.29" stroke="white" stroke-width="3"/>
<path d="M116.245 107.297L162.171 115.025L111.869 127.327C112.026 119.543 112.843 115.689 116.245 107.297Z" fill="#0001FC" stroke="#0001FC" stroke-width="0.5"/>
<path d="M191.98 235.984C196.131 254.009 176.623 274.606 185.851 293.705" stroke="#0001FC" stroke-width="3"/>
<path d="M199.457 244.752C188.916 267.296 208.905 282.849 193.328 302.473" stroke="#0001FC" stroke-width="3"/>
<path d="M208.877 242.575C199.032 263.788 214.087 273.837 202.413 300.638" stroke="#0001FC" stroke-width="3"/>
<path d="M215.355 241.541C227.246 266.602 208.697 279.961 209.536 299.565" stroke="#0001FC" stroke-width="3"/>
<path d="M223.921 236.514C217.638 257.191 232.8 272.711 218.102 294.539" stroke="#0001FC" stroke-width="3"/>
<path d="M191.25 233.773C195.401 251.797 171.478 270.082 180.706 289.182" stroke="white" stroke-width="3"/>
<path d="M199.147 244.449C188.606 266.993 204.18 280.233 188.603 299.858" stroke="white" stroke-width="3"/>
<path d="M208.231 242.614C198.386 263.827 209.361 271.222 197.687 298.023" stroke="white" stroke-width="3"/>
<path d="M215.355 241.541C227.246 266.602 203.971 277.346 204.81 296.95" stroke="white" stroke-width="3"/>
<path d="M223.921 236.515C217.637 257.191 228.074 270.096 213.377 291.924" stroke="white" stroke-width="3"/>
<path d="M196.851 245.553C184.672 229.637 175.252 216.157 202.861 166.252C223.729 175.907 226.087 205.609 229.516 223.724C232.396 248.471 218.454 244.576 196.851 245.553Z" fill="#0001FC" stroke="#0001FC" stroke-width="0.5"/>
<path d="M218.514 218.474L212.01 220.154L213.555 213.617L222.07 209.883L218.514 218.474Z" fill="white" stroke="white" stroke-width="0.5"/>
<path d="M210.131 227.034L211.675 220.497L205.172 222.177L201.616 230.768L210.131 227.034Z" fill="white" stroke="white" stroke-width="0.5"/>
<path d="M210.418 214.196L211.455 220.578L205.053 219.674L202.156 211.471L210.418 214.196Z" fill="white" stroke="white" stroke-width="0.5"/>
<path d="M218.077 221.4L211.675 220.497L212.712 226.878L220.974 229.603L218.077 221.4Z" fill="white" stroke="white" stroke-width="0.5"/>
<defs>
<filter id="filter0_i_408_567" x="170.084" y="11.907" width="30.8926" height="25.6165" filterUnits="userSpaceOnUse" color-interpolation-filters="sRGB">
<feFlood flood-opacity="0" result="BackgroundImageFix"/>
<feBlend mode="normal" in="SourceGraphic" in2="BackgroundImageFix" result="shape"/>
<feColorMatrix in="SourceAlpha" type="matrix" values="0 0 0 0 0 0 0 0 0 0 0 0 0 0 0 0 0 0 127 0" result="hardAlpha"/>
<feOffset dx="131" dy="-44"/>
<feGaussianBlur stdDeviation="2"/>
<feComposite in2="hardAlpha" operator="arithmetic" k2="-1" k3="1"/>
<feColorMatrix type="matrix" values="0 0 0 0 1 0 0 0 0 1 0 0 0 0 1 0 0 0 0.25 0"/>
<feBlend mode="normal" in2="shape" result="effect1_innerShadow_408_567"/>
</filter>
</defs>
</svg>
